<?xml version="1.0" encoding="utf-8"?>
<svg xmlns="http://www.w3.org/2000/svg" xmlns:xlink="http://www.w3.org/1999/xlink" width="600" height="400" viewBox="0 0 2400 1600">
<defs>
  <clipPath id="clip670">
    <rect x="0" y="0" width="2400" height="1600"/>
  </clipPath>
</defs>
<path clip-path="url(#clip670)" d="
M0 1600 L2400 1600 L2400 0 L0 0  Z
  " fill="#ffffff" fill-rule="evenodd" fill-opacity="1"/>
<defs>
  <clipPath id="clip671">
    <rect x="480" y="0" width="1681" height="1600"/>
  </clipPath>
</defs>
<path clip-path="url(#clip670)" d="
M148.334 1427.5 L2352.76 1427.5 L2352.76 123.472 L148.334 123.472  Z
  " fill="#ffffff" fill-rule="evenodd" fill-opacity="1"/>
<defs>
  <clipPath id="clip672">
    <rect x="148" y="123" width="2205" height="1305"/>
  </clipPath>
</defs>
<polyline clip-path="url(#clip672)" style="stroke:#000000; stroke-width:2; stroke-opacity:0.1; fill:none" points="
  378.776,1427.5 378.776,123.472 
  "/>
<polyline clip-path="url(#clip672)" style="stroke:#000000; stroke-width:2; stroke-opacity:0.1; fill:none" points="
  420.789,1427.5 420.789,123.472 
  "/>
<polyline clip-path="url(#clip672)" style="stroke:#000000; stroke-width:2; stroke-opacity:0.1; fill:none" points="
  888.183,1427.5 888.183,123.472 
  "/>
<polyline clip-path="url(#clip672)" style="stroke:#000000; stroke-width:2; stroke-opacity:0.1; fill:none" points="
  1355.58,1427.5 1355.58,123.472 
  "/>
<polyline clip-path="url(#clip672)" style="stroke:#000000; stroke-width:2; stroke-opacity:0.1; fill:none" points="
  1822.97,1427.5 1822.97,123.472 
  "/>
<polyline clip-path="url(#clip672)" style="stroke:#000000; stroke-width:2; stroke-opacity:0.1; fill:none" points="
  2290.37,1427.5 2290.37,123.472 
  "/>
<polyline clip-path="url(#clip672)" style="stroke:#000000; stroke-width:2; stroke-opacity:0.1; fill:none" points="
  148.334,1390.59 2352.76,1390.59 
  "/>
<polyline clip-path="url(#clip672)" style="stroke:#000000; stroke-width:2; stroke-opacity:0.1; fill:none" points="
  148.334,1123.16 2352.76,1123.16 
  "/>
<polyline clip-path="url(#clip672)" style="stroke:#000000; stroke-width:2; stroke-opacity:0.1; fill:none" points="
  148.334,855.717 2352.76,855.717 
  "/>
<polyline clip-path="url(#clip672)" style="stroke:#000000; stroke-width:2; stroke-opacity:0.1; fill:none" points="
  148.334,588.279 2352.76,588.279 
  "/>
<polyline clip-path="url(#clip672)" style="stroke:#000000; stroke-width:2; stroke-opacity:0.1; fill:none" points="
  148.334,320.841 2352.76,320.841 
  "/>
<polyline clip-path="url(#clip670)" style="stroke:#000000; stroke-width:4; stroke-opacity:1; fill:none" points="
  148.334,1427.5 2352.76,1427.5 
  "/>
<polyline clip-path="url(#clip670)" style="stroke:#000000; stroke-width:4; stroke-opacity:1; fill:none" points="
  148.334,1427.5 148.334,123.472 
  "/>
<polyline clip-path="url(#clip670)" style="stroke:#000000; stroke-width:4; stroke-opacity:1; fill:none" points="
  378.776,1427.5 378.776,1411.85 
  "/>
<polyline clip-path="url(#clip670)" style="stroke:#000000; stroke-width:4; stroke-opacity:1; fill:none" points="
  420.789,1427.5 420.789,1411.85 
  "/>
<polyline clip-path="url(#clip670)" style="stroke:#000000; stroke-width:4; stroke-opacity:1; fill:none" points="
  888.183,1427.5 888.183,1411.85 
  "/>
<polyline clip-path="url(#clip670)" style="stroke:#000000; stroke-width:4; stroke-opacity:1; fill:none" points="
  1355.58,1427.5 1355.58,1411.85 
  "/>
<polyline clip-path="url(#clip670)" style="stroke:#000000; stroke-width:4; stroke-opacity:1; fill:none" points="
  1822.97,1427.5 1822.97,1411.85 
  "/>
<polyline clip-path="url(#clip670)" style="stroke:#000000; stroke-width:4; stroke-opacity:1; fill:none" points="
  2290.37,1427.5 2290.37,1411.85 
  "/>
<polyline clip-path="url(#clip670)" style="stroke:#000000; stroke-width:4; stroke-opacity:1; fill:none" points="
  148.334,1390.59 174.787,1390.59 
  "/>
<polyline clip-path="url(#clip670)" style="stroke:#000000; stroke-width:4; stroke-opacity:1; fill:none" points="
  148.334,1123.16 174.787,1123.16 
  "/>
<polyline clip-path="url(#clip670)" style="stroke:#000000; stroke-width:4; stroke-opacity:1; fill:none" points="
  148.334,855.717 174.787,855.717 
  "/>
<polyline clip-path="url(#clip670)" style="stroke:#000000; stroke-width:4; stroke-opacity:1; fill:none" points="
  148.334,588.279 174.787,588.279 
  "/>
<polyline clip-path="url(#clip670)" style="stroke:#000000; stroke-width:4; stroke-opacity:1; fill:none" points="
  148.334,320.841 174.787,320.841 
  "/>
<path clip-path="url(#clip670)" d="M 0 0 M265.87 1501.79 L265.87 1497.53 Q267.629 1498.36 269.434 1498.8 Q271.24 1499.24 272.976 1499.24 Q277.606 1499.24 280.036 1496.14 Q282.49 1493.02 282.837 1486.67 Q281.495 1488.66 279.434 1489.73 Q277.374 1490.79 274.874 1490.79 Q269.689 1490.79 266.657 1487.67 Q263.647 1484.52 263.647 1479.08 Q263.647 1473.76 266.796 1470.54 Q269.944 1467.32 275.175 1467.32 Q281.171 1467.32 284.319 1471.93 Q287.49 1476.51 287.49 1485.26 Q287.49 1493.43 283.601 1498.32 Q279.735 1503.18 273.184 1503.18 Q271.425 1503.18 269.62 1502.83 Q267.814 1502.48 265.87 1501.79 M275.175 1487.14 Q278.323 1487.14 280.152 1484.98 Q282.004 1482.83 282.004 1479.08 Q282.004 1475.35 280.152 1473.2 Q278.323 1471.03 275.175 1471.03 Q272.027 1471.03 270.175 1473.2 Q268.347 1475.35 268.347 1479.08 Q268.347 1482.83 270.175 1484.98 Q272.027 1487.14 275.175 1487.14 Z" fill="#000000" fill-rule="evenodd" fill-opacity="1" /><path clip-path="url(#clip670)" d="M 0 0 M292.559 1496.63 L297.444 1496.63 L297.444 1502.51 L292.559 1502.51 L292.559 1496.63 Z" fill="#000000" fill-rule="evenodd" fill-opacity="1" /><path clip-path="url(#clip670)" d="M 0 0 M312.513 1471.03 Q308.902 1471.03 307.073 1474.59 Q305.268 1478.13 305.268 1485.26 Q305.268 1492.37 307.073 1495.93 Q308.902 1499.47 312.513 1499.47 Q316.147 1499.47 317.953 1495.93 Q319.781 1492.37 319.781 1485.26 Q319.781 1478.13 317.953 1474.59 Q316.147 1471.03 312.513 1471.03 M312.513 1467.32 Q318.323 1467.32 321.379 1471.93 Q324.457 1476.51 324.457 1485.26 Q324.457 1493.99 321.379 1498.6 Q318.323 1503.18 312.513 1503.18 Q306.703 1503.18 303.624 1498.6 Q300.569 1493.99 300.569 1485.26 Q300.569 1476.51 303.624 1471.93 Q306.703 1467.32 312.513 1467.32 Z" fill="#000000" fill-rule="evenodd" fill-opacity="1" /><path clip-path="url(#clip670)" d="M 0 0 M339.527 1471.03 Q335.916 1471.03 334.087 1474.59 Q332.281 1478.13 332.281 1485.26 Q332.281 1492.37 334.087 1495.93 Q335.916 1499.47 339.527 1499.47 Q343.161 1499.47 344.966 1495.93 Q346.795 1492.37 346.795 1485.26 Q346.795 1478.13 344.966 1474.59 Q343.161 1471.03 339.527 1471.03 M339.527 1467.32 Q345.337 1467.32 348.392 1471.93 Q351.471 1476.51 351.471 1485.26 Q351.471 1493.99 348.392 1498.6 Q345.337 1503.18 339.527 1503.18 Q333.717 1503.18 330.638 1498.6 Q327.582 1493.99 327.582 1485.26 Q327.582 1476.51 330.638 1471.93 Q333.717 1467.32 339.527 1467.32 Z" fill="#000000" fill-rule="evenodd" fill-opacity="1" /><path clip-path="url(#clip670)" d="M 0 0 M366.54 1471.03 Q362.929 1471.03 361.101 1474.59 Q359.295 1478.13 359.295 1485.26 Q359.295 1492.37 361.101 1495.93 Q362.929 1499.47 366.54 1499.47 Q370.175 1499.47 371.98 1495.93 Q373.809 1492.37 373.809 1485.26 Q373.809 1478.13 371.98 1474.59 Q370.175 1471.03 366.54 1471.03 M366.54 1467.32 Q372.351 1467.32 375.406 1471.93 Q378.485 1476.51 378.485 1485.26 Q378.485 1493.99 375.406 1498.6 Q372.351 1503.18 366.54 1503.18 Q360.73 1503.18 357.652 1498.6 Q354.596 1493.99 354.596 1485.26 Q354.596 1476.51 357.652 1471.93 Q360.73 1467.32 366.54 1467.32 Z" fill="#000000" fill-rule="evenodd" fill-opacity="1" /><path clip-path="url(#clip670)" d="M 0 0 M411.725 1477.04 L401.147 1487.67 L411.725 1498.25 L408.971 1501.05 L398.346 1490.42 L387.721 1501.05 L384.989 1498.25 L395.545 1487.67 L384.989 1477.04 L387.721 1474.24 L398.346 1484.87 L408.971 1474.24 L411.725 1477.04 Z" fill="#000000" fill-rule="evenodd" fill-opacity="1" /><path clip-path="url(#clip670)" d="M 0 0 M417.605 1498.57 L425.244 1498.57 L425.244 1472.21 L416.934 1473.87 L416.934 1469.61 L425.198 1467.95 L429.873 1467.95 L429.873 1498.57 L437.512 1498.57 L437.512 1502.51 L417.605 1502.51 L417.605 1498.57 Z" fill="#000000" fill-rule="evenodd" fill-opacity="1" /><path clip-path="url(#clip670)" d="M 0 0 M452.582 1471.03 Q448.971 1471.03 447.142 1474.59 Q445.336 1478.13 445.336 1485.26 Q445.336 1492.37 447.142 1495.93 Q448.971 1499.47 452.582 1499.47 Q456.216 1499.47 458.021 1495.93 Q459.85 1492.37 459.85 1485.26 Q459.85 1478.13 458.021 1474.59 Q456.216 1471.03 452.582 1471.03 M452.582 1467.32 Q458.392 1467.32 461.447 1471.93 Q464.526 1476.51 464.526 1485.26 Q464.526 1493.99 461.447 1498.6 Q458.392 1503.18 452.582 1503.18 Q446.772 1503.18 443.693 1498.6 Q440.637 1493.99 440.637 1485.26 Q440.637 1476.51 443.693 1471.93 Q446.772 1467.32 452.582 1467.32 Z" fill="#000000" fill-rule="evenodd" fill-opacity="1" /><path clip-path="url(#clip670)" d="M 0 0 M464.526 1454.88 L479.704 1454.88 L479.704 1456.67 L464.526 1456.67 L464.526 1454.88 Z" fill="#000000" fill-rule="evenodd" fill-opacity="1" /><path clip-path="url(#clip670)" d="M 0 0 M487.885 1453.79 Q486.23 1453.79 485.271 1454.77 Q484.312 1455.76 484.312 1457.47 Q484.312 1459.17 485.271 1460.14 Q486.23 1461.14 487.885 1461.14 Q489.522 1461.14 490.481 1460.14 Q491.44 1459.17 491.44 1457.47 Q491.44 1455.76 490.481 1454.77 Q489.522 1453.79 487.885 1453.79 M492.738 1447.13 L492.738 1449.07 Q491.816 1448.69 490.876 1448.5 Q489.935 1448.3 489.014 1448.3 Q486.606 1448.3 485.327 1449.71 Q484.049 1451.14 483.86 1454.01 Q484.575 1453.09 485.647 1452.6 Q486.738 1452.11 488.017 1452.11 Q490.744 1452.11 492.324 1453.54 Q493.904 1454.99 493.904 1457.47 Q493.904 1459.86 492.249 1461.35 Q490.612 1462.82 487.885 1462.82 Q484.744 1462.82 483.089 1460.73 Q481.434 1458.64 481.434 1454.65 Q481.434 1450.93 483.465 1448.73 Q485.497 1446.51 488.92 1446.51 Q489.841 1446.51 490.782 1446.66 Q491.722 1446.83 492.738 1447.13 Z" fill="#000000" fill-rule="evenodd" fill-opacity="1" /><path clip-path="url(#clip670)" d="M 0 0 M308.878 1498.57 L316.517 1498.57 L316.517 1472.21 L308.207 1473.87 L308.207 1469.61 L316.471 1467.95 L321.147 1467.95 L321.147 1498.57 L328.785 1498.57 L328.785 1502.51 L308.878 1502.51 L308.878 1498.57 Z" fill="#000000" fill-rule="evenodd" fill-opacity="1" /><path clip-path="url(#clip670)" d="M 0 0 M333.855 1496.63 L338.739 1496.63 L338.739 1502.51 L333.855 1502.51 L333.855 1496.63 Z" fill="#000000" fill-rule="evenodd" fill-opacity="1" /><path clip-path="url(#clip670)" d="M 0 0 M344.619 1498.57 L352.257 1498.57 L352.257 1472.21 L343.947 1473.87 L343.947 1469.61 L352.211 1467.95 L356.887 1467.95 L356.887 1498.57 L364.526 1498.57 L364.526 1502.51 L344.619 1502.51 L344.619 1498.57 Z" fill="#000000" fill-rule="evenodd" fill-opacity="1" /><path clip-path="url(#clip670)" d="M 0 0 M379.595 1471.03 Q375.984 1471.03 374.155 1474.59 Q372.35 1478.13 372.35 1485.26 Q372.35 1492.37 374.155 1495.93 Q375.984 1499.47 379.595 1499.47 Q383.23 1499.47 385.035 1495.93 Q386.864 1492.37 386.864 1485.26 Q386.864 1478.13 385.035 1474.59 Q383.23 1471.03 379.595 1471.03 M379.595 1467.32 Q385.405 1467.32 388.461 1471.93 Q391.54 1476.51 391.54 1485.26 Q391.54 1493.99 388.461 1498.6 Q385.405 1503.18 379.595 1503.18 Q373.785 1503.18 370.706 1498.6 Q367.651 1493.99 367.651 1485.26 Q367.651 1476.51 370.706 1471.93 Q373.785 1467.32 379.595 1467.32 Z" fill="#000000" fill-rule="evenodd" fill-opacity="1" /><path clip-path="url(#clip670)" d="M 0 0 M406.609 1471.03 Q402.998 1471.03 401.169 1474.59 Q399.364 1478.13 399.364 1485.26 Q399.364 1492.37 401.169 1495.93 Q402.998 1499.47 406.609 1499.47 Q410.243 1499.47 412.049 1495.93 Q413.877 1492.37 413.877 1485.26 Q413.877 1478.13 412.049 1474.59 Q410.243 1471.03 406.609 1471.03 M406.609 1467.32 Q412.419 1467.32 415.475 1471.93 Q418.553 1476.51 418.553 1485.26 Q418.553 1493.99 415.475 1498.6 Q412.419 1503.18 406.609 1503.18 Q400.799 1503.18 397.72 1498.6 Q394.665 1493.99 394.665 1485.26 Q394.665 1476.51 397.72 1471.93 Q400.799 1467.32 406.609 1467.32 Z" fill="#000000" fill-rule="evenodd" fill-opacity="1" /><path clip-path="url(#clip670)" d="M 0 0 M451.794 1477.04 L441.215 1487.67 L451.794 1498.25 L449.039 1501.05 L438.414 1490.42 L427.789 1501.05 L425.058 1498.25 L435.613 1487.67 L425.058 1477.04 L427.789 1474.24 L438.414 1484.87 L449.039 1474.24 L451.794 1477.04 Z" fill="#000000" fill-rule="evenodd" fill-opacity="1" /><path clip-path="url(#clip670)" d="M 0 0 M457.674 1498.57 L465.312 1498.57 L465.312 1472.21 L457.002 1473.87 L457.002 1469.61 L465.266 1467.95 L469.942 1467.95 L469.942 1498.57 L477.581 1498.57 L477.581 1502.51 L457.674 1502.51 L457.674 1498.57 Z" fill="#000000" fill-rule="evenodd" fill-opacity="1" /><path clip-path="url(#clip670)" d="M 0 0 M492.65 1471.03 Q489.039 1471.03 487.21 1474.59 Q485.405 1478.13 485.405 1485.26 Q485.405 1492.37 487.21 1495.93 Q489.039 1499.47 492.65 1499.47 Q496.284 1499.47 498.09 1495.93 Q499.919 1492.37 499.919 1485.26 Q499.919 1478.13 498.09 1474.59 Q496.284 1471.03 492.65 1471.03 M492.65 1467.32 Q498.46 1467.32 501.516 1471.93 Q504.595 1476.51 504.595 1485.26 Q504.595 1493.99 501.516 1498.6 Q498.46 1503.18 492.65 1503.18 Q486.84 1503.18 483.761 1498.6 Q480.706 1493.99 480.706 1485.26 Q480.706 1476.51 483.761 1471.93 Q486.84 1467.32 492.65 1467.32 Z" fill="#000000" fill-rule="evenodd" fill-opacity="1" /><path clip-path="url(#clip670)" d="M 0 0 M504.595 1454.88 L519.772 1454.88 L519.772 1456.67 L504.595 1456.67 L504.595 1454.88 Z" fill="#000000" fill-rule="evenodd" fill-opacity="1" /><path clip-path="url(#clip670)" d="M 0 0 M522.443 1446.83 L532.035 1446.83 L532.035 1448.62 L524.681 1448.62 L524.681 1452.45 Q525.208 1452.28 525.753 1452.21 Q526.28 1452.13 526.807 1452.13 Q529.835 1452.13 531.603 1453.58 Q533.37 1455.01 533.37 1457.47 Q533.37 1460.01 531.546 1461.42 Q529.741 1462.82 526.43 1462.82 Q525.302 1462.82 524.117 1462.65 Q522.932 1462.48 521.691 1462.14 L521.691 1460.01 Q522.763 1460.52 523.929 1460.78 Q525.095 1461.03 526.393 1461.03 Q528.48 1461.03 529.703 1460.07 Q530.925 1459.11 530.925 1457.47 Q530.925 1455.84 529.703 1454.88 Q528.48 1453.92 526.393 1453.92 Q525.415 1453.92 524.437 1454.11 Q523.459 1454.3 522.443 1454.69 L522.443 1446.83 Z" fill="#000000" fill-rule="evenodd" fill-opacity="1" /><path clip-path="url(#clip670)" d="M 0 0 M791.145 1483.87 Q794.502 1484.59 796.377 1486.86 Q798.275 1489.13 798.275 1492.46 Q798.275 1497.58 794.756 1500.38 Q791.238 1503.18 784.756 1503.18 Q782.58 1503.18 780.266 1502.74 Q777.974 1502.32 775.52 1501.47 L775.52 1496.95 Q777.465 1498.09 779.779 1498.66 Q782.094 1499.24 784.617 1499.24 Q789.016 1499.24 791.307 1497.51 Q793.622 1495.77 793.622 1492.46 Q793.622 1489.41 791.469 1487.69 Q789.34 1485.96 785.52 1485.96 L781.492 1485.96 L781.492 1482.11 L785.705 1482.11 Q789.154 1482.11 790.983 1480.75 Q792.812 1479.36 792.812 1476.77 Q792.812 1474.1 790.914 1472.69 Q789.039 1471.26 785.52 1471.26 Q783.599 1471.26 781.4 1471.67 Q779.201 1472.09 776.562 1472.97 L776.562 1468.8 Q779.224 1468.06 781.539 1467.69 Q783.877 1467.32 785.937 1467.32 Q791.261 1467.32 794.363 1469.75 Q797.465 1472.16 797.465 1476.28 Q797.465 1479.15 795.821 1481.14 Q794.178 1483.11 791.145 1483.87 Z" fill="#000000" fill-rule="evenodd" fill-opacity="1" /><path clip-path="url(#clip670)" d="M 0 0 M803.344 1496.63 L808.228 1496.63 L808.228 1502.51 L803.344 1502.51 L803.344 1496.63 Z" fill="#000000" fill-rule="evenodd" fill-opacity="1" /><path clip-path="url(#clip670)" d="M 0 0 M827.464 1483.87 Q830.821 1484.59 832.696 1486.86 Q834.594 1489.13 834.594 1492.46 Q834.594 1497.58 831.075 1500.38 Q827.557 1503.18 821.076 1503.18 Q818.9 1503.18 816.585 1502.74 Q814.293 1502.32 811.839 1501.47 L811.839 1496.95 Q813.784 1498.09 816.099 1498.66 Q818.414 1499.24 820.937 1499.24 Q825.335 1499.24 827.626 1497.51 Q829.941 1495.77 829.941 1492.46 Q829.941 1489.41 827.788 1487.69 Q825.659 1485.96 821.839 1485.96 L817.812 1485.96 L817.812 1482.11 L822.025 1482.11 Q825.474 1482.11 827.302 1480.75 Q829.131 1479.36 829.131 1476.77 Q829.131 1474.1 827.233 1472.69 Q825.358 1471.26 821.839 1471.26 Q819.918 1471.26 817.719 1471.67 Q815.52 1472.09 812.881 1472.97 L812.881 1468.8 Q815.543 1468.06 817.858 1467.69 Q820.196 1467.32 822.256 1467.32 Q827.58 1467.32 830.682 1469.75 Q833.784 1472.16 833.784 1476.28 Q833.784 1479.15 832.14 1481.14 Q830.497 1483.11 827.464 1483.87 Z" fill="#000000" fill-rule="evenodd" fill-opacity="1" /><path clip-path="url(#clip670)" d="M 0 0 M843.691 1498.57 L860.011 1498.57 L860.011 1502.51 L838.066 1502.51 L838.066 1498.57 Q840.728 1495.82 845.312 1491.19 Q849.918 1486.53 851.099 1485.19 Q853.344 1482.67 854.224 1480.93 Q855.126 1479.17 855.126 1477.48 Q855.126 1474.73 853.182 1472.99 Q851.261 1471.26 848.159 1471.26 Q845.96 1471.26 843.506 1472.02 Q841.075 1472.78 838.298 1474.34 L838.298 1469.61 Q841.122 1468.48 843.575 1467.9 Q846.029 1467.32 848.066 1467.32 Q853.436 1467.32 856.631 1470.01 Q859.825 1472.69 859.825 1477.18 Q859.825 1479.31 859.015 1481.23 Q858.228 1483.13 856.122 1485.72 Q855.543 1486.4 852.441 1489.61 Q849.339 1492.81 843.691 1498.57 Z" fill="#000000" fill-rule="evenodd" fill-opacity="1" /><path clip-path="url(#clip670)" d="M 0 0 M865.126 1467.95 L883.483 1467.95 L883.483 1471.88 L869.409 1471.88 L869.409 1480.35 Q870.427 1480.01 871.446 1479.85 Q872.464 1479.66 873.483 1479.66 Q879.27 1479.66 882.649 1482.83 Q886.029 1486 886.029 1491.42 Q886.029 1497 882.557 1500.1 Q879.085 1503.18 872.765 1503.18 Q870.589 1503.18 868.321 1502.81 Q866.075 1502.44 863.668 1501.7 L863.668 1497 Q865.751 1498.13 867.973 1498.69 Q870.196 1499.24 872.672 1499.24 Q876.677 1499.24 879.015 1497.14 Q881.353 1495.03 881.353 1491.42 Q881.353 1487.81 879.015 1485.7 Q876.677 1483.6 872.672 1483.6 Q870.798 1483.6 868.923 1484.01 Q867.071 1484.43 865.126 1485.31 L865.126 1467.95 Z" fill="#000000" fill-rule="evenodd" fill-opacity="1" /><path clip-path="url(#clip670)" d="M 0 0 M919.269 1477.04 L908.691 1487.67 L919.269 1498.25 L916.515 1501.05 L905.89 1490.42 L895.265 1501.05 L892.534 1498.25 L903.089 1487.67 L892.534 1477.04 L895.265 1474.24 L905.89 1484.87 L916.515 1474.24 L919.269 1477.04 Z" fill="#000000" fill-rule="evenodd" fill-opacity="1" /><path clip-path="url(#clip670)" d="M 0 0 M925.149 1498.57 L932.788 1498.57 L932.788 1472.21 L924.478 1473.87 L924.478 1469.61 L932.742 1467.95 L937.418 1467.95 L937.418 1498.57 L945.056 1498.57 L945.056 1502.51 L925.149 1502.51 L925.149 1498.57 Z" fill="#000000" fill-rule="evenodd" fill-opacity="1" /><path clip-path="url(#clip670)" d="M 0 0 M960.126 1471.03 Q956.515 1471.03 954.686 1474.59 Q952.88 1478.13 952.88 1485.26 Q952.88 1492.37 954.686 1495.93 Q956.515 1499.47 960.126 1499.47 Q963.76 1499.47 965.566 1495.93 Q967.394 1492.37 967.394 1485.26 Q967.394 1478.13 965.566 1474.59 Q963.76 1471.03 960.126 1471.03 M960.126 1467.32 Q965.936 1467.32 968.991 1471.93 Q972.07 1476.51 972.07 1485.26 Q972.07 1493.99 968.991 1498.6 Q965.936 1503.18 960.126 1503.18 Q954.316 1503.18 951.237 1498.6 Q948.181 1493.99 948.181 1485.26 Q948.181 1476.51 951.237 1471.93 Q954.316 1467.32 960.126 1467.32 Z" fill="#000000" fill-rule="evenodd" fill-opacity="1" /><path clip-path="url(#clip670)" d="M 0 0 M972.07 1454.88 L987.248 1454.88 L987.248 1456.67 L972.07 1456.67 L972.07 1454.88 Z" fill="#000000" fill-rule="evenodd" fill-opacity="1" /><path clip-path="url(#clip670)" d="M 0 0 M989.919 1446.83 L999.511 1446.83 L999.511 1448.62 L992.157 1448.62 L992.157 1452.45 Q992.683 1452.28 993.229 1452.21 Q993.755 1452.13 994.282 1452.13 Q997.31 1452.13 999.078 1453.58 Q1000.85 1455.01 1000.85 1457.47 Q1000.85 1460.01 999.022 1461.42 Q997.216 1462.82 993.906 1462.82 Q992.777 1462.82 991.593 1462.65 Q990.408 1462.48 989.166 1462.14 L989.166 1460.01 Q990.238 1460.52 991.405 1460.78 Q992.571 1461.03 993.868 1461.03 Q995.956 1461.03 997.178 1460.07 Q998.401 1459.11 998.401 1457.47 Q998.401 1455.84 997.178 1454.88 Q995.956 1453.92 993.868 1453.92 Q992.89 1453.92 991.912 1454.11 Q990.934 1454.3 989.919 1454.69 L989.919 1446.83 Z" fill="#000000" fill-rule="evenodd" fill-opacity="1" /><path clip-path="url(#clip670)" d="M 0 0 M1243.94 1467.95 L1262.3 1467.95 L1262.3 1471.88 L1248.23 1471.88 L1248.23 1480.35 Q1249.25 1480.01 1250.26 1479.85 Q1251.28 1479.66 1252.3 1479.66 Q1258.09 1479.66 1261.47 1482.83 Q1264.85 1486 1264.85 1491.42 Q1264.85 1497 1261.38 1500.1 Q1257.9 1503.18 1251.58 1503.18 Q1249.41 1503.18 1247.14 1502.81 Q1244.89 1502.44 1242.49 1501.7 L1242.49 1497 Q1244.57 1498.13 1246.79 1498.69 Q1249.01 1499.24 1251.49 1499.24 Q1255.5 1499.24 1257.83 1497.14 Q1260.17 1495.03 1260.17 1491.42 Q1260.17 1487.81 1257.83 1485.7 Q1255.5 1483.6 1251.49 1483.6 Q1249.62 1483.6 1247.74 1484.01 Q1245.89 1484.43 1243.94 1485.31 L1243.94 1467.95 Z" fill="#000000" fill-rule="evenodd" fill-opacity="1" /><path clip-path="url(#clip670)" d="M 0 0 M1269.92 1496.63 L1274.8 1496.63 L1274.8 1502.51 L1269.92 1502.51 L1269.92 1496.63 Z" fill="#000000" fill-rule="evenodd" fill-opacity="1" /><path clip-path="url(#clip670)" d="M 0 0 M1279.92 1467.95 L1298.27 1467.95 L1298.27 1471.88 L1284.2 1471.88 L1284.2 1480.35 Q1285.22 1480.01 1286.24 1479.85 Q1287.25 1479.66 1288.27 1479.66 Q1294.06 1479.66 1297.44 1482.83 Q1300.82 1486 1300.82 1491.42 Q1300.82 1497 1297.35 1500.1 Q1293.88 1503.18 1287.56 1503.18 Q1285.38 1503.18 1283.11 1502.81 Q1280.87 1502.44 1278.46 1501.7 L1278.46 1497 Q1280.54 1498.13 1282.76 1498.69 Q1284.99 1499.24 1287.46 1499.24 Q1291.47 1499.24 1293.81 1497.14 Q1296.14 1495.03 1296.14 1491.42 Q1296.14 1487.81 1293.81 1485.7 Q1291.47 1483.6 1287.46 1483.6 Q1285.59 1483.6 1283.71 1484.01 Q1281.86 1484.43 1279.92 1485.31 L1279.92 1467.95 Z" fill="#000000" fill-rule="evenodd" fill-opacity="1" /><path clip-path="url(#clip670)" d="M 0 0 M1305.94 1467.95 L1324.29 1467.95 L1324.29 1471.88 L1310.22 1471.88 L1310.22 1480.35 Q1311.24 1480.01 1312.25 1479.85 Q1313.27 1479.66 1314.29 1479.66 Q1320.08 1479.66 1323.46 1482.83 Q1326.84 1486 1326.84 1491.42 Q1326.84 1497 1323.37 1500.1 Q1319.89 1503.18 1313.57 1503.18 Q1311.4 1503.18 1309.13 1502.81 Q1306.88 1502.44 1304.48 1501.7 L1304.48 1497 Q1306.56 1498.13 1308.78 1498.69 Q1311 1499.24 1313.48 1499.24 Q1317.49 1499.24 1319.82 1497.14 Q1322.16 1495.03 1322.16 1491.42 Q1322.16 1487.81 1319.82 1485.7 Q1317.49 1483.6 1313.48 1483.6 Q1311.61 1483.6 1309.73 1484.01 Q1307.88 1484.43 1305.94 1485.31 L1305.94 1467.95 Z" fill="#000000" fill-rule="evenodd" fill-opacity="1" /><path clip-path="url(#clip670)" d="M 0 0 M1341.91 1471.03 Q1338.3 1471.03 1336.47 1474.59 Q1334.66 1478.13 1334.66 1485.26 Q1334.66 1492.37 1336.47 1495.93 Q1338.3 1499.47 1341.91 1499.47 Q1345.54 1499.47 1347.35 1495.93 Q1349.18 1492.37 1349.18 1485.26 Q1349.18 1478.13 1347.35 1474.59 Q1345.54 1471.03 1341.91 1471.03 M1341.91 1467.32 Q1347.72 1467.32 1350.77 1471.93 Q1353.85 1476.51 1353.85 1485.26 Q1353.85 1493.99 1350.77 1498.6 Q1347.72 1503.18 1341.91 1503.18 Q1336.1 1503.18 1333.02 1498.6 Q1329.96 1493.99 1329.96 1485.26 Q1329.96 1476.51 1333.02 1471.93 Q1336.1 1467.32 1341.91 1467.32 Z" fill="#000000" fill-rule="evenodd" fill-opacity="1" /><path clip-path="url(#clip670)" d="M 0 0 M1387.09 1477.04 L1376.51 1487.67 L1387.09 1498.25 L1384.34 1501.05 L1373.71 1490.42 L1363.09 1501.05 L1360.36 1498.25 L1370.91 1487.67 L1360.36 1477.04 L1363.09 1474.24 L1373.71 1484.87 L1384.34 1474.24 L1387.09 1477.04 Z" fill="#000000" fill-rule="evenodd" fill-opacity="1" /><path clip-path="url(#clip670)" d="M 0 0 M1392.97 1498.57 L1400.61 1498.57 L1400.61 1472.21 L1392.3 1473.87 L1392.3 1469.61 L1400.56 1467.95 L1405.24 1467.95 L1405.24 1498.57 L1412.88 1498.57 L1412.88 1502.51 L1392.97 1502.51 L1392.97 1498.57 Z" fill="#000000" fill-rule="evenodd" fill-opacity="1" /><path clip-path="url(#clip670)" d="M 0 0 M1427.95 1471.03 Q1424.34 1471.03 1422.51 1474.59 Q1420.7 1478.13 1420.7 1485.26 Q1420.7 1492.37 1422.51 1495.93 Q1424.34 1499.47 1427.95 1499.47 Q1431.58 1499.47 1433.39 1495.93 Q1435.22 1492.37 1435.22 1485.26 Q1435.22 1478.13 1433.39 1474.59 Q1431.58 1471.03 1427.95 1471.03 M1427.95 1467.32 Q1433.76 1467.32 1436.81 1471.93 Q1439.89 1476.51 1439.89 1485.26 Q1439.89 1493.99 1436.81 1498.6 Q1433.76 1503.18 1427.95 1503.18 Q1422.14 1503.18 1419.06 1498.6 Q1416 1493.99 1416 1485.26 Q1416 1476.51 1419.06 1471.93 Q1422.14 1467.32 1427.95 1467.32 Z" fill="#000000" fill-rule="evenodd" fill-opacity="1" /><path clip-path="url(#clip670)" d="M 0 0 M1439.89 1454.88 L1455.07 1454.88 L1455.07 1456.67 L1439.89 1456.67 L1439.89 1454.88 Z" fill="#000000" fill-rule="evenodd" fill-opacity="1" /><path clip-path="url(#clip670)" d="M 0 0 M1457.74 1446.83 L1467.33 1446.83 L1467.33 1448.62 L1459.98 1448.62 L1459.98 1452.45 Q1460.51 1452.28 1461.05 1452.21 Q1461.58 1452.13 1462.1 1452.13 Q1465.13 1452.13 1466.9 1453.58 Q1468.67 1455.01 1468.67 1457.47 Q1468.67 1460.01 1466.84 1461.42 Q1465.04 1462.82 1461.73 1462.82 Q1460.6 1462.82 1459.42 1462.65 Q1458.23 1462.48 1456.99 1462.14 L1456.99 1460.01 Q1458.06 1460.52 1459.23 1460.78 Q1460.39 1461.03 1461.69 1461.03 Q1463.78 1461.03 1465 1460.07 Q1466.22 1459.11 1466.22 1457.47 Q1466.22 1455.84 1465 1454.88 Q1463.78 1453.92 1461.69 1453.92 Q1460.71 1453.92 1459.74 1454.11 Q1458.76 1454.3 1457.74 1454.69 L1457.74 1446.83 Z" fill="#000000" fill-rule="evenodd" fill-opacity="1" /><path clip-path="url(#clip670)" d="M 0 0 M1710.36 1467.95 L1732.58 1467.95 L1732.58 1469.94 L1720.03 1502.51 L1715.15 1502.51 L1726.95 1471.88 L1710.36 1471.88 L1710.36 1467.95 Z" fill="#000000" fill-rule="evenodd" fill-opacity="1" /><path clip-path="url(#clip670)" d="M 0 0 M1737.65 1496.63 L1742.53 1496.63 L1742.53 1502.51 L1737.65 1502.51 L1737.65 1496.63 Z" fill="#000000" fill-rule="evenodd" fill-opacity="1" /><path clip-path="url(#clip670)" d="M 0 0 M1746.42 1467.95 L1768.64 1467.95 L1768.64 1469.94 L1756.1 1502.51 L1751.21 1502.51 L1763.02 1471.88 L1746.42 1471.88 L1746.42 1467.95 Z" fill="#000000" fill-rule="evenodd" fill-opacity="1" /><path clip-path="url(#clip670)" d="M 0 0 M1772.53 1467.95 L1794.75 1467.95 L1794.75 1469.94 L1782.21 1502.51 L1777.32 1502.51 L1789.13 1471.88 L1772.53 1471.88 L1772.53 1467.95 Z" fill="#000000" fill-rule="evenodd" fill-opacity="1" /><path clip-path="url(#clip670)" d="M 0 0 M1799.87 1467.95 L1818.23 1467.95 L1818.23 1471.88 L1804.15 1471.88 L1804.15 1480.35 Q1805.17 1480.01 1806.19 1479.85 Q1807.21 1479.66 1808.23 1479.66 Q1814.01 1479.66 1817.39 1482.83 Q1820.77 1486 1820.77 1491.42 Q1820.77 1497 1817.3 1500.1 Q1813.83 1503.18 1807.51 1503.18 Q1805.33 1503.18 1803.06 1502.81 Q1800.82 1502.44 1798.41 1501.7 L1798.41 1497 Q1800.49 1498.13 1802.72 1498.69 Q1804.94 1499.24 1807.42 1499.24 Q1811.42 1499.24 1813.76 1497.14 Q1816.1 1495.03 1816.1 1491.42 Q1816.1 1487.81 1813.76 1485.7 Q1811.42 1483.6 1807.42 1483.6 Q1805.54 1483.6 1803.67 1484.01 Q1801.81 1484.43 1799.87 1485.31 L1799.87 1467.95 Z" fill="#000000" fill-rule="evenodd" fill-opacity="1" /><path clip-path="url(#clip670)" d="M 0 0 M1854.01 1477.04 L1843.43 1487.67 L1854.01 1498.25 L1851.26 1501.05 L1840.63 1490.42 L1830.01 1501.05 L1827.28 1498.25 L1837.83 1487.67 L1827.28 1477.04 L1830.01 1474.24 L1840.63 1484.87 L1851.26 1474.24 L1854.01 1477.04 Z" fill="#000000" fill-rule="evenodd" fill-opacity="1" /><path clip-path="url(#clip670)" d="M 0 0 M1859.89 1498.57 L1867.53 1498.57 L1867.53 1472.21 L1859.22 1473.87 L1859.22 1469.61 L1867.48 1467.95 L1872.16 1467.95 L1872.16 1498.57 L1879.8 1498.57 L1879.8 1502.51 L1859.89 1502.51 L1859.89 1498.57 Z" fill="#000000" fill-rule="evenodd" fill-opacity="1" /><path clip-path="url(#clip670)" d="M 0 0 M1894.87 1471.03 Q1891.26 1471.03 1889.43 1474.59 Q1887.62 1478.13 1887.62 1485.26 Q1887.62 1492.37 1889.43 1495.93 Q1891.26 1499.47 1894.87 1499.47 Q1898.5 1499.47 1900.31 1495.93 Q1902.14 1492.37 1902.14 1485.26 Q1902.14 1478.13 1900.31 1474.59 Q1898.5 1471.03 1894.87 1471.03 M1894.87 1467.32 Q1900.68 1467.32 1903.73 1471.93 Q1906.81 1476.51 1906.81 1485.26 Q1906.81 1493.99 1903.73 1498.6 Q1900.68 1503.18 1894.87 1503.18 Q1889.06 1503.18 1885.98 1498.6 Q1882.92 1493.99 1882.92 1485.26 Q1882.92 1476.51 1885.98 1471.93 Q1889.06 1467.32 1894.87 1467.32 Z" fill="#000000" fill-rule="evenodd" fill-opacity="1" /><path clip-path="url(#clip670)" d="M 0 0 M1906.81 1454.88 L1921.99 1454.88 L1921.99 1456.67 L1906.81 1456.67 L1906.81 1454.88 Z" fill="#000000" fill-rule="evenodd" fill-opacity="1" /><path clip-path="url(#clip670)" d="M 0 0 M1924.66 1446.83 L1934.25 1446.83 L1934.25 1448.62 L1926.9 1448.62 L1926.9 1452.45 Q1927.43 1452.28 1927.97 1452.21 Q1928.5 1452.13 1929.02 1452.13 Q1932.05 1452.13 1933.82 1453.58 Q1935.59 1455.01 1935.59 1457.47 Q1935.59 1460.01 1933.76 1461.42 Q1931.96 1462.82 1928.65 1462.82 Q1927.52 1462.82 1926.34 1462.65 Q1925.15 1462.48 1923.91 1462.14 L1923.91 1460.01 Q1924.98 1460.52 1926.15 1460.78 Q1927.31 1461.03 1928.61 1461.03 Q1930.7 1461.03 1931.92 1460.07 Q1933.14 1459.11 1933.14 1457.47 Q1933.14 1455.84 1931.92 1454.88 Q1930.7 1453.92 1928.61 1453.92 Q1927.63 1453.92 1926.66 1454.11 Q1925.68 1454.3 1924.66 1454.69 L1924.66 1446.83 Z" fill="#000000" fill-rule="evenodd" fill-opacity="1" /><path clip-path="url(#clip670)" d="M 0 0 M2177.53 1498.57 L2185.17 1498.57 L2185.17 1472.21 L2176.86 1473.87 L2176.86 1469.61 L2185.12 1467.95 L2189.8 1467.95 L2189.8 1498.57 L2197.44 1498.57 L2197.44 1502.51 L2177.53 1502.51 L2177.53 1498.57 Z" fill="#000000" fill-rule="evenodd" fill-opacity="1" /><path clip-path="url(#clip670)" d="M 0 0 M2202.51 1496.63 L2207.39 1496.63 L2207.39 1502.51 L2202.51 1502.51 L2202.51 1496.63 Z" fill="#000000" fill-rule="evenodd" fill-opacity="1" /><path clip-path="url(#clip670)" d="M 0 0 M2222.46 1471.03 Q2218.85 1471.03 2217.02 1474.59 Q2215.22 1478.13 2215.22 1485.26 Q2215.22 1492.37 2217.02 1495.93 Q2218.85 1499.47 2222.46 1499.47 Q2226.1 1499.47 2227.9 1495.93 Q2229.73 1492.37 2229.73 1485.26 Q2229.73 1478.13 2227.9 1474.59 Q2226.1 1471.03 2222.46 1471.03 M2222.46 1467.32 Q2228.27 1467.32 2231.33 1471.93 Q2234.41 1476.51 2234.41 1485.26 Q2234.41 1493.99 2231.33 1498.6 Q2228.27 1503.18 2222.46 1503.18 Q2216.65 1503.18 2213.57 1498.6 Q2210.52 1493.99 2210.52 1485.26 Q2210.52 1476.51 2213.57 1471.93 Q2216.65 1467.32 2222.46 1467.32 Z" fill="#000000" fill-rule="evenodd" fill-opacity="1" /><path clip-path="url(#clip670)" d="M 0 0 M2249.48 1471.03 Q2245.87 1471.03 2244.04 1474.59 Q2242.23 1478.13 2242.23 1485.26 Q2242.23 1492.37 2244.04 1495.93 Q2245.87 1499.47 2249.48 1499.47 Q2253.11 1499.47 2254.92 1495.93 Q2256.74 1492.37 2256.74 1485.26 Q2256.74 1478.13 2254.92 1474.59 Q2253.11 1471.03 2249.48 1471.03 M2249.48 1467.32 Q2255.29 1467.32 2258.34 1471.93 Q2261.42 1476.51 2261.42 1485.26 Q2261.42 1493.99 2258.34 1498.6 Q2255.29 1503.18 2249.48 1503.18 Q2243.67 1503.18 2240.59 1498.6 Q2237.53 1493.99 2237.53 1485.26 Q2237.53 1476.51 2240.59 1471.93 Q2243.67 1467.32 2249.48 1467.32 Z" fill="#000000" fill-rule="evenodd" fill-opacity="1" /><path clip-path="url(#clip670)" d="M 0 0 M2276.49 1471.03 Q2272.88 1471.03 2271.05 1474.59 Q2269.24 1478.13 2269.24 1485.26 Q2269.24 1492.37 2271.05 1495.93 Q2272.88 1499.47 2276.49 1499.47 Q2280.12 1499.47 2281.93 1495.93 Q2283.76 1492.37 2283.76 1485.26 Q2283.76 1478.13 2281.93 1474.59 Q2280.12 1471.03 2276.49 1471.03 M2276.49 1467.32 Q2282.3 1467.32 2285.36 1471.93 Q2288.43 1476.51 2288.43 1485.26 Q2288.43 1493.99 2285.36 1498.6 Q2282.3 1503.18 2276.49 1503.18 Q2270.68 1503.18 2267.6 1498.6 Q2264.55 1493.99 2264.55 1485.26 Q2264.55 1476.51 2267.6 1471.93 Q2270.68 1467.32 2276.49 1467.32 Z" fill="#000000" fill-rule="evenodd" fill-opacity="1" /><path clip-path="url(#clip670)" d="M 0 0 M2321.68 1477.04 L2311.1 1487.67 L2321.68 1498.25 L2318.92 1501.05 L2308.3 1490.42 L2297.67 1501.05 L2294.94 1498.25 L2305.49 1487.67 L2294.94 1477.04 L2297.67 1474.24 L2308.3 1484.87 L2318.92 1474.24 L2321.68 1477.04 Z" fill="#000000" fill-rule="evenodd" fill-opacity="1" /><path clip-path="url(#clip670)" d="M 0 0 M2327.55 1498.57 L2335.19 1498.57 L2335.19 1472.21 L2326.88 1473.87 L2326.88 1469.61 L2335.15 1467.95 L2339.82 1467.95 L2339.82 1498.57 L2347.46 1498.57 L2347.46 1502.51 L2327.55 1502.51 L2327.55 1498.57 Z" fill="#000000" fill-rule="evenodd" fill-opacity="1" /><path clip-path="url(#clip670)" d="M 0 0 M2362.53 1471.03 Q2358.92 1471.03 2357.09 1474.59 Q2355.29 1478.13 2355.29 1485.26 Q2355.29 1492.37 2357.09 1495.93 Q2358.92 1499.47 2362.53 1499.47 Q2366.17 1499.47 2367.97 1495.93 Q2369.8 1492.37 2369.8 1485.26 Q2369.8 1478.13 2367.97 1474.59 Q2366.17 1471.03 2362.53 1471.03 M2362.53 1467.32 Q2368.34 1467.32 2371.4 1471.93 Q2374.48 1476.51 2374.48 1485.26 Q2374.48 1493.99 2371.4 1498.6 Q2368.34 1503.18 2362.53 1503.18 Q2356.72 1503.18 2353.64 1498.6 Q2350.59 1493.99 2350.59 1485.26 Q2350.59 1476.51 2353.64 1471.93 Q2356.72 1467.32 2362.53 1467.32 Z" fill="#000000" fill-rule="evenodd" fill-opacity="1" /><path clip-path="url(#clip670)" d="M 0 0 M2374.48 1454.88 L2389.65 1454.88 L2389.65 1456.67 L2374.48 1456.67 L2374.48 1454.88 Z" fill="#000000" fill-rule="evenodd" fill-opacity="1" /><path clip-path="url(#clip670)" d="M 0 0 M2398.62 1449.1 L2392.81 1456.98 L2398.62 1456.98 L2398.62 1449.1 M2398.21 1446.83 L2401.33 1446.83 L2401.33 1456.98 L2403.87 1456.98 L2403.87 1459.03 L2401.33 1459.03 L2401.33 1462.53 L2398.62 1462.53 L2398.62 1459.03 L2390.84 1459.03 L2390.84 1456.76 L2398.21 1446.83 Z" fill="#000000" fill-rule="evenodd" fill-opacity="1" /><path clip-path="url(#clip670)" d="M 0 0 M75.4226 1376.39 Q71.8115 1376.39 69.9828 1379.96 Q68.1773 1383.5 68.1773 1390.63 Q68.1773 1397.73 69.9828 1401.3 Q71.8115 1404.84 75.4226 1404.84 Q79.0569 1404.84 80.8624 1401.3 Q82.6911 1397.73 82.6911 1390.63 Q82.6911 1383.5 80.8624 1379.96 Q79.0569 1376.39 75.4226 1376.39 M75.4226 1372.69 Q81.2328 1372.69 84.2883 1377.29 Q87.367 1381.88 87.367 1390.63 Q87.367 1399.35 84.2883 1403.96 Q81.2328 1408.54 75.4226 1408.54 Q69.6125 1408.54 66.5338 1403.96 Q63.4782 1399.35 63.4782 1390.63 Q63.4782 1381.88 66.5338 1377.29 Q69.6125 1372.69 75.4226 1372.69 Z" fill="#000000" fill-rule="evenodd" fill-opacity="1" /><path clip-path="url(#clip670)" d="M 0 0 M92.4364 1401.99 L97.3206 1401.99 L97.3206 1407.87 L92.4364 1407.87 L92.4364 1401.99 Z" fill="#000000" fill-rule="evenodd" fill-opacity="1" /><path clip-path="url(#clip670)" d="M 0 0 M112.39 1376.39 Q108.779 1376.39 106.95 1379.96 Q105.145 1383.5 105.145 1390.63 Q105.145 1397.73 106.95 1401.3 Q108.779 1404.84 112.39 1404.84 Q116.024 1404.84 117.83 1401.3 Q119.658 1397.73 119.658 1390.63 Q119.658 1383.5 117.83 1379.96 Q116.024 1376.39 112.39 1376.39 M112.39 1372.69 Q118.2 1372.69 121.256 1377.29 Q124.334 1381.88 124.334 1390.63 Q124.334 1399.35 121.256 1403.96 Q118.2 1408.54 112.39 1408.54 Q106.58 1408.54 103.501 1403.96 Q100.446 1399.35 100.446 1390.63 Q100.446 1381.88 103.501 1377.29 Q106.58 1372.69 112.39 1372.69 Z" fill="#000000" fill-rule="evenodd" fill-opacity="1" /><path clip-path="url(#clip670)" d="M 0 0 M76.6495 1108.95 Q73.0384 1108.95 71.2097 1112.52 Q69.4041 1116.06 69.4041 1123.19 Q69.4041 1130.3 71.2097 1133.86 Q73.0384 1137.4 76.6495 1137.4 Q80.2837 1137.4 82.0892 1133.86 Q83.9179 1130.3 83.9179 1123.19 Q83.9179 1116.06 82.0892 1112.52 Q80.2837 1108.95 76.6495 1108.95 M76.6495 1105.25 Q82.4596 1105.25 85.5152 1109.86 Q88.5938 1114.44 88.5938 1123.19 Q88.5938 1131.92 85.5152 1136.52 Q82.4596 1141.11 76.6495 1141.11 Q70.8393 1141.11 67.7606 1136.52 Q64.7051 1131.92 64.7051 1123.19 Q64.7051 1114.44 67.7606 1109.86 Q70.8393 1105.25 76.6495 1105.25 Z" fill="#000000" fill-rule="evenodd" fill-opacity="1" /><path clip-path="url(#clip670)" d="M 0 0 M93.6633 1134.56 L98.5475 1134.56 L98.5475 1140.44 L93.6633 1140.44 L93.6633 1134.56 Z" fill="#000000" fill-rule="evenodd" fill-opacity="1" /><path clip-path="url(#clip670)" d="M 0 0 M104.427 1136.5 L112.066 1136.5 L112.066 1110.13 L103.756 1111.8 L103.756 1107.54 L112.02 1105.88 L116.696 1105.88 L116.696 1136.5 L124.334 1136.5 L124.334 1140.44 L104.427 1140.44 L104.427 1136.5 Z" fill="#000000" fill-rule="evenodd" fill-opacity="1" /><path clip-path="url(#clip670)" d="M 0 0 M77.0198 841.516 Q73.4087 841.516 71.58 845.081 Q69.7745 848.623 69.7745 855.752 Q69.7745 862.859 71.58 866.423 Q73.4087 869.965 77.0198 869.965 Q80.6541 869.965 82.4596 866.423 Q84.2883 862.859 84.2883 855.752 Q84.2883 848.623 82.4596 845.081 Q80.6541 841.516 77.0198 841.516 M77.0198 837.812 Q82.83 837.812 85.8855 842.419 Q88.9642 847.002 88.9642 855.752 Q88.9642 864.479 85.8855 869.085 Q82.83 873.669 77.0198 873.669 Q71.2097 873.669 68.131 869.085 Q65.0754 864.479 65.0754 855.752 Q65.0754 847.002 68.131 842.419 Q71.2097 837.812 77.0198 837.812 Z" fill="#000000" fill-rule="evenodd" fill-opacity="1" /><path clip-path="url(#clip670)" d="M 0 0 M94.0336 867.118 L98.9179 867.118 L98.9179 872.997 L94.0336 872.997 L94.0336 867.118 Z" fill="#000000" fill-rule="evenodd" fill-opacity="1" /><path clip-path="url(#clip670)" d="M 0 0 M108.015 869.062 L124.334 869.062 L124.334 872.997 L102.39 872.997 L102.39 869.062 Q105.052 866.308 109.635 861.678 Q114.242 857.025 115.422 855.683 Q117.668 853.16 118.547 851.423 Q119.45 849.664 119.45 847.974 Q119.45 845.22 117.506 843.484 Q115.584 841.748 112.483 841.748 Q110.284 841.748 107.83 842.511 Q105.399 843.275 102.622 844.826 L102.622 840.104 Q105.446 838.97 107.899 838.391 Q110.353 837.812 112.39 837.812 Q117.76 837.812 120.955 840.498 Q124.149 843.183 124.149 847.673 Q124.149 849.803 123.339 851.724 Q122.552 853.622 120.446 856.215 Q119.867 856.886 116.765 860.104 Q113.663 863.298 108.015 869.062 Z" fill="#000000" fill-rule="evenodd" fill-opacity="1" /><path clip-path="url(#clip670)" d="M 0 0 M76.0708 574.078 Q72.4597 574.078 70.631 577.643 Q68.8254 581.185 68.8254 588.314 Q68.8254 595.421 70.631 598.985 Q72.4597 602.527 76.0708 602.527 Q79.705 602.527 81.5105 598.985 Q83.3392 595.421 83.3392 588.314 Q83.3392 581.185 81.5105 577.643 Q79.705 574.078 76.0708 574.078 M76.0708 570.374 Q81.8809 570.374 84.9365 574.981 Q88.0151 579.564 88.0151 588.314 Q88.0151 597.041 84.9365 601.647 Q81.8809 606.231 76.0708 606.231 Q70.2606 606.231 67.1819 601.647 Q64.1264 597.041 64.1264 588.314 Q64.1264 579.564 67.1819 574.981 Q70.2606 570.374 76.0708 570.374 Z" fill="#000000" fill-rule="evenodd" fill-opacity="1" /><path clip-path="url(#clip670)" d="M 0 0 M93.0846 599.68 L97.9688 599.68 L97.9688 605.559 L93.0846 605.559 L93.0846 599.68 Z" fill="#000000" fill-rule="evenodd" fill-opacity="1" /><path clip-path="url(#clip670)" d="M 0 0 M117.205 586.925 Q120.561 587.643 122.436 589.911 Q124.334 592.18 124.334 595.513 Q124.334 600.629 120.816 603.43 Q117.297 606.231 110.816 606.231 Q108.64 606.231 106.325 605.791 Q104.034 605.374 101.58 604.518 L101.58 600.004 Q103.524 601.138 105.839 601.717 Q108.154 602.296 110.677 602.296 Q115.075 602.296 117.367 600.559 Q119.682 598.823 119.682 595.513 Q119.682 592.458 117.529 590.745 Q115.399 589.009 111.58 589.009 L107.552 589.009 L107.552 585.166 L111.765 585.166 Q115.214 585.166 117.043 583.8 Q118.871 582.411 118.871 579.819 Q118.871 577.157 116.973 575.745 Q115.098 574.31 111.58 574.31 Q109.659 574.31 107.459 574.726 Q105.26 575.143 102.622 576.023 L102.622 571.856 Q105.284 571.115 107.598 570.745 Q109.936 570.374 111.996 570.374 Q117.321 570.374 120.422 572.805 Q123.524 575.212 123.524 579.333 Q123.524 582.203 121.881 584.194 Q120.237 586.161 117.205 586.925 Z" fill="#000000" fill-rule="evenodd" fill-opacity="1" /><path clip-path="url(#clip670)" d="M 0 0 M74.9365 306.64 Q71.3254 306.64 69.4967 310.205 Q67.6912 313.747 67.6912 320.876 Q67.6912 327.983 69.4967 331.547 Q71.3254 335.089 74.9365 335.089 Q78.5707 335.089 80.3763 331.547 Q82.205 327.983 82.205 320.876 Q82.205 313.747 80.3763 310.205 Q78.5707 306.64 74.9365 306.64 M74.9365 302.936 Q80.7467 302.936 83.8022 307.543 Q86.8809 312.126 86.8809 320.876 Q86.8809 329.603 83.8022 334.209 Q80.7467 338.793 74.9365 338.793 Q69.1264 338.793 66.0477 334.209 Q62.9921 329.603 62.9921 320.876 Q62.9921 312.126 66.0477 307.543 Q69.1264 302.936 74.9365 302.936 Z" fill="#000000" fill-rule="evenodd" fill-opacity="1" /><path clip-path="url(#clip670)" d="M 0 0 M91.9503 332.242 L96.8345 332.242 L96.8345 338.121 L91.9503 338.121 L91.9503 332.242 Z" fill="#000000" fill-rule="evenodd" fill-opacity="1" /><path clip-path="url(#clip670)" d="M 0 0 M114.751 307.635 L102.946 326.084 L114.751 326.084 L114.751 307.635 M113.524 303.561 L119.404 303.561 L119.404 326.084 L124.334 326.084 L124.334 329.973 L119.404 329.973 L119.404 338.121 L114.751 338.121 L114.751 329.973 L99.1493 329.973 L99.1493 325.459 L113.524 303.561 Z" fill="#000000" fill-rule="evenodd" fill-opacity="1" /><path clip-path="url(#clip670)" d="M 0 0 M894.43 12.096 L945.593 12.096 L945.593 18.9825 L924.123 18.9825 L924.123 72.576 L915.9 72.576 L915.9 18.9825 L894.43 18.9825 L894.43 12.096 Z" fill="#000000" fill-rule="evenodd" fill-opacity="1" /><path clip-path="url(#clip670)" d="M 0 0 M959.366 76.7889 Q956.206 84.8907 953.209 87.3618 Q950.211 89.8329 945.188 89.8329 L939.233 89.8329 L939.233 83.5945 L943.608 83.5945 Q946.687 83.5945 948.388 82.1361 Q950.09 80.6778 952.156 75.2496 L953.492 71.8468 L935.142 27.2059 L943.041 27.2059 L957.219 62.6918 L971.397 27.2059 L979.297 27.2059 L959.366 76.7889 Z" fill="#000000" fill-rule="evenodd" fill-opacity="1" /><path clip-path="url(#clip670)" d="M 0 0 M994.325 65.7705 L994.325 89.8329 L986.831 89.8329 L986.831 27.2059 L994.325 27.2059 L994.325 34.0924 Q996.675 30.0415 1000.24 28.0971 Q1003.85 26.1121 1008.83 26.1121 Q1017.09 26.1121 1022.24 32.6746 Q1027.42 39.2371 1027.42 49.9314 Q1027.42 60.6258 1022.24 67.1883 Q1017.09 73.7508 1008.83 73.7508 Q1003.85 73.7508 1000.24 71.8063 Q996.675 69.8214 994.325 65.7705 M1019.68 49.9314 Q1019.68 41.7081 1016.28 37.0496 Q1012.92 32.3505 1007 32.3505 Q1001.09 32.3505 997.688 37.0496 Q994.325 41.7081 994.325 49.9314 Q994.325 58.1548 997.688 62.8538 Q1001.09 67.5124 1007 67.5124 Q1012.92 67.5124 1016.28 62.8538 Q1019.68 58.1548 1019.68 49.9314 Z" fill="#000000" fill-rule="evenodd" fill-opacity="1" /><path clip-path="url(#clip670)" d="M 0 0 M1074.05 48.0275 L1074.05 51.6733 L1039.78 51.6733 Q1040.26 59.3701 1044.39 63.421 Q1048.57 67.4314 1055.98 67.4314 Q1060.27 67.4314 1064.28 66.3781 Q1068.34 65.3249 1072.31 63.2184 L1072.31 70.267 Q1068.29 71.9684 1064.08 72.8596 Q1059.87 73.7508 1055.53 73.7508 Q1044.68 73.7508 1038.32 67.4314 Q1032 61.1119 1032 50.3365 Q1032 39.1965 1037.99 32.6746 Q1044.03 26.1121 1054.24 26.1121 Q1063.39 26.1121 1068.7 32.0264 Q1074.05 37.9003 1074.05 48.0275 M1066.59 45.84 Q1066.51 39.7232 1063.15 36.0774 Q1059.83 32.4315 1054.32 32.4315 Q1048.08 32.4315 1044.31 35.9558 Q1040.59 39.4801 1040.02 45.8805 L1066.59 45.84 Z" fill="#000000" fill-rule="evenodd" fill-opacity="1" /><path clip-path="url(#clip670)" d="M 0 0 M1144.82 14.0809 L1144.82 22.0612 Q1140.16 19.8332 1136.03 18.7395 Q1131.89 17.6457 1128.05 17.6457 Q1121.36 17.6457 1117.72 20.2383 Q1114.11 22.8309 1114.11 27.611 Q1114.11 31.6214 1116.5 33.6873 Q1118.93 35.7128 1125.66 36.9686 L1130.6 37.9813 Q1139.75 39.7232 1144.09 44.1387 Q1148.46 48.5136 1148.46 55.8863 Q1148.46 64.6767 1142.55 69.2137 Q1136.67 73.7508 1125.29 73.7508 Q1121 73.7508 1116.14 72.7785 Q1111.32 71.8063 1106.13 69.9024 L1106.13 61.4765 Q1111.11 64.2716 1115.89 65.6895 Q1120.67 67.1073 1125.29 67.1073 Q1132.3 67.1073 1136.11 64.3527 Q1139.91 61.598 1139.91 56.4939 Q1139.91 52.0379 1137.16 49.5264 Q1134.45 47.0148 1128.21 45.759 L1123.23 44.7868 Q1114.07 42.9639 1109.98 39.075 Q1105.89 35.1862 1105.89 28.2591 Q1105.89 20.2383 1111.52 15.6203 Q1117.19 11.0023 1127.11 11.0023 Q1131.37 11.0023 1135.78 11.7719 Q1140.2 12.5416 1144.82 14.0809 Z" fill="#000000" fill-rule="evenodd" fill-opacity="1" /><path clip-path="url(#clip670)" d="M 0 0 M1182.98 12.096 L1221.22 12.096 L1221.22 18.9825 L1191.16 18.9825 L1191.16 36.8875 L1219.96 36.8875 L1219.96 43.7741 L1191.16 43.7741 L1191.16 65.6895 L1221.95 65.6895 L1221.95 72.576 L1182.98 72.576 L1182.98 12.096 Z" fill="#000000" fill-rule="evenodd" fill-opacity="1" /><path clip-path="url(#clip670)" d="M 0 0 M1256.05 34.1734 Q1254.8 33.4443 1253.3 33.1202 Q1251.84 32.7556 1250.06 32.7556 Q1243.74 32.7556 1240.34 36.8875 Q1236.97 40.9789 1236.97 48.6757 L1236.97 72.576 L1229.48 72.576 L1229.48 27.2059 L1236.97 27.2059 L1236.97 34.2544 Q1239.32 30.1225 1243.09 28.1376 Q1246.86 26.1121 1252.25 26.1121 Q1253.02 26.1121 1253.95 26.2337 Q1254.88 26.3147 1256.01 26.5172 L1256.05 34.1734 Z" fill="#000000" fill-rule="evenodd" fill-opacity="1" /><path clip-path="url(#clip670)" d="M 0 0 M1288.7 34.1734 Q1287.45 33.4443 1285.95 33.1202 Q1284.49 32.7556 1282.71 32.7556 Q1276.39 32.7556 1272.99 36.8875 Q1269.62 40.9789 1269.62 48.6757 L1269.62 72.576 L1262.13 72.576 L1262.13 27.2059 L1269.62 27.2059 L1269.62 34.2544 Q1271.97 30.1225 1275.74 28.1376 Q1279.51 26.1121 1284.9 26.1121 Q1285.67 26.1121 1286.6 26.2337 Q1287.53 26.3147 1288.66 26.5172 L1288.7 34.1734 Z" fill="#000000" fill-rule="evenodd" fill-opacity="1" /><path clip-path="url(#clip670)" d="M 0 0 M1312.28 32.4315 Q1306.29 32.4315 1302.8 37.1306 Q1299.32 41.7891 1299.32 49.9314 Q1299.32 58.0738 1302.76 62.7728 Q1306.25 67.4314 1312.28 67.4314 Q1318.24 67.4314 1321.72 62.7323 Q1325.2 58.0333 1325.2 49.9314 Q1325.2 41.8701 1321.72 37.1711 Q1318.24 32.4315 1312.28 32.4315 M1312.28 26.1121 Q1322 26.1121 1327.55 32.4315 Q1333.1 38.7509 1333.1 49.9314 Q1333.1 61.0714 1327.55 67.4314 Q1322 73.7508 1312.28 73.7508 Q1302.52 73.7508 1296.97 67.4314 Q1291.46 61.0714 1291.46 49.9314 Q1291.46 38.7509 1296.97 32.4315 Q1302.52 26.1121 1312.28 26.1121 Z" fill="#000000" fill-rule="evenodd" fill-opacity="1" /><path clip-path="url(#clip670)" d="M 0 0 M1367.21 34.1734 Q1365.96 33.4443 1364.46 33.1202 Q1363 32.7556 1361.22 32.7556 Q1354.9 32.7556 1351.49 36.8875 Q1348.13 40.9789 1348.13 48.6757 L1348.13 72.576 L1340.64 72.576 L1340.64 27.2059 L1348.13 27.2059 L1348.13 34.2544 Q1350.48 30.1225 1354.25 28.1376 Q1358.02 26.1121 1363.4 26.1121 Q1364.17 26.1121 1365.1 26.2337 Q1366.04 26.3147 1367.17 26.5172 L1367.21 34.1734 Z" fill="#000000" fill-rule="evenodd" fill-opacity="1" /><path clip-path="url(#clip670)" d="M 0 0 M1430.41 44.2197 Q1433.04 45.1109 1435.51 48.0275 Q1438.02 50.9442 1440.53 56.0483 L1448.84 72.576 L1440.05 72.576 L1432.31 57.061 Q1429.31 50.9847 1426.48 48.9997 Q1423.68 47.0148 1418.82 47.0148 L1409.91 47.0148 L1409.91 72.576 L1401.72 72.576 L1401.72 12.096 L1420.2 12.096 Q1430.57 12.096 1435.67 16.4305 Q1440.78 20.7649 1440.78 29.5149 Q1440.78 35.2267 1438.1 38.994 Q1435.47 42.7613 1430.41 44.2197 M1409.91 18.8205 L1409.91 40.2903 L1420.2 40.2903 Q1426.11 40.2903 1429.11 37.5762 Q1432.15 34.8216 1432.15 29.5149 Q1432.15 24.2082 1429.11 21.5346 Q1426.11 18.8205 1420.2 18.8205 L1409.91 18.8205 Z" fill="#000000" fill-rule="evenodd" fill-opacity="1" /><path clip-path="url(#clip670)" d="M 0 0 M1475.45 49.7694 Q1466.42 49.7694 1462.93 51.8354 Q1459.45 53.9013 1459.45 58.8839 Q1459.45 62.8538 1462.04 65.2034 Q1464.68 67.5124 1469.17 67.5124 Q1475.37 67.5124 1479.1 63.1374 Q1482.86 58.7219 1482.86 51.4303 L1482.86 49.7694 L1475.45 49.7694 M1490.32 46.6907 L1490.32 72.576 L1482.86 72.576 L1482.86 65.6895 Q1480.31 69.8214 1476.5 71.8063 Q1472.7 73.7508 1467.19 73.7508 Q1460.22 73.7508 1456.09 69.8619 Q1452 65.9325 1452 59.3701 Q1452 51.7138 1457.1 47.825 Q1462.25 43.9361 1472.41 43.9361 L1482.86 43.9361 L1482.86 43.2069 Q1482.86 38.0623 1479.46 35.2672 Q1476.1 32.4315 1469.98 32.4315 Q1466.09 32.4315 1462.41 33.3632 Q1458.72 34.295 1455.32 36.1584 L1455.32 29.2718 Q1459.41 27.692 1463.26 26.9223 Q1467.11 26.1121 1470.75 26.1121 Q1480.6 26.1121 1485.46 31.2163 Q1490.32 36.3204 1490.32 46.6907 Z" fill="#000000" fill-rule="evenodd" fill-opacity="1" /><path clip-path="url(#clip670)" d="M 0 0 M1505.51 14.324 L1505.51 27.2059 L1520.86 27.2059 L1520.86 32.9987 L1505.51 32.9987 L1505.51 57.6282 Q1505.51 63.1779 1507.01 64.7578 Q1508.55 66.3376 1513.21 66.3376 L1520.86 66.3376 L1520.86 72.576 L1513.21 72.576 Q1504.58 72.576 1501.3 69.3758 Q1498.01 66.1351 1498.01 57.6282 L1498.01 32.9987 L1492.55 32.9987 L1492.55 27.2059 L1498.01 27.2059 L1498.01 14.324 L1505.51 14.324 Z" fill="#000000" fill-rule="evenodd" fill-opacity="1" /><path clip-path="url(#clip670)" d="M 0 0 M1567.49 48.0275 L1567.49 51.6733 L1533.22 51.6733 Q1533.7 59.3701 1537.84 63.421 Q1542.01 67.4314 1549.42 67.4314 Q1553.71 67.4314 1557.73 66.3781 Q1561.78 65.3249 1565.75 63.2184 L1565.75 70.267 Q1561.74 71.9684 1557.52 72.8596 Q1553.31 73.7508 1548.98 73.7508 Q1538.12 73.7508 1531.76 67.4314 Q1525.44 61.1119 1525.44 50.3365 Q1525.44 39.1965 1531.43 32.6746 Q1537.47 26.1121 1547.68 26.1121 Q1556.83 26.1121 1562.14 32.0264 Q1567.49 37.9003 1567.49 48.0275 M1560.03 45.84 Q1559.95 39.7232 1556.59 36.0774 Q1553.27 32.4315 1547.76 32.4315 Q1541.52 32.4315 1537.75 35.9558 Q1534.03 39.4801 1533.46 45.8805 L1560.03 45.84 Z" fill="#000000" fill-rule="evenodd" fill-opacity="1" /><path clip-path="url(#clip670)" d="M 0 0 M1604.23 28.5427 L1604.23 35.5912 Q1601.07 33.9709 1597.67 33.1607 Q1594.26 32.3505 1590.62 32.3505 Q1585.07 32.3505 1582.27 34.0519 Q1579.52 35.7533 1579.52 39.156 Q1579.52 41.7486 1581.5 43.2475 Q1583.49 44.7058 1589.48 46.0426 L1592.04 46.6097 Q1599.98 48.3111 1603.3 51.4303 Q1606.66 54.509 1606.66 60.0587 Q1606.66 66.3781 1601.64 70.0644 Q1596.65 73.7508 1587.9 73.7508 Q1584.26 73.7508 1580.29 73.0216 Q1576.36 72.3329 1571.98 70.9151 L1571.98 63.2184 Q1576.12 65.3654 1580.13 66.4591 Q1584.14 67.5124 1588.07 67.5124 Q1593.33 67.5124 1596.17 65.73 Q1599 63.9071 1599 60.6258 Q1599 57.5877 1596.94 55.9673 Q1594.91 54.3469 1587.99 52.8481 L1585.39 52.2405 Q1578.47 50.7821 1575.39 47.7845 Q1572.31 44.7463 1572.31 39.4801 Q1572.31 33.0797 1576.85 29.5959 Q1581.38 26.1121 1589.73 26.1121 Q1593.86 26.1121 1597.51 26.7198 Q1601.15 27.3274 1604.23 28.5427 Z" fill="#000000" fill-rule="evenodd" fill-opacity="1" /><path clip-path="url(#clip670)" d="M 0 0 M889.132 1511.98 L925.677 1511.98 L925.677 1516.9 L910.342 1516.9 L910.342 1555.18 L904.468 1555.18 L904.468 1516.9 L889.132 1516.9 L889.132 1511.98 Z" fill="#000000" fill-rule="evenodd" fill-opacity="1" /><path clip-path="url(#clip670)" d="M 0 0 M958.2 1535.62 L958.2 1555.18 L952.876 1555.18 L952.876 1535.79 Q952.876 1531.19 951.082 1528.91 Q949.288 1526.62 945.7 1526.62 Q941.389 1526.62 938.9 1529.37 Q936.412 1532.12 936.412 1536.86 L936.412 1555.18 L931.059 1555.18 L931.059 1510.16 L936.412 1510.16 L936.412 1527.81 Q938.322 1524.88 940.897 1523.44 Q943.501 1521.99 946.886 1521.99 Q952.471 1521.99 955.336 1525.46 Q958.2 1528.91 958.2 1535.62 Z" fill="#000000" fill-rule="evenodd" fill-opacity="1" /><path clip-path="url(#clip670)" d="M 0 0 M982.563 1527.75 Q981.666 1527.23 980.596 1527 Q979.554 1526.74 978.281 1526.74 Q973.767 1526.74 971.337 1529.69 Q968.935 1532.61 968.935 1538.11 L968.935 1555.18 L963.582 1555.18 L963.582 1522.77 L968.935 1522.77 L968.935 1527.81 Q970.613 1524.86 973.304 1523.44 Q975.995 1521.99 979.843 1521.99 Q980.393 1521.99 981.059 1522.08 Q981.724 1522.14 982.534 1522.28 L982.563 1527.75 Z" fill="#000000" fill-rule="evenodd" fill-opacity="1" /><path clip-path="url(#clip670)" d="M 0 0 M1014.57 1537.65 L1014.57 1540.25 L990.086 1540.25 Q990.434 1545.75 993.385 1548.64 Q996.365 1551.51 1001.66 1551.51 Q1004.73 1551.51 1007.59 1550.75 Q1010.49 1550 1013.32 1548.5 L1013.32 1553.53 Q1010.46 1554.75 1007.45 1555.38 Q1004.44 1556.02 1001.34 1556.02 Q993.588 1556.02 989.045 1551.51 Q984.531 1546.99 984.531 1539.29 Q984.531 1531.34 988.813 1526.68 Q993.125 1521.99 1000.42 1521.99 Q1006.96 1521.99 1010.75 1526.22 Q1014.57 1530.41 1014.57 1537.65 M1009.24 1536.08 Q1009.18 1531.71 1006.78 1529.11 Q1004.41 1526.51 1000.47 1526.51 Q996.018 1526.51 993.327 1529.02 Q990.665 1531.54 990.26 1536.11 L1009.24 1536.08 Z" fill="#000000" fill-rule="evenodd" fill-opacity="1" /><path clip-path="url(#clip670)" d="M 0 0 M1040.81 1523.73 L1040.81 1528.76 Q1038.55 1527.6 1036.12 1527.03 Q1033.69 1526.45 1031.09 1526.45 Q1027.12 1526.45 1025.13 1527.66 Q1023.16 1528.88 1023.16 1531.31 Q1023.16 1533.16 1024.58 1534.23 Q1025.99 1535.27 1030.28 1536.23 L1032.1 1536.63 Q1037.77 1537.85 1040.14 1540.08 Q1042.55 1542.27 1042.55 1546.24 Q1042.55 1550.75 1038.96 1553.39 Q1035.4 1556.02 1029.15 1556.02 Q1026.54 1556.02 1023.71 1555.5 Q1020.9 1555.01 1017.78 1553.99 L1017.78 1548.5 Q1020.73 1550.03 1023.59 1550.81 Q1026.46 1551.56 1029.26 1551.56 Q1033.03 1551.56 1035.05 1550.29 Q1037.08 1548.99 1037.08 1546.64 Q1037.08 1544.47 1035.6 1543.32 Q1034.15 1542.16 1029.21 1541.09 L1027.35 1540.65 Q1022.41 1539.61 1020.21 1537.47 Q1018.01 1535.3 1018.01 1531.54 Q1018.01 1526.97 1021.25 1524.48 Q1024.49 1521.99 1030.45 1521.99 Q1033.4 1521.99 1036.01 1522.43 Q1038.61 1522.86 1040.81 1523.73 Z" fill="#000000" fill-rule="evenodd" fill-opacity="1" /><path clip-path="url(#clip670)" d="M 0 0 M1075.07 1535.62 L1075.07 1555.18 L1069.74 1555.18 L1069.74 1535.79 Q1069.74 1531.19 1067.95 1528.91 Q1066.16 1526.62 1062.57 1526.62 Q1058.26 1526.62 1055.77 1529.37 Q1053.28 1532.12 1053.28 1536.86 L1053.28 1555.18 L1047.93 1555.18 L1047.93 1510.16 L1053.28 1510.16 L1053.28 1527.81 Q1055.19 1524.88 1057.77 1523.44 Q1060.37 1521.99 1063.76 1521.99 Q1069.34 1521.99 1072.2 1525.46 Q1075.07 1528.91 1075.07 1535.62 Z" fill="#000000" fill-rule="evenodd" fill-opacity="1" /><path clip-path="url(#clip670)" d="M 0 0 M1093.21 1526.51 Q1088.93 1526.51 1086.44 1529.86 Q1083.95 1533.19 1083.95 1539.01 Q1083.95 1544.82 1086.41 1548.18 Q1088.9 1551.51 1093.21 1551.51 Q1097.46 1551.51 1099.95 1548.15 Q1102.44 1544.79 1102.44 1539.01 Q1102.44 1533.25 1099.95 1529.89 Q1097.46 1526.51 1093.21 1526.51 M1093.21 1521.99 Q1100.16 1521.99 1104.12 1526.51 Q1108.08 1531.02 1108.08 1539.01 Q1108.08 1546.96 1104.12 1551.51 Q1100.16 1556.02 1093.21 1556.02 Q1086.24 1556.02 1082.27 1551.51 Q1078.34 1546.96 1078.34 1539.01 Q1078.34 1531.02 1082.27 1526.51 Q1086.24 1521.99 1093.21 1521.99 Z" fill="#000000" fill-rule="evenodd" fill-opacity="1" /><path clip-path="url(#clip670)" d="M 0 0 M1113.67 1510.16 L1118.99 1510.16 L1118.99 1555.18 L1113.67 1555.18 L1113.67 1510.16 Z" fill="#000000" fill-rule="evenodd" fill-opacity="1" /><path clip-path="url(#clip670)" d="M 0 0 M1145.9 1527.69 L1145.9 1510.16 L1151.23 1510.16 L1151.23 1555.18 L1145.9 1555.18 L1145.9 1550.32 Q1144.22 1553.21 1141.65 1554.63 Q1139.1 1556.02 1135.51 1556.02 Q1129.64 1556.02 1125.94 1551.33 Q1122.26 1546.64 1122.26 1539.01 Q1122.26 1531.37 1125.94 1526.68 Q1129.64 1521.99 1135.51 1521.99 Q1139.1 1521.99 1141.65 1523.41 Q1144.22 1524.8 1145.9 1527.69 M1127.76 1539.01 Q1127.76 1544.88 1130.16 1548.24 Q1132.59 1551.56 1136.82 1551.56 Q1141.04 1551.56 1143.47 1548.24 Q1145.9 1544.88 1145.9 1539.01 Q1145.9 1533.13 1143.47 1529.8 Q1141.04 1526.45 1136.82 1526.45 Q1132.59 1526.45 1130.16 1529.8 Q1127.76 1533.13 1127.76 1539.01 Z" fill="#000000" fill-rule="evenodd" fill-opacity="1" /><path clip-path="url(#clip670)" d="M 0 0 M1188.2 1526.51 Q1183.92 1526.51 1181.43 1529.86 Q1178.95 1533.19 1178.95 1539.01 Q1178.95 1544.82 1181.4 1548.18 Q1183.89 1551.51 1188.2 1551.51 Q1192.46 1551.51 1194.95 1548.15 Q1197.43 1544.79 1197.43 1539.01 Q1197.43 1533.25 1194.95 1529.89 Q1192.46 1526.51 1188.2 1526.51 M1188.2 1521.99 Q1195.15 1521.99 1199.11 1526.51 Q1203.08 1531.02 1203.08 1539.01 Q1203.08 1546.96 1199.11 1551.51 Q1195.15 1556.02 1188.2 1556.02 Q1181.23 1556.02 1177.27 1551.51 Q1173.33 1546.96 1173.33 1539.01 Q1173.33 1531.02 1177.27 1526.51 Q1181.23 1521.99 1188.2 1521.99 Z" fill="#000000" fill-rule="evenodd" fill-opacity="1" /><path clip-path="url(#clip670)" d="M 0 0 M1225.07 1510.16 L1225.07 1514.58 L1219.98 1514.58 Q1217.11 1514.58 1215.98 1515.74 Q1214.88 1516.9 1214.88 1519.91 L1214.88 1522.77 L1223.65 1522.77 L1223.65 1526.91 L1214.88 1526.91 L1214.88 1555.18 L1209.53 1555.18 L1209.53 1526.91 L1204.44 1526.91 L1204.44 1522.77 L1209.53 1522.77 L1209.53 1520.52 Q1209.53 1515.1 1212.05 1512.65 Q1214.56 1510.16 1220.03 1510.16 L1225.07 1510.16 Z" fill="#000000" fill-rule="evenodd" fill-opacity="1" /><path clip-path="url(#clip670)" d="M 0 0 M1277.21 1537.65 L1277.21 1540.25 L1252.73 1540.25 Q1253.08 1545.75 1256.03 1548.64 Q1259.01 1551.51 1264.3 1551.51 Q1267.37 1551.51 1270.24 1550.75 Q1273.13 1550 1275.96 1548.5 L1275.96 1553.53 Q1273.1 1554.75 1270.09 1555.38 Q1267.08 1556.02 1263.99 1556.02 Q1256.23 1556.02 1251.69 1551.51 Q1247.17 1546.99 1247.17 1539.29 Q1247.17 1531.34 1251.46 1526.68 Q1255.77 1521.99 1263.06 1521.99 Q1269.6 1521.99 1273.39 1526.22 Q1277.21 1530.41 1277.21 1537.65 M1271.88 1536.08 Q1271.83 1531.71 1269.43 1529.11 Q1267.05 1526.51 1263.12 1526.51 Q1258.66 1526.51 1255.97 1529.02 Q1253.31 1531.54 1252.9 1536.11 L1271.88 1536.08 Z" fill="#000000" fill-rule="evenodd" fill-opacity="1" /><path clip-path="url(#clip670)" d="M 0 0 M1308.69 1522.77 L1296.97 1538.54 L1309.3 1555.18 L1303.02 1555.18 L1293.59 1542.45 L1284.15 1555.18 L1277.87 1555.18 L1290.46 1538.22 L1278.94 1522.77 L1285.22 1522.77 L1293.82 1534.32 L1302.41 1522.77 L1308.69 1522.77 Z" fill="#000000" fill-rule="evenodd" fill-opacity="1" /><path clip-path="url(#clip670)" d="M 0 0 M1320.03 1550.32 L1320.03 1567.51 L1314.68 1567.51 L1314.68 1522.77 L1320.03 1522.77 L1320.03 1527.69 Q1321.71 1524.8 1324.26 1523.41 Q1326.83 1521.99 1330.39 1521.99 Q1336.29 1521.99 1339.97 1526.68 Q1343.67 1531.37 1343.67 1539.01 Q1343.67 1546.64 1339.97 1551.33 Q1336.29 1556.02 1330.39 1556.02 Q1326.83 1556.02 1324.26 1554.63 Q1321.71 1553.21 1320.03 1550.32 M1338.15 1539.01 Q1338.15 1533.13 1335.72 1529.8 Q1333.31 1526.45 1329.09 1526.45 Q1324.86 1526.45 1322.43 1529.8 Q1320.03 1533.13 1320.03 1539.01 Q1320.03 1544.88 1322.43 1548.24 Q1324.86 1551.56 1329.09 1551.56 Q1333.31 1551.56 1335.72 1548.24 Q1338.15 1544.88 1338.15 1539.01 Z" fill="#000000" fill-rule="evenodd" fill-opacity="1" /><path clip-path="url(#clip670)" d="M 0 0 M1376.98 1537.65 L1376.98 1540.25 L1352.5 1540.25 Q1352.84 1545.75 1355.8 1548.64 Q1358.78 1551.51 1364.07 1551.51 Q1367.14 1551.51 1370 1550.75 Q1372.9 1550 1375.73 1548.5 L1375.73 1553.53 Q1372.87 1554.75 1369.86 1555.38 Q1366.85 1556.02 1363.75 1556.02 Q1356 1556.02 1351.46 1551.51 Q1346.94 1546.99 1346.94 1539.29 Q1346.94 1531.34 1351.22 1526.68 Q1355.54 1521.99 1362.83 1521.99 Q1369.37 1521.99 1373.16 1526.22 Q1376.98 1530.41 1376.98 1537.65 M1371.65 1536.08 Q1371.59 1531.71 1369.19 1529.11 Q1366.82 1526.51 1362.89 1526.51 Q1358.43 1526.51 1355.74 1529.02 Q1353.08 1531.54 1352.67 1536.11 L1371.65 1536.08 Z" fill="#000000" fill-rule="evenodd" fill-opacity="1" /><path clip-path="url(#clip670)" d="M 0 0 M1405.88 1524.02 L1405.88 1528.99 Q1403.63 1527.75 1401.34 1527.14 Q1399.08 1526.51 1396.77 1526.51 Q1391.59 1526.51 1388.72 1529.8 Q1385.86 1533.07 1385.86 1539.01 Q1385.86 1544.94 1388.72 1548.24 Q1391.59 1551.51 1396.77 1551.51 Q1399.08 1551.51 1401.34 1550.9 Q1403.63 1550.26 1405.88 1549.02 L1405.88 1553.94 Q1403.65 1554.98 1401.25 1555.5 Q1398.88 1556.02 1396.19 1556.02 Q1388.87 1556.02 1384.56 1551.42 Q1380.25 1546.82 1380.25 1539.01 Q1380.25 1531.08 1384.59 1526.53 Q1388.96 1521.99 1396.54 1521.99 Q1399 1521.99 1401.34 1522.51 Q1403.68 1523 1405.88 1524.02 Z" fill="#000000" fill-rule="evenodd" fill-opacity="1" /><path clip-path="url(#clip670)" d="M 0 0 M1416.73 1513.57 L1416.73 1522.77 L1427.7 1522.77 L1427.7 1526.91 L1416.73 1526.91 L1416.73 1544.5 Q1416.73 1548.47 1417.8 1549.6 Q1418.9 1550.72 1422.23 1550.72 L1427.7 1550.72 L1427.7 1555.18 L1422.23 1555.18 Q1416.07 1555.18 1413.72 1552.89 Q1411.38 1550.58 1411.38 1544.5 L1411.38 1526.91 L1407.47 1526.91 L1407.47 1522.77 L1411.38 1522.77 L1411.38 1513.57 L1416.73 1513.57 Z" fill="#000000" fill-rule="evenodd" fill-opacity="1" /><path clip-path="url(#clip670)" d="M 0 0 M1461 1537.65 L1461 1540.25 L1436.53 1540.25 Q1436.87 1545.75 1439.82 1548.64 Q1442.8 1551.51 1448.1 1551.51 Q1451.17 1551.51 1454.03 1550.75 Q1456.92 1550 1459.76 1548.5 L1459.76 1553.53 Q1456.9 1554.75 1453.89 1555.38 Q1450.88 1556.02 1447.78 1556.02 Q1440.03 1556.02 1435.48 1551.51 Q1430.97 1546.99 1430.97 1539.29 Q1430.97 1531.34 1435.25 1526.68 Q1439.56 1521.99 1446.85 1521.99 Q1453.39 1521.99 1457.18 1526.22 Q1461 1530.41 1461 1537.65 M1455.68 1536.08 Q1455.62 1531.71 1453.22 1529.11 Q1450.85 1526.51 1446.91 1526.51 Q1442.46 1526.51 1439.77 1529.02 Q1437.1 1531.54 1436.7 1536.11 L1455.68 1536.08 Z" fill="#000000" fill-rule="evenodd" fill-opacity="1" /><path clip-path="url(#clip670)" d="M 0 0 M1487.91 1527.69 L1487.91 1510.16 L1493.24 1510.16 L1493.24 1555.18 L1487.91 1555.18 L1487.91 1550.32 Q1486.24 1553.21 1483.66 1554.63 Q1481.11 1556.02 1477.53 1556.02 Q1471.65 1556.02 1467.95 1551.33 Q1464.27 1546.64 1464.27 1539.01 Q1464.27 1531.37 1467.95 1526.68 Q1471.65 1521.99 1477.53 1521.99 Q1481.11 1521.99 1483.66 1523.41 Q1486.24 1524.8 1487.91 1527.69 M1469.77 1539.01 Q1469.77 1544.88 1472.17 1548.24 Q1474.6 1551.56 1478.83 1551.56 Q1483.05 1551.56 1485.48 1548.24 Q1487.91 1544.88 1487.91 1539.01 Q1487.91 1533.13 1485.48 1529.8 Q1483.05 1526.45 1478.83 1526.45 Q1474.6 1526.45 1472.17 1529.8 Q1469.77 1533.13 1469.77 1539.01 Z" fill="#000000" fill-rule="evenodd" fill-opacity="1" /><path clip-path="url(#clip670)" d="M 0 0 M1517.66 1510.16 L1522.98 1510.16 L1522.98 1555.18 L1517.66 1555.18 L1517.66 1510.16 Z" fill="#000000" fill-rule="evenodd" fill-opacity="1" /><path clip-path="url(#clip670)" d="M 0 0 M1541.13 1526.51 Q1536.84 1526.51 1534.35 1529.86 Q1531.87 1533.19 1531.87 1539.01 Q1531.87 1544.82 1534.33 1548.18 Q1536.81 1551.51 1541.13 1551.51 Q1545.38 1551.51 1547.87 1548.15 Q1550.36 1544.79 1550.36 1539.01 Q1550.36 1533.25 1547.87 1529.89 Q1545.38 1526.51 1541.13 1526.51 M1541.13 1521.99 Q1548.07 1521.99 1552.03 1526.51 Q1556 1531.02 1556 1539.01 Q1556 1546.96 1552.03 1551.51 Q1548.07 1556.02 1541.13 1556.02 Q1534.15 1556.02 1530.19 1551.51 Q1526.25 1546.96 1526.25 1539.01 Q1526.25 1531.02 1530.19 1526.51 Q1534.15 1521.99 1541.13 1521.99 Z" fill="#000000" fill-rule="evenodd" fill-opacity="1" /><path clip-path="url(#clip670)" d="M 0 0 M1582.24 1523.73 L1582.24 1528.76 Q1579.98 1527.6 1577.55 1527.03 Q1575.12 1526.45 1572.52 1526.45 Q1568.56 1526.45 1566.56 1527.66 Q1564.59 1528.88 1564.59 1531.31 Q1564.59 1533.16 1566.01 1534.23 Q1567.43 1535.27 1571.71 1536.23 L1573.53 1536.63 Q1579.2 1537.85 1581.58 1540.08 Q1583.98 1542.27 1583.98 1546.24 Q1583.98 1550.75 1580.39 1553.39 Q1576.83 1556.02 1570.58 1556.02 Q1567.98 1556.02 1565.14 1555.5 Q1562.33 1555.01 1559.21 1553.99 L1559.21 1548.5 Q1562.16 1550.03 1565.03 1550.81 Q1567.89 1551.56 1570.7 1551.56 Q1574.46 1551.56 1576.48 1550.29 Q1578.51 1548.99 1578.51 1546.64 Q1578.51 1544.47 1577.03 1543.32 Q1575.59 1542.16 1570.64 1541.09 L1568.79 1540.65 Q1563.84 1539.61 1561.64 1537.47 Q1559.44 1535.3 1559.44 1531.54 Q1559.44 1526.97 1562.68 1524.48 Q1565.92 1521.99 1571.88 1521.99 Q1574.83 1521.99 1577.44 1522.43 Q1580.04 1522.86 1582.24 1523.73 Z" fill="#000000" fill-rule="evenodd" fill-opacity="1" /><path clip-path="url(#clip670)" d="M 0 0 M1610.22 1523.73 L1610.22 1528.76 Q1607.97 1527.6 1605.53 1527.03 Q1603.1 1526.45 1600.5 1526.45 Q1596.54 1526.45 1594.54 1527.66 Q1592.57 1528.88 1592.57 1531.31 Q1592.57 1533.16 1593.99 1534.23 Q1595.41 1535.27 1599.69 1536.23 L1601.51 1536.63 Q1607.18 1537.85 1609.56 1540.08 Q1611.96 1542.27 1611.96 1546.24 Q1611.96 1550.75 1608.37 1553.39 Q1604.81 1556.02 1598.56 1556.02 Q1595.96 1556.02 1593.12 1555.5 Q1590.31 1555.01 1587.19 1553.99 L1587.19 1548.5 Q1590.14 1550.03 1593.01 1550.81 Q1595.87 1551.56 1598.68 1551.56 Q1602.44 1551.56 1604.46 1550.29 Q1606.49 1548.99 1606.49 1546.64 Q1606.49 1544.47 1605.01 1543.32 Q1603.57 1542.16 1598.62 1541.09 L1596.77 1540.65 Q1591.82 1539.61 1589.62 1537.47 Q1587.42 1535.3 1587.42 1531.54 Q1587.42 1526.97 1590.66 1524.48 Q1593.9 1521.99 1599.86 1521.99 Q1602.81 1521.99 1605.42 1522.43 Q1608.02 1522.86 1610.22 1523.73 Z" fill="#000000" fill-rule="evenodd" fill-opacity="1" /><polyline clip-path="url(#clip672)" style="stroke:#009af9; stroke-width:4; stroke-opacity:1; fill:none" points="
  210.724,1390.59 252.737,1377.22 294.75,1377.22 336.763,1337.11 378.776,1363.85 420.789,1337.11 888.183,935.949 1355.58,1016.18 1822.97,1002.81 2290.37,1016.18 
  
  "/>
<polyline clip-path="url(#clip672)" style="stroke:#e26f46; stroke-width:4; stroke-opacity:1; fill:none" points="
  210.724,1390.59 252.737,1363.85 294.75,1363.85 336.763,1296.99 378.776,1256.87 420.789,1216.76 888.183,628.395 1355.58,160.379 1822.97,240.61 2290.37,307.469 
  
  "/>
<path clip-path="url(#clip670)" d="
M221.815 348.38 L681.564 348.38 L681.564 166.94 L221.815 166.94  Z
  " fill="#ffffff" fill-rule="evenodd" fill-opacity="1"/>
<polyline clip-path="url(#clip670)" style="stroke:#000000; stroke-width:4; stroke-opacity:1; fill:none" points="
  221.815,348.38 681.564,348.38 681.564,166.94 221.815,166.94 221.815,348.38 
  "/>
<polyline clip-path="url(#clip670)" style="stroke:#009af9; stroke-width:4; stroke-opacity:1; fill:none" points="
  246.309,227.42 393.27,227.42 
  "/>
<path clip-path="url(#clip670)" d="M 0 0 M417.764 210.14 L437.625 210.14 L437.625 214.075 L422.44 214.075 L422.44 224.26 L436.143 224.26 L436.143 228.195 L422.44 228.195 L422.44 244.7 L417.764 244.7 L417.764 210.14 Z" fill="#000000" fill-rule="evenodd" fill-opacity="1" /><path clip-path="url(#clip670)" d="M 0 0 M438.643 218.774 L442.902 218.774 L442.902 244.7 L438.643 244.7 L438.643 218.774 M438.643 208.681 L442.902 208.681 L442.902 214.075 L438.643 214.075 L438.643 208.681 Z" fill="#000000" fill-rule="evenodd" fill-opacity="1" /><path clip-path="url(#clip670)" d="M 0 0 M468.921 218.774 L459.546 231.39 L469.407 244.7 L464.384 244.7 L456.838 234.515 L449.291 244.7 L444.268 244.7 L454.338 231.135 L445.125 218.774 L450.148 218.774 L457.023 228.01 L463.898 218.774 L468.921 218.774 Z" fill="#000000" fill-rule="evenodd" fill-opacity="1" /><path clip-path="url(#clip670)" d="M 0 0 M494.592 230.672 L494.592 232.755 L475.009 232.755 Q475.287 237.153 477.648 239.468 Q480.032 241.76 484.268 241.76 Q486.722 241.76 489.013 241.158 Q491.328 240.556 493.597 239.353 L493.597 243.38 Q491.305 244.352 488.898 244.862 Q486.49 245.371 484.013 245.371 Q477.81 245.371 474.175 241.76 Q470.564 238.149 470.564 231.991 Q470.564 225.626 473.99 221.899 Q477.439 218.149 483.273 218.149 Q488.504 218.149 491.536 221.529 Q494.592 224.885 494.592 230.672 M490.333 229.422 Q490.286 225.927 488.365 223.843 Q486.467 221.76 483.319 221.76 Q479.754 221.76 477.601 223.774 Q475.472 225.788 475.148 229.445 L490.333 229.422 Z" fill="#000000" fill-rule="evenodd" fill-opacity="1" /><path clip-path="url(#clip670)" d="M 0 0 M516.12 222.709 L516.12 208.681 L520.379 208.681 L520.379 244.7 L516.12 244.7 L516.12 240.811 Q514.777 243.126 512.717 244.26 Q510.68 245.371 507.81 245.371 Q503.11 245.371 500.148 241.621 Q497.208 237.871 497.208 231.76 Q497.208 225.649 500.148 221.899 Q503.11 218.149 507.81 218.149 Q510.68 218.149 512.717 219.283 Q514.777 220.394 516.12 222.709 M501.606 231.76 Q501.606 236.459 503.527 239.144 Q505.472 241.806 508.851 241.806 Q512.231 241.806 514.175 239.144 Q516.12 236.459 516.12 231.76 Q516.12 227.061 514.175 224.399 Q512.231 221.714 508.851 221.714 Q505.472 221.714 503.527 224.399 Q501.606 227.061 501.606 231.76 Z" fill="#000000" fill-rule="evenodd" fill-opacity="1" /><polyline clip-path="url(#clip670)" style="stroke:#e26f46; stroke-width:4; stroke-opacity:1; fill:none" points="
  246.309,287.9 393.27,287.9 
  "/>
<path clip-path="url(#clip670)" d="M 0 0 M440.009 271.754 L440.009 276.314 Q437.347 275.041 434.986 274.416 Q432.625 273.791 430.426 273.791 Q426.606 273.791 424.523 275.272 Q422.463 276.754 422.463 279.485 Q422.463 281.777 423.828 282.958 Q425.217 284.115 429.06 284.833 L431.884 285.411 Q437.115 286.407 439.592 288.93 Q442.092 291.43 442.092 295.643 Q442.092 300.666 438.713 303.258 Q435.356 305.851 428.852 305.851 Q426.398 305.851 423.62 305.295 Q420.866 304.74 417.903 303.652 L417.903 298.837 Q420.75 300.434 423.481 301.245 Q426.213 302.055 428.852 302.055 Q432.856 302.055 435.032 300.481 Q437.208 298.907 437.208 295.99 Q437.208 293.444 435.634 292.008 Q434.083 290.573 430.518 289.856 L427.671 289.3 Q422.44 288.259 420.102 286.036 Q417.764 283.814 417.764 279.856 Q417.764 275.272 420.981 272.634 Q424.222 269.995 429.893 269.995 Q432.324 269.995 434.847 270.435 Q437.37 270.874 440.009 271.754 Z" fill="#000000" fill-rule="evenodd" fill-opacity="1" /><path clip-path="url(#clip670)" d="M 0 0 M468.736 291.152 L468.736 293.235 L449.152 293.235 Q449.43 297.633 451.791 299.948 Q454.176 302.24 458.412 302.24 Q460.865 302.24 463.157 301.638 Q465.472 301.036 467.74 299.833 L467.74 303.86 Q465.449 304.832 463.041 305.342 Q460.634 305.851 458.157 305.851 Q451.953 305.851 448.319 302.24 Q444.708 298.629 444.708 292.471 Q444.708 286.106 448.134 282.379 Q451.583 278.629 457.416 278.629 Q462.648 278.629 465.68 282.009 Q468.736 285.365 468.736 291.152 M464.476 289.902 Q464.43 286.407 462.509 284.323 Q460.611 282.24 457.463 282.24 Q453.898 282.24 451.745 284.254 Q449.615 286.268 449.291 289.925 L464.476 289.902 Z" fill="#000000" fill-rule="evenodd" fill-opacity="1" /><path clip-path="url(#clip670)" d="M 0 0 M475.749 292.24 Q475.749 296.939 477.671 299.624 Q479.615 302.286 482.995 302.286 Q486.374 302.286 488.319 299.624 Q490.263 296.939 490.263 292.24 Q490.263 287.541 488.319 284.879 Q486.374 282.194 482.995 282.194 Q479.615 282.194 477.671 284.879 Q475.749 287.541 475.749 292.24 M490.263 301.291 Q488.921 303.606 486.861 304.74 Q484.824 305.851 481.953 305.851 Q477.254 305.851 474.291 302.101 Q471.351 298.351 471.351 292.24 Q471.351 286.129 474.291 282.379 Q477.254 278.629 481.953 278.629 Q484.824 278.629 486.861 279.763 Q488.921 280.874 490.263 283.189 L490.263 279.254 L494.523 279.254 L494.523 315.041 L490.263 315.041 L490.263 301.291 Z" fill="#000000" fill-rule="evenodd" fill-opacity="1" /><path clip-path="url(#clip670)" d="M 0 0 M498.55 294.948 L498.55 279.254 L502.81 279.254 L502.81 294.786 Q502.81 298.467 504.245 300.319 Q505.68 302.147 508.55 302.147 Q511.999 302.147 513.99 299.948 Q516.004 297.749 516.004 293.953 L516.004 279.254 L520.263 279.254 L520.263 305.18 L516.004 305.18 L516.004 301.198 Q514.453 303.559 512.393 304.717 Q510.356 305.851 507.647 305.851 Q503.18 305.851 500.865 303.073 Q498.55 300.295 498.55 294.948 M509.268 278.629 L509.268 278.629 Z" fill="#000000" fill-rule="evenodd" fill-opacity="1" /><path clip-path="url(#clip670)" d="M 0 0 M546.907 291.152 L546.907 293.235 L527.323 293.235 Q527.601 297.633 529.962 299.948 Q532.346 302.24 536.582 302.24 Q539.036 302.24 541.328 301.638 Q543.643 301.036 545.911 299.833 L545.911 303.86 Q543.619 304.832 541.212 305.342 Q538.805 305.851 536.328 305.851 Q530.124 305.851 526.49 302.24 Q522.879 298.629 522.879 292.471 Q522.879 286.106 526.305 282.379 Q529.754 278.629 535.587 278.629 Q540.819 278.629 543.851 282.009 Q546.907 285.365 546.907 291.152 M542.647 289.902 Q542.601 286.407 540.68 284.323 Q538.782 282.24 535.633 282.24 Q532.069 282.24 529.916 284.254 Q527.786 286.268 527.462 289.925 L542.647 289.902 Z" fill="#000000" fill-rule="evenodd" fill-opacity="1" /><path clip-path="url(#clip670)" d="M 0 0 M572.925 289.532 L572.925 305.18 L568.666 305.18 L568.666 289.671 Q568.666 285.99 567.23 284.161 Q565.795 282.333 562.925 282.333 Q559.476 282.333 557.485 284.532 Q555.494 286.731 555.494 290.527 L555.494 305.18 L551.212 305.18 L551.212 279.254 L555.494 279.254 L555.494 283.282 Q557.022 280.944 559.082 279.786 Q561.166 278.629 563.874 278.629 Q568.342 278.629 570.633 281.407 Q572.925 284.161 572.925 289.532 Z" fill="#000000" fill-rule="evenodd" fill-opacity="1" /><path clip-path="url(#clip670)" d="M 0 0 M581.605 271.893 L581.605 279.254 L590.379 279.254 L590.379 282.564 L581.605 282.564 L581.605 296.638 Q581.605 299.809 582.462 300.712 Q583.342 301.615 586.004 301.615 L590.379 301.615 L590.379 305.18 L586.004 305.18 Q581.073 305.18 579.198 303.351 Q577.323 301.499 577.323 296.638 L577.323 282.564 L574.198 282.564 L574.198 279.254 L577.323 279.254 L577.323 271.893 L581.605 271.893 Z" fill="#000000" fill-rule="evenodd" fill-opacity="1" /><path clip-path="url(#clip670)" d="M 0 0 M594.846 279.254 L599.105 279.254 L599.105 305.18 L594.846 305.18 L594.846 279.254 M594.846 269.161 L599.105 269.161 L599.105 274.555 L594.846 274.555 L594.846 269.161 Z" fill="#000000" fill-rule="evenodd" fill-opacity="1" /><path clip-path="url(#clip670)" d="M 0 0 M615.355 292.147 Q610.193 292.147 608.202 293.328 Q606.212 294.508 606.212 297.356 Q606.212 299.624 607.693 300.967 Q609.198 302.286 611.767 302.286 Q615.309 302.286 617.439 299.786 Q619.591 297.263 619.591 293.096 L619.591 292.147 L615.355 292.147 M623.851 290.388 L623.851 305.18 L619.591 305.18 L619.591 301.245 Q618.133 303.606 615.957 304.74 Q613.781 305.851 610.633 305.851 Q606.652 305.851 604.29 303.629 Q601.953 301.383 601.953 297.633 Q601.953 293.258 604.869 291.036 Q607.809 288.814 613.619 288.814 L619.591 288.814 L619.591 288.397 Q619.591 285.458 617.647 283.86 Q615.726 282.24 612.23 282.24 Q610.008 282.24 607.902 282.772 Q605.795 283.305 603.851 284.37 L603.851 280.434 Q606.189 279.532 608.388 279.092 Q610.587 278.629 612.67 278.629 Q618.295 278.629 621.073 281.546 Q623.851 284.462 623.851 290.388 Z" fill="#000000" fill-rule="evenodd" fill-opacity="1" /><path clip-path="url(#clip670)" d="M 0 0 M628.318 269.161 L632.577 269.161 L632.577 305.18 L628.318 305.18 L628.318 269.161 Z" fill="#000000" fill-rule="evenodd" fill-opacity="1" /></svg>
