<?xml version="1.0" encoding="utf-8"?>
<svg xmlns="http://www.w3.org/2000/svg" xmlns:xlink="http://www.w3.org/1999/xlink" width="600" height="400" viewBox="0 0 2400 1600">
<defs>
  <clipPath id="clip540">
    <rect x="0" y="0" width="2400" height="1600"/>
  </clipPath>
</defs>
<path clip-path="url(#clip540)" d="
M0 1600 L2400 1600 L2400 0 L0 0  Z
  " fill="#ffffff" fill-rule="evenodd" fill-opacity="1"/>
<defs>
  <clipPath id="clip541">
    <rect x="480" y="0" width="1681" height="1600"/>
  </clipPath>
</defs>
<path clip-path="url(#clip540)" d="
M265.63 1423.18 L2352.76 1423.18 L2352.76 123.472 L265.63 123.472  Z
  " fill="#ffffff" fill-rule="evenodd" fill-opacity="1"/>
<defs>
  <clipPath id="clip542">
    <rect x="265" y="123" width="2088" height="1301"/>
  </clipPath>
</defs>
<polyline clip-path="url(#clip542)" style="stroke:#000000; stroke-width:2; stroke-opacity:0.1; fill:none" points="
  605.983,1423.18 605.983,123.472 
  "/>
<polyline clip-path="url(#clip542)" style="stroke:#000000; stroke-width:2; stroke-opacity:0.1; fill:none" points="
  1168.55,1423.18 1168.55,123.472 
  "/>
<polyline clip-path="url(#clip542)" style="stroke:#000000; stroke-width:2; stroke-opacity:0.1; fill:none" points="
  1731.12,1423.18 1731.12,123.472 
  "/>
<polyline clip-path="url(#clip542)" style="stroke:#000000; stroke-width:2; stroke-opacity:0.1; fill:none" points="
  2293.69,1423.18 2293.69,123.472 
  "/>
<polyline clip-path="url(#clip540)" style="stroke:#000000; stroke-width:4; stroke-opacity:1; fill:none" points="
  265.63,1423.18 2352.76,1423.18 
  "/>
<polyline clip-path="url(#clip540)" style="stroke:#000000; stroke-width:4; stroke-opacity:1; fill:none" points="
  605.983,1423.18 605.983,1407.58 
  "/>
<polyline clip-path="url(#clip540)" style="stroke:#000000; stroke-width:4; stroke-opacity:1; fill:none" points="
  1168.55,1423.18 1168.55,1407.58 
  "/>
<polyline clip-path="url(#clip540)" style="stroke:#000000; stroke-width:4; stroke-opacity:1; fill:none" points="
  1731.12,1423.18 1731.12,1407.58 
  "/>
<polyline clip-path="url(#clip540)" style="stroke:#000000; stroke-width:4; stroke-opacity:1; fill:none" points="
  2293.69,1423.18 2293.69,1407.58 
  "/>
<path clip-path="url(#clip540)" d="M 0 0 M608.993 1453.37 L597.187 1471.81 L608.993 1471.81 L608.993 1453.37 M607.766 1449.29 L613.645 1449.29 L613.645 1471.81 L618.576 1471.81 L618.576 1475.7 L613.645 1475.7 L613.645 1483.85 L608.993 1483.85 L608.993 1475.7 L593.391 1475.7 L593.391 1471.19 L607.766 1449.29 Z" fill="#000000" fill-rule="evenodd" fill-opacity="1" /><path clip-path="url(#clip540)" d="M 0 0 M1168.96 1464.71 Q1165.81 1464.71 1163.96 1466.86 Q1162.13 1469.01 1162.13 1472.76 Q1162.13 1476.49 1163.96 1478.67 Q1165.81 1480.82 1168.96 1480.82 Q1172.1 1480.82 1173.93 1478.67 Q1175.78 1476.49 1175.78 1472.76 Q1175.78 1469.01 1173.93 1466.86 Q1172.1 1464.71 1168.96 1464.71 M1178.24 1450.06 L1178.24 1454.31 Q1176.48 1453.48 1174.67 1453.04 Q1172.89 1452.6 1171.13 1452.6 Q1166.5 1452.6 1164.05 1455.73 Q1161.62 1458.85 1161.27 1465.17 Q1162.64 1463.16 1164.7 1462.09 Q1166.76 1461 1169.23 1461 Q1174.44 1461 1177.45 1464.18 Q1180.48 1467.32 1180.48 1472.76 Q1180.48 1478.09 1177.34 1481.31 Q1174.19 1484.52 1168.96 1484.52 Q1162.96 1484.52 1159.79 1479.94 Q1156.62 1475.33 1156.62 1466.61 Q1156.62 1458.41 1160.51 1453.55 Q1164.4 1448.67 1170.95 1448.67 Q1172.71 1448.67 1174.49 1449.01 Q1176.29 1449.36 1178.24 1450.06 Z" fill="#000000" fill-rule="evenodd" fill-opacity="1" /><path clip-path="url(#clip540)" d="M 0 0 M1731.12 1467.44 Q1727.79 1467.44 1725.86 1469.22 Q1723.97 1471 1723.97 1474.13 Q1723.97 1477.25 1725.86 1479.04 Q1727.79 1480.82 1731.12 1480.82 Q1734.45 1480.82 1736.37 1479.04 Q1738.29 1477.23 1738.29 1474.13 Q1738.29 1471 1736.37 1469.22 Q1734.48 1467.44 1731.12 1467.44 M1726.44 1465.45 Q1723.43 1464.71 1721.74 1462.65 Q1720.08 1460.59 1720.08 1457.63 Q1720.08 1453.48 1723.02 1451.07 Q1725.98 1448.67 1731.12 1448.67 Q1736.28 1448.67 1739.22 1451.07 Q1742.16 1453.48 1742.16 1457.63 Q1742.16 1460.59 1740.47 1462.65 Q1738.8 1464.71 1735.82 1465.45 Q1739.2 1466.24 1741.07 1468.53 Q1742.97 1470.82 1742.97 1474.13 Q1742.97 1479.15 1739.89 1481.84 Q1736.84 1484.52 1731.12 1484.52 Q1725.4 1484.52 1722.32 1481.84 Q1719.27 1479.15 1719.27 1474.13 Q1719.27 1470.82 1721.16 1468.53 Q1723.06 1466.24 1726.44 1465.45 M1724.73 1458.06 Q1724.73 1460.75 1726.4 1462.25 Q1728.09 1463.76 1731.12 1463.76 Q1734.13 1463.76 1735.82 1462.25 Q1737.53 1460.75 1737.53 1458.06 Q1737.53 1455.38 1735.82 1453.88 Q1734.13 1452.37 1731.12 1452.37 Q1728.09 1452.37 1726.4 1453.88 Q1724.73 1455.38 1724.73 1458.06 Z" fill="#000000" fill-rule="evenodd" fill-opacity="1" /><path clip-path="url(#clip540)" d="M 0 0 M2270.56 1479.92 L2278.2 1479.92 L2278.2 1453.55 L2269.89 1455.22 L2269.89 1450.96 L2278.15 1449.29 L2282.83 1449.29 L2282.83 1479.92 L2290.47 1479.92 L2290.47 1483.85 L2270.56 1483.85 L2270.56 1479.92 Z" fill="#000000" fill-rule="evenodd" fill-opacity="1" /><path clip-path="url(#clip540)" d="M 0 0 M2305.54 1452.37 Q2301.93 1452.37 2300.1 1455.94 Q2298.29 1459.48 2298.29 1466.61 Q2298.29 1473.71 2300.1 1477.28 Q2301.93 1480.82 2305.54 1480.82 Q2309.17 1480.82 2310.98 1477.28 Q2312.81 1473.71 2312.81 1466.61 Q2312.81 1459.48 2310.98 1455.94 Q2309.17 1452.37 2305.54 1452.37 M2305.54 1448.67 Q2311.35 1448.67 2314.4 1453.27 Q2317.48 1457.86 2317.48 1466.61 Q2317.48 1475.33 2314.4 1479.94 Q2311.35 1484.52 2305.54 1484.52 Q2299.73 1484.52 2296.65 1479.94 Q2293.59 1475.33 2293.59 1466.61 Q2293.59 1457.86 2296.65 1453.27 Q2299.73 1448.67 2305.54 1448.67 Z" fill="#000000" fill-rule="evenodd" fill-opacity="1" /><path clip-path="url(#clip540)" d="M 0 0 M1127.5 1545.35 L1127.5 1562.76 L1137.81 1562.76 Q1143 1562.76 1145.48 1560.63 Q1148 1558.46 1148 1554.04 Q1148 1549.58 1145.48 1547.48 Q1143 1545.35 1137.81 1545.35 L1127.5 1545.35 M1127.5 1525.81 L1127.5 1540.13 L1137.02 1540.13 Q1141.73 1540.13 1144.02 1538.38 Q1146.34 1536.6 1146.34 1532.97 Q1146.34 1529.37 1144.02 1527.59 Q1141.73 1525.81 1137.02 1525.81 L1127.5 1525.81 M1121.07 1520.52 L1137.49 1520.52 Q1144.85 1520.52 1148.82 1523.58 Q1152.8 1526.63 1152.8 1532.27 Q1152.8 1536.63 1150.77 1539.21 Q1148.73 1541.79 1144.78 1542.42 Q1149.53 1543.44 1152.14 1546.69 Q1154.78 1549.9 1154.78 1554.74 Q1154.78 1561.11 1150.45 1564.57 Q1146.12 1568.04 1138.13 1568.04 L1121.07 1568.04 L1121.07 1520.52 Z" fill="#000000" fill-rule="evenodd" fill-opacity="1" /><path clip-path="url(#clip540)" d="M 0 0 M1161.17 1520.52 L1188.48 1520.52 L1188.48 1525.93 L1167.6 1525.93 L1167.6 1539.94 L1186.45 1539.94 L1186.45 1545.35 L1167.6 1545.35 L1167.6 1568.04 L1161.17 1568.04 L1161.17 1520.52 Z" fill="#000000" fill-rule="evenodd" fill-opacity="1" /><path clip-path="url(#clip540)" d="M 0 0 M1209.01 1520.52 L1249.21 1520.52 L1249.21 1525.93 L1232.34 1525.93 L1232.34 1568.04 L1225.88 1568.04 L1225.88 1525.93 L1209.01 1525.93 L1209.01 1520.52 Z" fill="#000000" fill-rule="evenodd" fill-opacity="1" /><path clip-path="url(#clip540)" d="M 0 0 M1284.99 1546.53 L1284.99 1568.04 L1279.13 1568.04 L1279.13 1546.72 Q1279.13 1541.66 1277.16 1539.14 Q1275.18 1536.63 1271.24 1536.63 Q1266.49 1536.63 1263.76 1539.65 Q1261.02 1542.68 1261.02 1547.9 L1261.02 1568.04 L1255.13 1568.04 L1255.13 1518.52 L1261.02 1518.52 L1261.02 1537.93 Q1263.12 1534.72 1265.95 1533.13 Q1268.82 1531.54 1272.54 1531.54 Q1278.69 1531.54 1281.84 1535.36 Q1284.99 1539.14 1284.99 1546.53 Z" fill="#000000" fill-rule="evenodd" fill-opacity="1" /><path clip-path="url(#clip540)" d="M 0 0 M1311.79 1537.87 Q1310.8 1537.3 1309.62 1537.04 Q1308.48 1536.76 1307.08 1536.76 Q1302.11 1536.76 1299.44 1540 Q1296.8 1543.22 1296.8 1549.27 L1296.8 1568.04 L1290.91 1568.04 L1290.91 1532.4 L1296.8 1532.4 L1296.8 1537.93 Q1298.64 1534.69 1301.6 1533.13 Q1304.56 1531.54 1308.8 1531.54 Q1309.4 1531.54 1310.13 1531.63 Q1310.86 1531.7 1311.76 1531.85 L1311.79 1537.87 Z" fill="#000000" fill-rule="evenodd" fill-opacity="1" /><path clip-path="url(#clip540)" d="M 0 0 M1346.99 1548.76 L1346.99 1551.62 L1320.06 1551.62 Q1320.44 1557.67 1323.69 1560.85 Q1326.97 1564 1332.79 1564 Q1336.17 1564 1339.32 1563.17 Q1342.5 1562.35 1345.62 1560.69 L1345.62 1566.23 Q1342.47 1567.57 1339.16 1568.27 Q1335.85 1568.97 1332.44 1568.97 Q1323.91 1568.97 1318.92 1564 Q1313.95 1559.04 1313.95 1550.57 Q1313.95 1541.82 1318.66 1536.69 Q1323.4 1531.54 1331.43 1531.54 Q1338.62 1531.54 1342.79 1536.18 Q1346.99 1540.8 1346.99 1548.76 M1341.13 1547.04 Q1341.07 1542.23 1338.43 1539.37 Q1335.82 1536.5 1331.49 1536.5 Q1326.59 1536.5 1323.63 1539.27 Q1320.7 1542.04 1320.25 1547.07 L1341.13 1547.04 Z" fill="#000000" fill-rule="evenodd" fill-opacity="1" /><path clip-path="url(#clip540)" d="M 0 0 M1375.86 1533.45 L1375.86 1538.98 Q1373.38 1537.71 1370.7 1537.07 Q1368.03 1536.44 1365.16 1536.44 Q1360.8 1536.44 1358.61 1537.77 Q1356.44 1539.11 1356.44 1541.79 Q1356.44 1543.82 1358 1545 Q1359.56 1546.15 1364.27 1547.2 L1366.28 1547.64 Q1372.52 1548.98 1375.13 1551.43 Q1377.77 1553.85 1377.77 1558.21 Q1377.77 1563.17 1373.82 1566.07 Q1369.91 1568.97 1363.03 1568.97 Q1360.17 1568.97 1357.05 1568.39 Q1353.96 1567.85 1350.52 1566.74 L1350.52 1560.69 Q1353.77 1562.38 1356.92 1563.24 Q1360.07 1564.07 1363.16 1564.07 Q1367.3 1564.07 1369.52 1562.66 Q1371.75 1561.23 1371.75 1558.65 Q1371.75 1556.27 1370.13 1554.99 Q1368.54 1553.72 1363.09 1552.54 L1361.06 1552.07 Q1355.61 1550.92 1353.2 1548.56 Q1350.78 1546.18 1350.78 1542.04 Q1350.78 1537.01 1354.34 1534.27 Q1357.91 1531.54 1364.46 1531.54 Q1367.71 1531.54 1370.57 1532.01 Q1373.44 1532.49 1375.86 1533.45 Z" fill="#000000" fill-rule="evenodd" fill-opacity="1" /><path clip-path="url(#clip540)" d="M 0 0 M1413.54 1546.53 L1413.54 1568.04 L1407.69 1568.04 L1407.69 1546.72 Q1407.69 1541.66 1405.71 1539.14 Q1403.74 1536.63 1399.79 1536.63 Q1395.05 1536.63 1392.31 1539.65 Q1389.58 1542.68 1389.58 1547.9 L1389.58 1568.04 L1383.69 1568.04 L1383.69 1518.52 L1389.58 1518.52 L1389.58 1537.93 Q1391.68 1534.72 1394.51 1533.13 Q1397.37 1531.54 1401.1 1531.54 Q1407.24 1531.54 1410.39 1535.36 Q1413.54 1539.14 1413.54 1546.53 Z" fill="#000000" fill-rule="evenodd" fill-opacity="1" /><path clip-path="url(#clip540)" d="M 0 0 M1433.5 1536.5 Q1428.79 1536.5 1426.05 1540.19 Q1423.31 1543.85 1423.31 1550.25 Q1423.31 1556.65 1426.02 1560.34 Q1428.76 1564 1433.5 1564 Q1438.18 1564 1440.92 1560.31 Q1443.65 1556.62 1443.65 1550.25 Q1443.65 1543.92 1440.92 1540.23 Q1438.18 1536.5 1433.5 1536.5 M1433.5 1531.54 Q1441.14 1531.54 1445.5 1536.5 Q1449.86 1541.47 1449.86 1550.25 Q1449.86 1559 1445.5 1564 Q1441.14 1568.97 1433.5 1568.97 Q1425.83 1568.97 1421.47 1564 Q1417.14 1559 1417.14 1550.25 Q1417.14 1541.47 1421.47 1536.5 Q1425.83 1531.54 1433.5 1531.54 Z" fill="#000000" fill-rule="evenodd" fill-opacity="1" /><path clip-path="url(#clip540)" d="M 0 0 M1456 1518.52 L1461.86 1518.52 L1461.86 1568.04 L1456 1568.04 L1456 1518.52 Z" fill="#000000" fill-rule="evenodd" fill-opacity="1" /><path clip-path="url(#clip540)" d="M 0 0 M1491.46 1537.81 L1491.46 1518.52 L1497.32 1518.52 L1497.32 1568.04 L1491.46 1568.04 L1491.46 1562.7 Q1489.61 1565.88 1486.78 1567.44 Q1483.98 1568.97 1480.03 1568.97 Q1473.57 1568.97 1469.5 1563.81 Q1465.46 1558.65 1465.46 1550.25 Q1465.46 1541.85 1469.5 1536.69 Q1473.57 1531.54 1480.03 1531.54 Q1483.98 1531.54 1486.78 1533.1 Q1489.61 1534.62 1491.46 1537.81 M1471.5 1550.25 Q1471.5 1556.71 1474.14 1560.4 Q1476.82 1564.07 1481.46 1564.07 Q1486.11 1564.07 1488.79 1560.4 Q1491.46 1556.71 1491.46 1550.25 Q1491.46 1543.79 1488.79 1540.13 Q1486.11 1536.44 1481.46 1536.44 Q1476.82 1536.44 1474.14 1540.13 Q1471.5 1543.79 1471.5 1550.25 Z" fill="#000000" fill-rule="evenodd" fill-opacity="1" /><polyline clip-path="url(#clip542)" style="stroke:#000000; stroke-width:2; stroke-opacity:0.1; fill:none" points="
  265.63,1234.25 2352.76,1234.25 
  "/>
<polyline clip-path="url(#clip542)" style="stroke:#000000; stroke-width:2; stroke-opacity:0.1; fill:none" points="
  265.63,1010.5 2352.76,1010.5 
  "/>
<polyline clip-path="url(#clip542)" style="stroke:#000000; stroke-width:2; stroke-opacity:0.1; fill:none" points="
  265.63,786.751 2352.76,786.751 
  "/>
<polyline clip-path="url(#clip542)" style="stroke:#000000; stroke-width:2; stroke-opacity:0.1; fill:none" points="
  265.63,563.003 2352.76,563.003 
  "/>
<polyline clip-path="url(#clip542)" style="stroke:#000000; stroke-width:2; stroke-opacity:0.1; fill:none" points="
  265.63,339.255 2352.76,339.255 
  "/>
<polyline clip-path="url(#clip540)" style="stroke:#000000; stroke-width:4; stroke-opacity:1; fill:none" points="
  265.63,1423.18 265.63,123.472 
  "/>
<polyline clip-path="url(#clip540)" style="stroke:#000000; stroke-width:4; stroke-opacity:1; fill:none" points="
  265.63,1234.25 290.675,1234.25 
  "/>
<polyline clip-path="url(#clip540)" style="stroke:#000000; stroke-width:4; stroke-opacity:1; fill:none" points="
  265.63,1010.5 290.675,1010.5 
  "/>
<polyline clip-path="url(#clip540)" style="stroke:#000000; stroke-width:4; stroke-opacity:1; fill:none" points="
  265.63,786.751 290.675,786.751 
  "/>
<polyline clip-path="url(#clip540)" style="stroke:#000000; stroke-width:4; stroke-opacity:1; fill:none" points="
  265.63,563.003 290.675,563.003 
  "/>
<polyline clip-path="url(#clip540)" style="stroke:#000000; stroke-width:4; stroke-opacity:1; fill:none" points="
  265.63,339.255 290.675,339.255 
  "/>
<path clip-path="url(#clip540)" d="M 0 0 M126.205 1220.05 Q122.593 1220.05 120.765 1223.61 Q118.959 1227.15 118.959 1234.28 Q118.959 1241.39 120.765 1244.95 Q122.593 1248.49 126.205 1248.49 Q129.839 1248.49 131.644 1244.95 Q133.473 1241.39 133.473 1234.28 Q133.473 1227.15 131.644 1223.61 Q129.839 1220.05 126.205 1220.05 M126.205 1216.34 Q132.015 1216.34 135.07 1220.95 Q138.149 1225.53 138.149 1234.28 Q138.149 1243.01 135.07 1247.61 Q132.015 1252.2 126.205 1252.2 Q120.394 1252.2 117.316 1247.61 Q114.26 1243.01 114.26 1234.28 Q114.26 1225.53 117.316 1220.95 Q120.394 1216.34 126.205 1216.34 Z" fill="#000000" fill-rule="evenodd" fill-opacity="1" /><path clip-path="url(#clip540)" d="M 0 0 M143.218 1245.65 L148.103 1245.65 L148.103 1251.53 L143.218 1251.53 L143.218 1245.65 Z" fill="#000000" fill-rule="evenodd" fill-opacity="1" /><path clip-path="url(#clip540)" d="M 0 0 M163.172 1220.05 Q159.561 1220.05 157.732 1223.61 Q155.927 1227.15 155.927 1234.28 Q155.927 1241.39 157.732 1244.95 Q159.561 1248.49 163.172 1248.49 Q166.806 1248.49 168.612 1244.95 Q170.44 1241.39 170.44 1234.28 Q170.44 1227.15 168.612 1223.61 Q166.806 1220.05 163.172 1220.05 M163.172 1216.34 Q168.982 1216.34 172.038 1220.95 Q175.116 1225.53 175.116 1234.28 Q175.116 1243.01 172.038 1247.61 Q168.982 1252.2 163.172 1252.2 Q157.362 1252.2 154.283 1247.61 Q151.228 1243.01 151.228 1234.28 Q151.228 1225.53 154.283 1220.95 Q157.362 1216.34 163.172 1216.34 Z" fill="#000000" fill-rule="evenodd" fill-opacity="1" /><path clip-path="url(#clip540)" d="M 0 0 M193.033 1221.04 L181.227 1239.49 L193.033 1239.49 L193.033 1221.04 M191.806 1216.97 L197.686 1216.97 L197.686 1239.49 L202.616 1239.49 L202.616 1243.38 L197.686 1243.38 L197.686 1251.53 L193.033 1251.53 L193.033 1243.38 L177.431 1243.38 L177.431 1238.87 L191.806 1216.97 Z" fill="#000000" fill-rule="evenodd" fill-opacity="1" /><path clip-path="url(#clip540)" d="M 0 0 M217.686 1220.05 Q214.074 1220.05 212.246 1223.61 Q210.44 1227.15 210.44 1234.28 Q210.44 1241.39 212.246 1244.95 Q214.074 1248.49 217.686 1248.49 Q221.32 1248.49 223.125 1244.95 Q224.954 1241.39 224.954 1234.28 Q224.954 1227.15 223.125 1223.61 Q221.32 1220.05 217.686 1220.05 M217.686 1216.34 Q223.496 1216.34 226.551 1220.95 Q229.63 1225.53 229.63 1234.28 Q229.63 1243.01 226.551 1247.61 Q223.496 1252.2 217.686 1252.2 Q211.875 1252.2 208.797 1247.61 Q205.741 1243.01 205.741 1234.28 Q205.741 1225.53 208.797 1220.95 Q211.875 1216.34 217.686 1216.34 Z" fill="#000000" fill-rule="evenodd" fill-opacity="1" /><path clip-path="url(#clip540)" d="M 0 0 M127.2 996.298 Q123.589 996.298 121.76 999.862 Q119.955 1003.4 119.955 1010.53 Q119.955 1017.64 121.76 1021.2 Q123.589 1024.75 127.2 1024.75 Q130.834 1024.75 132.64 1021.2 Q134.468 1017.64 134.468 1010.53 Q134.468 1003.4 132.64 999.862 Q130.834 996.298 127.2 996.298 M127.2 992.594 Q133.01 992.594 136.066 997.2 Q139.144 1001.78 139.144 1010.53 Q139.144 1019.26 136.066 1023.87 Q133.01 1028.45 127.2 1028.45 Q121.39 1028.45 118.311 1023.87 Q115.256 1019.26 115.256 1010.53 Q115.256 1001.78 118.311 997.2 Q121.39 992.594 127.2 992.594 Z" fill="#000000" fill-rule="evenodd" fill-opacity="1" /><path clip-path="url(#clip540)" d="M 0 0 M144.214 1021.9 L149.098 1021.9 L149.098 1027.78 L144.214 1027.78 L144.214 1021.9 Z" fill="#000000" fill-rule="evenodd" fill-opacity="1" /><path clip-path="url(#clip540)" d="M 0 0 M164.167 996.298 Q160.556 996.298 158.728 999.862 Q156.922 1003.4 156.922 1010.53 Q156.922 1017.64 158.728 1021.2 Q160.556 1024.75 164.167 1024.75 Q167.802 1024.75 169.607 1021.2 Q171.436 1017.64 171.436 1010.53 Q171.436 1003.4 169.607 999.862 Q167.802 996.298 164.167 996.298 M164.167 992.594 Q169.977 992.594 173.033 997.2 Q176.112 1001.78 176.112 1010.53 Q176.112 1019.26 173.033 1023.87 Q169.977 1028.45 164.167 1028.45 Q158.357 1028.45 155.278 1023.87 Q152.223 1019.26 152.223 1010.53 Q152.223 1001.78 155.278 997.2 Q158.357 992.594 164.167 992.594 Z" fill="#000000" fill-rule="evenodd" fill-opacity="1" /><path clip-path="url(#clip540)" d="M 0 0 M194.028 997.293 L182.223 1015.74 L194.028 1015.74 L194.028 997.293 M192.801 993.219 L198.681 993.219 L198.681 1015.74 L203.612 1015.74 L203.612 1019.63 L198.681 1019.63 L198.681 1027.78 L194.028 1027.78 L194.028 1019.63 L178.426 1019.63 L178.426 1015.12 L192.801 993.219 Z" fill="#000000" fill-rule="evenodd" fill-opacity="1" /><path clip-path="url(#clip540)" d="M 0 0 M208.727 993.219 L227.084 993.219 L227.084 997.154 L213.01 997.154 L213.01 1005.63 Q214.028 1005.28 215.047 1005.12 Q216.065 1004.93 217.084 1004.93 Q222.871 1004.93 226.25 1008.1 Q229.63 1011.27 229.63 1016.69 Q229.63 1022.27 226.158 1025.37 Q222.686 1028.45 216.366 1028.45 Q214.19 1028.45 211.922 1028.08 Q209.676 1027.71 207.269 1026.97 L207.269 1022.27 Q209.352 1023.4 211.574 1023.96 Q213.797 1024.52 216.273 1024.52 Q220.278 1024.52 222.616 1022.41 Q224.954 1020.3 224.954 1016.69 Q224.954 1013.08 222.616 1010.97 Q220.278 1008.87 216.273 1008.87 Q214.399 1008.87 212.524 1009.28 Q210.672 1009.7 208.727 1010.58 L208.727 993.219 Z" fill="#000000" fill-rule="evenodd" fill-opacity="1" /><path clip-path="url(#clip540)" d="M 0 0 M127.686 772.55 Q124.075 772.55 122.246 776.114 Q120.441 779.656 120.441 786.786 Q120.441 793.892 122.246 797.457 Q124.075 800.998 127.686 800.998 Q131.32 800.998 133.126 797.457 Q134.954 793.892 134.954 786.786 Q134.954 779.656 133.126 776.114 Q131.32 772.55 127.686 772.55 M127.686 768.846 Q133.496 768.846 136.552 773.452 Q139.63 778.036 139.63 786.786 Q139.63 795.512 136.552 800.119 Q133.496 804.702 127.686 804.702 Q121.876 804.702 118.797 800.119 Q115.742 795.512 115.742 786.786 Q115.742 778.036 118.797 773.452 Q121.876 768.846 127.686 768.846 Z" fill="#000000" fill-rule="evenodd" fill-opacity="1" /><path clip-path="url(#clip540)" d="M 0 0 M144.7 798.151 L149.584 798.151 L149.584 804.031 L144.7 804.031 L144.7 798.151 Z" fill="#000000" fill-rule="evenodd" fill-opacity="1" /><path clip-path="url(#clip540)" d="M 0 0 M164.653 772.55 Q161.042 772.55 159.214 776.114 Q157.408 779.656 157.408 786.786 Q157.408 793.892 159.214 797.457 Q161.042 800.998 164.653 800.998 Q168.288 800.998 170.093 797.457 Q171.922 793.892 171.922 786.786 Q171.922 779.656 170.093 776.114 Q168.288 772.55 164.653 772.55 M164.653 768.846 Q170.464 768.846 173.519 773.452 Q176.598 778.036 176.598 786.786 Q176.598 795.512 173.519 800.119 Q170.464 804.702 164.653 804.702 Q158.843 804.702 155.765 800.119 Q152.709 795.512 152.709 786.786 Q152.709 778.036 155.765 773.452 Q158.843 768.846 164.653 768.846 Z" fill="#000000" fill-rule="evenodd" fill-opacity="1" /><path clip-path="url(#clip540)" d="M 0 0 M181.713 769.471 L200.07 769.471 L200.07 773.406 L185.996 773.406 L185.996 781.878 Q187.014 781.531 188.033 781.369 Q189.051 781.184 190.07 781.184 Q195.857 781.184 199.237 784.355 Q202.616 787.526 202.616 792.943 Q202.616 798.522 199.144 801.623 Q195.672 804.702 189.352 804.702 Q187.176 804.702 184.908 804.332 Q182.663 803.961 180.255 803.221 L180.255 798.522 Q182.338 799.656 184.561 800.211 Q186.783 800.767 189.26 800.767 Q193.264 800.767 195.602 798.661 Q197.94 796.554 197.94 792.943 Q197.94 789.332 195.602 787.225 Q193.264 785.119 189.26 785.119 Q187.385 785.119 185.51 785.536 Q183.658 785.952 181.713 786.832 L181.713 769.471 Z" fill="#000000" fill-rule="evenodd" fill-opacity="1" /><path clip-path="url(#clip540)" d="M 0 0 M217.686 772.55 Q214.074 772.55 212.246 776.114 Q210.44 779.656 210.44 786.786 Q210.44 793.892 212.246 797.457 Q214.074 800.998 217.686 800.998 Q221.32 800.998 223.125 797.457 Q224.954 793.892 224.954 786.786 Q224.954 779.656 223.125 776.114 Q221.32 772.55 217.686 772.55 M217.686 768.846 Q223.496 768.846 226.551 773.452 Q229.63 778.036 229.63 786.786 Q229.63 795.512 226.551 800.119 Q223.496 804.702 217.686 804.702 Q211.875 804.702 208.797 800.119 Q205.741 795.512 205.741 786.786 Q205.741 778.036 208.797 773.452 Q211.875 768.846 217.686 768.846 Z" fill="#000000" fill-rule="evenodd" fill-opacity="1" /><path clip-path="url(#clip540)" d="M 0 0 M128.681 548.801 Q125.07 548.801 123.242 552.366 Q121.436 555.908 121.436 563.038 Q121.436 570.144 123.242 573.709 Q125.07 577.25 128.681 577.25 Q132.316 577.25 134.121 573.709 Q135.95 570.144 135.95 563.038 Q135.95 555.908 134.121 552.366 Q132.316 548.801 128.681 548.801 M128.681 545.098 Q134.492 545.098 137.547 549.704 Q140.626 554.288 140.626 563.038 Q140.626 571.764 137.547 576.371 Q134.492 580.954 128.681 580.954 Q122.871 580.954 119.793 576.371 Q116.737 571.764 116.737 563.038 Q116.737 554.288 119.793 549.704 Q122.871 545.098 128.681 545.098 Z" fill="#000000" fill-rule="evenodd" fill-opacity="1" /><path clip-path="url(#clip540)" d="M 0 0 M145.695 574.403 L150.579 574.403 L150.579 580.283 L145.695 580.283 L145.695 574.403 Z" fill="#000000" fill-rule="evenodd" fill-opacity="1" /><path clip-path="url(#clip540)" d="M 0 0 M165.649 548.801 Q162.038 548.801 160.209 552.366 Q158.403 555.908 158.403 563.038 Q158.403 570.144 160.209 573.709 Q162.038 577.25 165.649 577.25 Q169.283 577.25 171.089 573.709 Q172.917 570.144 172.917 563.038 Q172.917 555.908 171.089 552.366 Q169.283 548.801 165.649 548.801 M165.649 545.098 Q171.459 545.098 174.514 549.704 Q177.593 554.288 177.593 563.038 Q177.593 571.764 174.514 576.371 Q171.459 580.954 165.649 580.954 Q159.839 580.954 156.76 576.371 Q153.704 571.764 153.704 563.038 Q153.704 554.288 156.76 549.704 Q159.839 545.098 165.649 545.098 Z" fill="#000000" fill-rule="evenodd" fill-opacity="1" /><path clip-path="url(#clip540)" d="M 0 0 M182.709 545.723 L201.065 545.723 L201.065 549.658 L186.991 549.658 L186.991 558.13 Q188.01 557.783 189.028 557.621 Q190.047 557.436 191.065 557.436 Q196.852 557.436 200.232 560.607 Q203.612 563.778 203.612 569.195 Q203.612 574.774 200.139 577.875 Q196.667 580.954 190.348 580.954 Q188.172 580.954 185.903 580.584 Q183.658 580.213 181.251 579.473 L181.251 574.774 Q183.334 575.908 185.556 576.463 Q187.778 577.019 190.255 577.019 Q194.26 577.019 196.598 574.912 Q198.936 572.806 198.936 569.195 Q198.936 565.584 196.598 563.477 Q194.26 561.371 190.255 561.371 Q188.38 561.371 186.505 561.788 Q184.653 562.204 182.709 563.084 L182.709 545.723 Z" fill="#000000" fill-rule="evenodd" fill-opacity="1" /><path clip-path="url(#clip540)" d="M 0 0 M208.727 545.723 L227.084 545.723 L227.084 549.658 L213.01 549.658 L213.01 558.13 Q214.028 557.783 215.047 557.621 Q216.065 557.436 217.084 557.436 Q222.871 557.436 226.25 560.607 Q229.63 563.778 229.63 569.195 Q229.63 574.774 226.158 577.875 Q222.686 580.954 216.366 580.954 Q214.19 580.954 211.922 580.584 Q209.676 580.213 207.269 579.473 L207.269 574.774 Q209.352 575.908 211.574 576.463 Q213.797 577.019 216.273 577.019 Q220.278 577.019 222.616 574.912 Q224.954 572.806 224.954 569.195 Q224.954 565.584 222.616 563.477 Q220.278 561.371 216.273 561.371 Q214.399 561.371 212.524 561.788 Q210.672 562.204 208.727 563.084 L208.727 545.723 Z" fill="#000000" fill-rule="evenodd" fill-opacity="1" /><path clip-path="url(#clip540)" d="M 0 0 M126.529 325.053 Q122.918 325.053 121.089 328.618 Q119.283 332.16 119.283 339.289 Q119.283 346.396 121.089 349.961 Q122.918 353.502 126.529 353.502 Q130.163 353.502 131.968 349.961 Q133.797 346.396 133.797 339.289 Q133.797 332.16 131.968 328.618 Q130.163 325.053 126.529 325.053 M126.529 321.35 Q132.339 321.35 135.394 325.956 Q138.473 330.54 138.473 339.289 Q138.473 348.016 135.394 352.623 Q132.339 357.206 126.529 357.206 Q120.718 357.206 117.64 352.623 Q114.584 348.016 114.584 339.289 Q114.584 330.54 117.64 325.956 Q120.718 321.35 126.529 321.35 Z" fill="#000000" fill-rule="evenodd" fill-opacity="1" /><path clip-path="url(#clip540)" d="M 0 0 M143.542 350.655 L148.427 350.655 L148.427 356.535 L143.542 356.535 L143.542 350.655 Z" fill="#000000" fill-rule="evenodd" fill-opacity="1" /><path clip-path="url(#clip540)" d="M 0 0 M163.496 325.053 Q159.885 325.053 158.056 328.618 Q156.251 332.16 156.251 339.289 Q156.251 346.396 158.056 349.961 Q159.885 353.502 163.496 353.502 Q167.13 353.502 168.936 349.961 Q170.764 346.396 170.764 339.289 Q170.764 332.16 168.936 328.618 Q167.13 325.053 163.496 325.053 M163.496 321.35 Q169.306 321.35 172.362 325.956 Q175.44 330.54 175.44 339.289 Q175.44 348.016 172.362 352.623 Q169.306 357.206 163.496 357.206 Q157.686 357.206 154.607 352.623 Q151.552 348.016 151.552 339.289 Q151.552 330.54 154.607 325.956 Q157.686 321.35 163.496 321.35 Z" fill="#000000" fill-rule="evenodd" fill-opacity="1" /><path clip-path="url(#clip540)" d="M 0 0 M191.088 337.391 Q187.94 337.391 186.088 339.544 Q184.26 341.697 184.26 345.447 Q184.26 349.174 186.088 351.35 Q187.94 353.502 191.088 353.502 Q194.237 353.502 196.065 351.35 Q197.917 349.174 197.917 345.447 Q197.917 341.697 196.065 339.544 Q194.237 337.391 191.088 337.391 M200.371 322.739 L200.371 326.998 Q198.612 326.165 196.806 325.725 Q195.024 325.285 193.264 325.285 Q188.635 325.285 186.181 328.41 Q183.751 331.535 183.403 337.854 Q184.769 335.84 186.829 334.776 Q188.889 333.688 191.366 333.688 Q196.575 333.688 199.584 336.859 Q202.616 340.007 202.616 345.447 Q202.616 350.771 199.468 353.988 Q196.32 357.206 191.088 357.206 Q185.093 357.206 181.922 352.623 Q178.751 348.016 178.751 339.289 Q178.751 331.095 182.639 326.234 Q186.528 321.35 193.079 321.35 Q194.838 321.35 196.621 321.697 Q198.426 322.044 200.371 322.739 Z" fill="#000000" fill-rule="evenodd" fill-opacity="1" /><path clip-path="url(#clip540)" d="M 0 0 M217.686 325.053 Q214.074 325.053 212.246 328.618 Q210.44 332.16 210.44 339.289 Q210.44 346.396 212.246 349.961 Q214.074 353.502 217.686 353.502 Q221.32 353.502 223.125 349.961 Q224.954 346.396 224.954 339.289 Q224.954 332.16 223.125 328.618 Q221.32 325.053 217.686 325.053 M217.686 321.35 Q223.496 321.35 226.551 325.956 Q229.63 330.54 229.63 339.289 Q229.63 348.016 226.551 352.623 Q223.496 357.206 217.686 357.206 Q211.875 357.206 208.797 352.623 Q205.741 348.016 205.741 339.289 Q205.741 330.54 208.797 325.956 Q211.875 321.35 217.686 321.35 Z" fill="#000000" fill-rule="evenodd" fill-opacity="1" /><path clip-path="url(#clip540)" d="M 0 0 M16.4842 946.601 L16.4842 906.401 L21.895 906.401 L21.895 923.27 L64.0042 923.27 L64.0042 929.731 L21.895 929.731 L21.895 946.601 L16.4842 946.601 Z" fill="#000000" fill-rule="evenodd" fill-opacity="1" /><path clip-path="url(#clip540)" d="M 0 0 M67.3143 895.579 Q73.68 898.062 75.6216 900.417 Q77.5631 902.773 77.5631 906.719 L77.5631 911.398 L72.6615 911.398 L72.6615 907.961 Q72.6615 905.542 71.5157 904.205 Q70.3699 902.868 66.1048 901.245 L63.4312 900.195 L28.3562 914.613 L28.3562 908.406 L56.238 897.266 L28.3562 886.126 L28.3562 879.92 L67.3143 895.579 Z" fill="#000000" fill-rule="evenodd" fill-opacity="1" /><path clip-path="url(#clip540)" d="M 0 0 M58.657 868.111 L77.5631 868.111 L77.5631 874 L28.3562 874 L28.3562 868.111 L33.7671 868.111 Q30.5842 866.265 29.0564 863.464 Q27.4968 860.632 27.4968 856.717 Q27.4968 850.224 32.6531 846.181 Q37.8093 842.107 46.212 842.107 Q54.6147 842.107 59.771 846.181 Q64.9272 850.224 64.9272 856.717 Q64.9272 860.632 63.3994 863.464 Q61.8398 866.265 58.657 868.111 M46.212 848.187 Q39.7508 848.187 36.0905 850.86 Q32.3984 853.502 32.3984 858.149 Q32.3984 862.796 36.0905 865.47 Q39.7508 868.111 46.212 868.111 Q52.6732 868.111 56.3653 865.47 Q60.0256 862.796 60.0256 858.149 Q60.0256 853.502 56.3653 850.86 Q52.6732 848.187 46.212 848.187 Z" fill="#000000" fill-rule="evenodd" fill-opacity="1" /><path clip-path="url(#clip540)" d="M 0 0 M44.7161 805.473 L47.5806 805.473 L47.5806 832.4 Q53.6281 832.018 56.8109 828.771 Q59.9619 825.493 59.9619 819.668 Q59.9619 816.295 59.1344 813.143 Q58.3069 809.961 56.6518 806.841 L62.1899 806.841 Q63.5267 809.992 64.227 813.303 Q64.9272 816.613 64.9272 820.018 Q64.9272 828.548 59.9619 833.546 Q54.9967 838.511 46.5303 838.511 Q37.7774 838.511 32.6531 833.8 Q27.4968 829.058 27.4968 821.037 Q27.4968 813.844 32.1438 809.674 Q36.7589 805.473 44.7161 805.473 M42.9973 811.329 Q38.1912 811.393 35.3266 814.035 Q32.4621 816.645 32.4621 820.973 Q32.4621 825.875 35.2312 828.835 Q38.0002 831.763 43.0292 832.209 L42.9973 811.329 Z" fill="#000000" fill-rule="evenodd" fill-opacity="1" /><path clip-path="url(#clip540)" d="M 0 0 M16.4842 778.355 L16.4842 771.926 L64.0042 771.926 L64.0042 778.355 L16.4842 778.355 Z" fill="#000000" fill-rule="evenodd" fill-opacity="1" /><path clip-path="url(#clip540)" d="M 0 0 M16.4842 744.808 L16.4842 714.761 L21.895 714.761 L21.895 738.378 L35.9632 738.378 L35.9632 715.748 L41.3741 715.748 L41.3741 738.378 L58.5933 738.378 L58.5933 714.189 L64.0042 714.189 L64.0042 744.808 L16.4842 744.808 Z" fill="#000000" fill-rule="evenodd" fill-opacity="1" /><path clip-path="url(#clip540)" d="M 0 0 M33.8307 687.389 Q33.2578 688.376 33.0032 689.553 Q32.7167 690.699 32.7167 692.1 Q32.7167 697.065 35.9632 699.738 Q39.1779 702.38 45.2253 702.38 L64.0042 702.38 L64.0042 708.268 L28.3562 708.268 L28.3562 702.38 L33.8944 702.38 Q30.6479 700.534 29.0883 697.574 Q27.4968 694.614 27.4968 690.381 Q27.4968 689.776 27.5923 689.044 Q27.656 688.312 27.8151 687.421 L33.8307 687.389 Z" fill="#000000" fill-rule="evenodd" fill-opacity="1" /><path clip-path="url(#clip540)" d="M 0 0 M33.8307 661.735 Q33.2578 662.722 33.0032 663.899 Q32.7167 665.045 32.7167 666.446 Q32.7167 671.411 35.9632 674.085 Q39.1779 676.726 45.2253 676.726 L64.0042 676.726 L64.0042 682.615 L28.3562 682.615 L28.3562 676.726 L33.8944 676.726 Q30.6479 674.88 29.0883 671.92 Q27.4968 668.96 27.4968 664.727 Q27.4968 664.122 27.5923 663.39 Q27.656 662.658 27.8151 661.767 L33.8307 661.735 Z" fill="#000000" fill-rule="evenodd" fill-opacity="1" /><path clip-path="url(#clip540)" d="M 0 0 M32.4621 643.211 Q32.4621 647.922 36.1542 650.659 Q39.8145 653.396 46.212 653.396 Q52.6095 653.396 56.3017 650.691 Q59.9619 647.953 59.9619 643.211 Q59.9619 638.532 56.2698 635.795 Q52.5777 633.058 46.212 633.058 Q39.8781 633.058 36.186 635.795 Q32.4621 638.532 32.4621 643.211 M27.4968 643.211 Q27.4968 635.572 32.4621 631.212 Q37.4273 626.851 46.212 626.851 Q54.9649 626.851 59.9619 631.212 Q64.9272 635.572 64.9272 643.211 Q64.9272 650.882 59.9619 655.242 Q54.9649 659.571 46.212 659.571 Q37.4273 659.571 32.4621 655.242 Q27.4968 650.882 27.4968 643.211 Z" fill="#000000" fill-rule="evenodd" fill-opacity="1" /><path clip-path="url(#clip540)" d="M 0 0 M33.8307 600.051 Q33.2578 601.038 33.0032 602.216 Q32.7167 603.362 32.7167 604.762 Q32.7167 609.727 35.9632 612.401 Q39.1779 615.043 45.2253 615.043 L64.0042 615.043 L64.0042 620.931 L28.3562 620.931 L28.3562 615.043 L33.8944 615.043 Q30.6479 613.197 29.0883 610.237 Q27.4968 607.277 27.4968 603.043 Q27.4968 602.439 27.5923 601.707 Q27.656 600.974 27.8151 600.083 L33.8307 600.051 Z" fill="#000000" fill-rule="evenodd" fill-opacity="1" /><path clip-path="url(#clip540)" d="M 0 0 M593.702 43.6931 L593.702 65.8515 L606.827 65.8515 Q613.43 65.8515 616.59 63.1374 Q619.79 60.3828 619.79 54.752 Q619.79 49.0808 616.59 46.4072 Q613.43 43.6931 606.827 43.6931 L593.702 43.6931 M593.702 18.8205 L593.702 37.0496 L605.814 37.0496 Q611.809 37.0496 614.726 34.8216 Q617.683 32.5531 617.683 27.935 Q617.683 23.3575 614.726 21.089 Q611.809 18.8205 605.814 18.8205 L593.702 18.8205 M585.519 12.096 L606.422 12.096 Q615.779 12.096 620.843 15.9849 Q625.907 19.8737 625.907 27.0438 Q625.907 32.5936 623.314 35.8748 Q620.721 39.156 615.698 39.9662 Q621.734 41.2625 625.056 45.3944 Q628.418 49.4858 628.418 55.6432 Q628.418 63.745 622.909 68.1605 Q617.4 72.576 607.232 72.576 L585.519 72.576 L585.519 12.096 Z" fill="#000000" fill-rule="evenodd" fill-opacity="1" /><path clip-path="url(#clip540)" d="M 0 0 M656.856 49.7694 Q647.822 49.7694 644.338 51.8354 Q640.854 53.9013 640.854 58.8839 Q640.854 62.8538 643.447 65.2034 Q646.08 67.5124 650.577 67.5124 Q656.775 67.5124 660.501 63.1374 Q664.269 58.7219 664.269 51.4303 L664.269 49.7694 L656.856 49.7694 M671.722 46.6907 L671.722 72.576 L664.269 72.576 L664.269 65.6895 Q661.717 69.8214 657.909 71.8063 Q654.101 73.7508 648.592 73.7508 Q641.624 73.7508 637.492 69.8619 Q633.401 65.9325 633.401 59.3701 Q633.401 51.7138 638.505 47.825 Q643.65 43.9361 653.817 43.9361 L664.269 43.9361 L664.269 43.2069 Q664.269 38.0623 660.866 35.2672 Q657.504 32.4315 651.387 32.4315 Q647.498 32.4315 643.812 33.3632 Q640.125 34.295 636.723 36.1584 L636.723 29.2718 Q640.814 27.692 644.662 26.9223 Q648.511 26.1121 652.156 26.1121 Q662 26.1121 666.861 31.2163 Q671.722 36.3204 671.722 46.6907 Z" fill="#000000" fill-rule="evenodd" fill-opacity="1" /><path clip-path="url(#clip540)" d="M 0 0 M698.418 76.7889 Q695.258 84.8907 692.26 87.3618 Q689.263 89.8329 684.24 89.8329 L678.285 89.8329 L678.285 83.5945 L682.66 83.5945 Q685.738 83.5945 687.44 82.1361 Q689.141 80.6778 691.207 75.2496 L692.544 71.8468 L674.193 27.2059 L682.093 27.2059 L696.271 62.6918 L710.449 27.2059 L718.348 27.2059 L698.418 76.7889 Z" fill="#000000" fill-rule="evenodd" fill-opacity="1" /><path clip-path="url(#clip540)" d="M 0 0 M764.974 48.0275 L764.974 51.6733 L730.704 51.6733 Q731.19 59.3701 735.322 63.421 Q739.494 67.4314 746.907 67.4314 Q751.201 67.4314 755.212 66.3781 Q759.262 65.3249 763.232 63.2184 L763.232 70.267 Q759.222 71.9684 755.009 72.8596 Q750.796 73.7508 746.462 73.7508 Q735.605 73.7508 729.245 67.4314 Q722.926 61.1119 722.926 50.3365 Q722.926 39.1965 728.921 32.6746 Q734.957 26.1121 745.165 26.1121 Q754.32 26.1121 759.627 32.0264 Q764.974 37.9003 764.974 48.0275 M757.521 45.84 Q757.439 39.7232 754.077 36.0774 Q750.756 32.4315 745.246 32.4315 Q739.008 32.4315 735.241 35.9558 Q731.514 39.4801 730.947 45.8805 L757.521 45.84 Z" fill="#000000" fill-rule="evenodd" fill-opacity="1" /><path clip-path="url(#clip540)" d="M 0 0 M801.716 28.5427 L801.716 35.5912 Q798.556 33.9709 795.153 33.1607 Q791.751 32.3505 788.105 32.3505 Q782.555 32.3505 779.76 34.0519 Q777.005 35.7533 777.005 39.156 Q777.005 41.7486 778.99 43.2475 Q780.975 44.7058 786.971 46.0426 L789.523 46.6097 Q797.462 48.3111 800.784 51.4303 Q804.146 54.509 804.146 60.0587 Q804.146 66.3781 799.123 70.0644 Q794.141 73.7508 785.391 73.7508 Q781.745 73.7508 777.775 73.0216 Q773.846 72.3329 769.471 70.9151 L769.471 63.2184 Q773.603 65.3654 777.613 66.4591 Q781.623 67.5124 785.553 67.5124 Q790.819 67.5124 793.655 65.73 Q796.49 63.9071 796.49 60.6258 Q796.49 57.5877 794.424 55.9673 Q792.399 54.3469 785.472 52.8481 L782.879 52.2405 Q775.952 50.7821 772.873 47.7845 Q769.795 44.7463 769.795 39.4801 Q769.795 33.0797 774.332 29.5959 Q778.869 26.1121 787.214 26.1121 Q791.346 26.1121 794.991 26.7198 Q798.637 27.3274 801.716 28.5427 Z" fill="#000000" fill-rule="evenodd" fill-opacity="1" /><path clip-path="url(#clip540)" d="M 0 0 M838.66 12.096 L873.417 12.096 L873.417 18.9825 L846.843 18.9825 L846.843 36.8065 L870.824 36.8065 L870.824 43.6931 L846.843 43.6931 L846.843 72.576 L838.66 72.576 L838.66 12.096 Z" fill="#000000" fill-rule="evenodd" fill-opacity="1" /><path clip-path="url(#clip540)" d="M 0 0 M894.239 49.7694 Q885.205 49.7694 881.721 51.8354 Q878.237 53.9013 878.237 58.8839 Q878.237 62.8538 880.83 65.2034 Q883.463 67.5124 887.96 67.5124 Q894.158 67.5124 897.884 63.1374 Q901.652 58.7219 901.652 51.4303 L901.652 49.7694 L894.239 49.7694 M909.105 46.6907 L909.105 72.576 L901.652 72.576 L901.652 65.6895 Q899.1 69.8214 895.292 71.8063 Q891.484 73.7508 885.975 73.7508 Q879.007 73.7508 874.875 69.8619 Q870.784 65.9325 870.784 59.3701 Q870.784 51.7138 875.888 47.825 Q881.033 43.9361 891.2 43.9361 L901.652 43.9361 L901.652 43.2069 Q901.652 38.0623 898.249 35.2672 Q894.887 32.4315 888.77 32.4315 Q884.881 32.4315 881.195 33.3632 Q877.508 34.295 874.106 36.1584 L874.106 29.2718 Q878.197 27.692 882.045 26.9223 Q885.894 26.1121 889.539 26.1121 Q899.383 26.1121 904.244 31.2163 Q909.105 36.3204 909.105 46.6907 Z" fill="#000000" fill-rule="evenodd" fill-opacity="1" /><path clip-path="url(#clip540)" d="M 0 0 M949.574 28.9478 L949.574 35.9153 Q946.414 34.1734 943.214 33.3227 Q940.054 32.4315 936.814 32.4315 Q929.562 32.4315 925.552 37.0496 Q921.542 41.6271 921.542 49.9314 Q921.542 58.2358 925.552 62.8538 Q929.562 67.4314 936.814 67.4314 Q940.054 67.4314 943.214 66.5807 Q946.414 65.6895 949.574 63.9476 L949.574 70.8341 Q946.455 72.2924 943.092 73.0216 Q939.771 73.7508 936.003 73.7508 Q925.755 73.7508 919.719 67.3098 Q913.683 60.8689 913.683 49.9314 Q913.683 38.832 919.759 32.472 Q925.876 26.1121 936.489 26.1121 Q939.933 26.1121 943.214 26.8413 Q946.495 27.5299 949.574 28.9478 Z" fill="#000000" fill-rule="evenodd" fill-opacity="1" /><path clip-path="url(#clip540)" d="M 0 0 M964.765 14.324 L964.765 27.2059 L980.118 27.2059 L980.118 32.9987 L964.765 32.9987 L964.765 57.6282 Q964.765 63.1779 966.264 64.7578 Q967.803 66.3376 972.461 66.3376 L980.118 66.3376 L980.118 72.576 L972.461 72.576 Q963.833 72.576 960.552 69.3758 Q957.271 66.1351 957.271 57.6282 L957.271 32.9987 L951.802 32.9987 L951.802 27.2059 L957.271 27.2059 L957.271 14.324 L964.765 14.324 Z" fill="#000000" fill-rule="evenodd" fill-opacity="1" /><path clip-path="url(#clip540)" d="M 0 0 M1005.52 32.4315 Q999.522 32.4315 996.038 37.1306 Q992.554 41.7891 992.554 49.9314 Q992.554 58.0738 995.997 62.7728 Q999.481 67.4314 1005.52 67.4314 Q1011.47 67.4314 1014.96 62.7323 Q1018.44 58.0333 1018.44 49.9314 Q1018.44 41.8701 1014.96 37.1711 Q1011.47 32.4315 1005.52 32.4315 M1005.52 26.1121 Q1015.24 26.1121 1020.79 32.4315 Q1026.34 38.7509 1026.34 49.9314 Q1026.34 61.0714 1020.79 67.4314 Q1015.24 73.7508 1005.52 73.7508 Q995.754 73.7508 990.204 67.4314 Q984.695 61.0714 984.695 49.9314 Q984.695 38.7509 990.204 32.4315 Q995.754 26.1121 1005.52 26.1121 Z" fill="#000000" fill-rule="evenodd" fill-opacity="1" /><path clip-path="url(#clip540)" d="M 0 0 M1060.45 34.1734 Q1059.19 33.4443 1057.69 33.1202 Q1056.23 32.7556 1054.45 32.7556 Q1048.13 32.7556 1044.73 36.8875 Q1041.37 40.9789 1041.37 48.6757 L1041.37 72.576 L1033.87 72.576 L1033.87 27.2059 L1041.37 27.2059 L1041.37 34.2544 Q1043.72 30.1225 1047.48 28.1376 Q1051.25 26.1121 1056.64 26.1121 Q1057.41 26.1121 1058.34 26.2337 Q1059.27 26.3147 1060.41 26.5172 L1060.45 34.1734 Z" fill="#000000" fill-rule="evenodd" fill-opacity="1" /><path clip-path="url(#clip540)" d="M 0 0 M1086.58 12.096 L1137.74 12.096 L1137.74 18.9825 L1116.27 18.9825 L1116.27 72.576 L1108.05 72.576 L1108.05 18.9825 L1086.58 18.9825 L1086.58 12.096 Z" fill="#000000" fill-rule="evenodd" fill-opacity="1" /><path clip-path="url(#clip540)" d="M 0 0 M1183.27 45.1919 L1183.27 72.576 L1175.82 72.576 L1175.82 45.4349 Q1175.82 38.994 1173.31 35.7938 Q1170.79 32.5936 1165.77 32.5936 Q1159.73 32.5936 1156.25 36.4419 Q1152.77 40.2903 1152.77 46.9338 L1152.77 72.576 L1145.27 72.576 L1145.27 9.54393 L1152.77 9.54393 L1152.77 34.2544 Q1155.44 30.163 1159.05 28.1376 Q1162.69 26.1121 1167.43 26.1121 Q1175.25 26.1121 1179.26 30.9732 Q1183.27 35.7938 1183.27 45.1919 Z" fill="#000000" fill-rule="evenodd" fill-opacity="1" /><path clip-path="url(#clip540)" d="M 0 0 M1217.38 34.1734 Q1216.12 33.4443 1214.62 33.1202 Q1213.17 32.7556 1211.38 32.7556 Q1205.06 32.7556 1201.66 36.8875 Q1198.3 40.9789 1198.3 48.6757 L1198.3 72.576 L1190.81 72.576 L1190.81 27.2059 L1198.3 27.2059 L1198.3 34.2544 Q1200.65 30.1225 1204.42 28.1376 Q1208.18 26.1121 1213.57 26.1121 Q1214.34 26.1121 1215.27 26.2337 Q1216.2 26.3147 1217.34 26.5172 L1217.38 34.1734 Z" fill="#000000" fill-rule="evenodd" fill-opacity="1" /><path clip-path="url(#clip540)" d="M 0 0 M1262.18 48.0275 L1262.18 51.6733 L1227.91 51.6733 Q1228.4 59.3701 1232.53 63.421 Q1236.7 67.4314 1244.12 67.4314 Q1248.41 67.4314 1252.42 66.3781 Q1256.47 65.3249 1260.44 63.2184 L1260.44 70.267 Q1256.43 71.9684 1252.22 72.8596 Q1248 73.7508 1243.67 73.7508 Q1232.81 73.7508 1226.45 67.4314 Q1220.13 61.1119 1220.13 50.3365 Q1220.13 39.1965 1226.13 32.6746 Q1232.16 26.1121 1242.37 26.1121 Q1251.53 26.1121 1256.83 32.0264 Q1262.18 37.9003 1262.18 48.0275 M1254.73 45.84 Q1254.65 39.7232 1251.29 36.0774 Q1247.96 32.4315 1242.45 32.4315 Q1236.22 32.4315 1232.45 35.9558 Q1228.72 39.4801 1228.15 45.8805 L1254.73 45.84 Z" fill="#000000" fill-rule="evenodd" fill-opacity="1" /><path clip-path="url(#clip540)" d="M 0 0 M1298.92 28.5427 L1298.92 35.5912 Q1295.76 33.9709 1292.36 33.1607 Q1288.96 32.3505 1285.31 32.3505 Q1279.76 32.3505 1276.97 34.0519 Q1274.21 35.7533 1274.21 39.156 Q1274.21 41.7486 1276.2 43.2475 Q1278.18 44.7058 1284.18 46.0426 L1286.73 46.6097 Q1294.67 48.3111 1297.99 51.4303 Q1301.35 54.509 1301.35 60.0587 Q1301.35 66.3781 1296.33 70.0644 Q1291.35 73.7508 1282.6 73.7508 Q1278.95 73.7508 1274.98 73.0216 Q1271.05 72.3329 1266.68 70.9151 L1266.68 63.2184 Q1270.81 65.3654 1274.82 66.4591 Q1278.83 67.5124 1282.76 67.5124 Q1288.03 67.5124 1290.86 65.73 Q1293.7 63.9071 1293.7 60.6258 Q1293.7 57.5877 1291.63 55.9673 Q1289.61 54.3469 1282.68 52.8481 L1280.09 52.2405 Q1273.16 50.7821 1270.08 47.7845 Q1267 44.7463 1267 39.4801 Q1267 33.0797 1271.54 29.5959 Q1276.08 26.1121 1284.42 26.1121 Q1288.55 26.1121 1292.2 26.7198 Q1295.85 27.3274 1298.92 28.5427 Z" fill="#000000" fill-rule="evenodd" fill-opacity="1" /><path clip-path="url(#clip540)" d="M 0 0 M1346.89 45.1919 L1346.89 72.576 L1339.43 72.576 L1339.43 45.4349 Q1339.43 38.994 1336.92 35.7938 Q1334.41 32.5936 1329.39 32.5936 Q1323.35 32.5936 1319.87 36.4419 Q1316.38 40.2903 1316.38 46.9338 L1316.38 72.576 L1308.89 72.576 L1308.89 9.54393 L1316.38 9.54393 L1316.38 34.2544 Q1319.06 30.163 1322.66 28.1376 Q1326.31 26.1121 1331.05 26.1121 Q1338.87 26.1121 1342.88 30.9732 Q1346.89 35.7938 1346.89 45.1919 Z" fill="#000000" fill-rule="evenodd" fill-opacity="1" /><path clip-path="url(#clip540)" d="M 0 0 M1372.29 32.4315 Q1366.29 32.4315 1362.81 37.1306 Q1359.32 41.7891 1359.32 49.9314 Q1359.32 58.0738 1362.77 62.7728 Q1366.25 67.4314 1372.29 67.4314 Q1378.24 67.4314 1381.72 62.7323 Q1385.21 58.0333 1385.21 49.9314 Q1385.21 41.8701 1381.72 37.1711 Q1378.24 32.4315 1372.29 32.4315 M1372.29 26.1121 Q1382.01 26.1121 1387.56 32.4315 Q1393.11 38.7509 1393.11 49.9314 Q1393.11 61.0714 1387.56 67.4314 Q1382.01 73.7508 1372.29 73.7508 Q1362.52 73.7508 1356.97 67.4314 Q1351.46 61.0714 1351.46 49.9314 Q1351.46 38.7509 1356.97 32.4315 Q1362.52 26.1121 1372.29 26.1121 Z" fill="#000000" fill-rule="evenodd" fill-opacity="1" /><path clip-path="url(#clip540)" d="M 0 0 M1400.93 9.54393 L1408.38 9.54393 L1408.38 72.576 L1400.93 72.576 L1400.93 9.54393 Z" fill="#000000" fill-rule="evenodd" fill-opacity="1" /><path clip-path="url(#clip540)" d="M 0 0 M1446.05 34.0924 L1446.05 9.54393 L1453.51 9.54393 L1453.51 72.576 L1446.05 72.576 L1446.05 65.7705 Q1443.7 69.8214 1440.1 71.8063 Q1436.53 73.7508 1431.51 73.7508 Q1423.29 73.7508 1418.1 67.1883 Q1412.96 60.6258 1412.96 49.9314 Q1412.96 39.2371 1418.1 32.6746 Q1423.29 26.1121 1431.51 26.1121 Q1436.53 26.1121 1440.1 28.0971 Q1443.7 30.0415 1446.05 34.0924 M1420.65 49.9314 Q1420.65 58.1548 1424.02 62.8538 Q1427.42 67.5124 1433.33 67.5124 Q1439.25 67.5124 1442.65 62.8538 Q1446.05 58.1548 1446.05 49.9314 Q1446.05 41.7081 1442.65 37.0496 Q1439.25 32.3505 1433.33 32.3505 Q1427.42 32.3505 1424.02 37.0496 Q1420.65 41.7081 1420.65 49.9314 Z" fill="#000000" fill-rule="evenodd" fill-opacity="1" /><path clip-path="url(#clip540)" d="M 0 0 M1482.35 27.2059 L1490.25 27.2059 L1504.43 65.2844 L1518.6 27.2059 L1526.5 27.2059 L1509.49 72.576 L1499.36 72.576 L1482.35 27.2059 Z" fill="#000000" fill-rule="evenodd" fill-opacity="1" /><path clip-path="url(#clip540)" d="M 0 0 M1563.25 28.5427 L1563.25 35.5912 Q1560.09 33.9709 1556.68 33.1607 Q1553.28 32.3505 1549.63 32.3505 Q1544.08 32.3505 1541.29 34.0519 Q1538.53 35.7533 1538.53 39.156 Q1538.53 41.7486 1540.52 43.2475 Q1542.5 44.7058 1548.5 46.0426 L1551.05 46.6097 Q1558.99 48.3111 1562.31 51.4303 Q1565.68 54.509 1565.68 60.0587 Q1565.68 66.3781 1560.65 70.0644 Q1555.67 73.7508 1546.92 73.7508 Q1543.27 73.7508 1539.3 73.0216 Q1535.38 72.3329 1531 70.9151 L1531 63.2184 Q1535.13 65.3654 1539.14 66.4591 Q1543.15 67.5124 1547.08 67.5124 Q1552.35 67.5124 1555.18 65.73 Q1558.02 63.9071 1558.02 60.6258 Q1558.02 57.5877 1555.95 55.9673 Q1553.93 54.3469 1547 52.8481 L1544.41 52.2405 Q1537.48 50.7821 1534.4 47.7845 Q1531.32 44.7463 1531.32 39.4801 Q1531.32 33.0797 1535.86 29.5959 Q1540.4 26.1121 1548.74 26.1121 Q1552.88 26.1121 1556.52 26.7198 Q1560.17 27.3274 1563.25 28.5427 Z" fill="#000000" fill-rule="evenodd" fill-opacity="1" /><path clip-path="url(#clip540)" d="M 0 0 M1591.8 12.096 L1642.97 12.096 L1642.97 18.9825 L1621.5 18.9825 L1621.5 72.576 L1613.27 72.576 L1613.27 18.9825 L1591.8 18.9825 L1591.8 12.096 Z" fill="#000000" fill-rule="evenodd" fill-opacity="1" /><path clip-path="url(#clip540)" d="M 0 0 M1656.74 76.7889 Q1653.58 84.8907 1650.58 87.3618 Q1647.59 89.8329 1642.56 89.8329 L1636.61 89.8329 L1636.61 83.5945 L1640.98 83.5945 Q1644.06 83.5945 1645.76 82.1361 Q1647.46 80.6778 1649.53 75.2496 L1650.87 71.8468 L1632.52 27.2059 L1640.42 27.2059 L1654.59 62.6918 L1668.77 27.2059 L1676.67 27.2059 L1656.74 76.7889 Z" fill="#000000" fill-rule="evenodd" fill-opacity="1" /><path clip-path="url(#clip540)" d="M 0 0 M1691.7 65.7705 L1691.7 89.8329 L1684.21 89.8329 L1684.21 27.2059 L1691.7 27.2059 L1691.7 34.0924 Q1694.05 30.0415 1697.61 28.0971 Q1701.22 26.1121 1706.2 26.1121 Q1714.47 26.1121 1719.61 32.6746 Q1724.8 39.2371 1724.8 49.9314 Q1724.8 60.6258 1719.61 67.1883 Q1714.47 73.7508 1706.2 73.7508 Q1701.22 73.7508 1697.61 71.8063 Q1694.05 69.8214 1691.7 65.7705 M1717.06 49.9314 Q1717.06 41.7081 1713.66 37.0496 Q1710.29 32.3505 1704.38 32.3505 Q1698.46 32.3505 1695.06 37.0496 Q1691.7 41.7081 1691.7 49.9314 Q1691.7 58.1548 1695.06 62.8538 Q1698.46 67.5124 1704.38 67.5124 Q1710.29 67.5124 1713.66 62.8538 Q1717.06 58.1548 1717.06 49.9314 Z" fill="#000000" fill-rule="evenodd" fill-opacity="1" /><path clip-path="url(#clip540)" d="M 0 0 M1771.42 48.0275 L1771.42 51.6733 L1737.15 51.6733 Q1737.64 59.3701 1741.77 63.421 Q1745.94 67.4314 1753.35 67.4314 Q1757.65 67.4314 1761.66 66.3781 Q1765.71 65.3249 1769.68 63.2184 L1769.68 70.267 Q1765.67 71.9684 1761.46 72.8596 Q1757.24 73.7508 1752.91 73.7508 Q1742.05 73.7508 1735.69 67.4314 Q1729.37 61.1119 1729.37 50.3365 Q1729.37 39.1965 1735.37 32.6746 Q1741.4 26.1121 1751.61 26.1121 Q1760.77 26.1121 1766.07 32.0264 Q1771.42 37.9003 1771.42 48.0275 M1763.97 45.84 Q1763.89 39.7232 1760.52 36.0774 Q1757.2 32.4315 1751.69 32.4315 Q1745.46 32.4315 1741.69 35.9558 Q1737.96 39.4801 1737.39 45.8805 L1763.97 45.84 Z" fill="#000000" fill-rule="evenodd" fill-opacity="1" /><path clip-path="url(#clip540)" d="M 0 0 M1805.94 12.096 L1814.12 12.096 L1814.12 72.576 L1805.94 72.576 L1805.94 12.096 Z" fill="#000000" fill-rule="evenodd" fill-opacity="1" /><path clip-path="url(#clip540)" d="M 0 0 M1848.63 12.096 L1886.87 12.096 L1886.87 18.9825 L1856.81 18.9825 L1856.81 36.8875 L1885.62 36.8875 L1885.62 43.7741 L1856.81 43.7741 L1856.81 65.6895 L1887.6 65.6895 L1887.6 72.576 L1848.63 72.576 L1848.63 12.096 Z" fill="#000000" fill-rule="evenodd" fill-opacity="1" /><path clip-path="url(#clip540)" d="M 0 0 M1921.71 34.1734 Q1920.45 33.4443 1918.96 33.1202 Q1917.5 32.7556 1915.71 32.7556 Q1909.4 32.7556 1905.99 36.8875 Q1902.63 40.9789 1902.63 48.6757 L1902.63 72.576 L1895.14 72.576 L1895.14 27.2059 L1902.63 27.2059 L1902.63 34.2544 Q1904.98 30.1225 1908.75 28.1376 Q1912.51 26.1121 1917.9 26.1121 Q1918.67 26.1121 1919.6 26.2337 Q1920.54 26.3147 1921.67 26.5172 L1921.71 34.1734 Z" fill="#000000" fill-rule="evenodd" fill-opacity="1" /><path clip-path="url(#clip540)" d="M 0 0 M1954.36 34.1734 Q1953.1 33.4443 1951.61 33.1202 Q1950.15 32.7556 1948.36 32.7556 Q1942.05 32.7556 1938.64 36.8875 Q1935.28 40.9789 1935.28 48.6757 L1935.28 72.576 L1927.79 72.576 L1927.79 27.2059 L1935.28 27.2059 L1935.28 34.2544 Q1937.63 30.1225 1941.4 28.1376 Q1945.16 26.1121 1950.55 26.1121 Q1951.32 26.1121 1952.25 26.2337 Q1953.19 26.3147 1954.32 26.5172 L1954.36 34.1734 Z" fill="#000000" fill-rule="evenodd" fill-opacity="1" /><path clip-path="url(#clip540)" d="M 0 0 M1977.94 32.4315 Q1971.94 32.4315 1968.46 37.1306 Q1964.97 41.7891 1964.97 49.9314 Q1964.97 58.0738 1968.42 62.7728 Q1971.9 67.4314 1977.94 67.4314 Q1983.89 67.4314 1987.38 62.7323 Q1990.86 58.0333 1990.86 49.9314 Q1990.86 41.8701 1987.38 37.1711 Q1983.89 32.4315 1977.94 32.4315 M1977.94 26.1121 Q1987.66 26.1121 1993.21 32.4315 Q1998.76 38.7509 1998.76 49.9314 Q1998.76 61.0714 1993.21 67.4314 Q1987.66 73.7508 1977.94 73.7508 Q1968.17 73.7508 1962.62 67.4314 Q1957.11 61.0714 1957.11 49.9314 Q1957.11 38.7509 1962.62 32.4315 Q1968.17 26.1121 1977.94 26.1121 Z" fill="#000000" fill-rule="evenodd" fill-opacity="1" /><path clip-path="url(#clip540)" d="M 0 0 M2032.87 34.1734 Q2031.61 33.4443 2030.11 33.1202 Q2028.65 32.7556 2026.87 32.7556 Q2020.55 32.7556 2017.15 36.8875 Q2013.79 40.9789 2013.79 48.6757 L2013.79 72.576 L2006.29 72.576 L2006.29 27.2059 L2013.79 27.2059 L2013.79 34.2544 Q2016.14 30.1225 2019.9 28.1376 Q2023.67 26.1121 2029.06 26.1121 Q2029.83 26.1121 2030.76 26.2337 Q2031.69 26.3147 2032.83 26.5172 L2032.87 34.1734 Z" fill="#000000" fill-rule="evenodd" fill-opacity="1" /><polyline clip-path="url(#clip542)" style="stroke:#009af9; stroke-width:4; stroke-opacity:1; fill:none" points="
  324.7,160.256 887.267,625.652 1449.83,1055.25 2293.69,1314.8 
  "/>
<polyline clip-path="url(#clip542)" style="stroke:#e26f46; stroke-width:4; stroke-opacity:1; fill:none" points="
  324.7,231.856 887.267,643.552 1449.83,813.601 2293.69,1377.45 
  "/>
<polyline clip-path="url(#clip542)" style="stroke:#3da44d; stroke-width:4; stroke-opacity:1; fill:none" points="
  324.7,160.256 887.267,563.003 1449.83,894.15 2293.69,1386.4 
  "/>
<path clip-path="url(#clip540)" d="
M1884.87 408.716 L2283.19 408.716 L2283.19 166.796 L1884.87 166.796  Z
  " fill="#ffffff" fill-rule="evenodd" fill-opacity="1"/>
<polyline clip-path="url(#clip540)" style="stroke:#000000; stroke-width:4; stroke-opacity:1; fill:none" points="
  1884.87,408.716 2283.19,408.716 2283.19,166.796 1884.87,166.796 1884.87,408.716 
  "/>
<polyline clip-path="url(#clip540)" style="stroke:#009af9; stroke-width:4; stroke-opacity:1; fill:none" points="
  1908.06,227.276 2047.2,227.276 
  "/>
<path clip-path="url(#clip540)" d="M 0 0 M2085.58 222.611 Q2084.86 222.195 2084 222.01 Q2083.17 221.801 2082.15 221.801 Q2078.54 221.801 2076.6 224.162 Q2074.68 226.5 2074.68 230.898 L2074.68 244.556 L2070.39 244.556 L2070.39 218.63 L2074.68 218.63 L2074.68 222.658 Q2076.02 220.297 2078.17 219.162 Q2080.32 218.005 2083.4 218.005 Q2083.84 218.005 2084.37 218.074 Q2084.91 218.121 2085.56 218.236 L2085.58 222.611 Z" fill="#000000" fill-rule="evenodd" fill-opacity="1" /><path clip-path="url(#clip540)" d="M 0 0 M2090.6 223.028 L2120.28 223.028 L2120.28 226.917 L2090.6 226.917 L2090.6 223.028 M2090.6 232.472 L2120.28 232.472 L2120.28 236.408 L2090.6 236.408 L2090.6 232.472 Z" fill="#000000" fill-rule="evenodd" fill-opacity="1" /><path clip-path="url(#clip540)" d="M 0 0 M2135.35 213.074 Q2131.74 213.074 2129.91 216.639 Q2128.1 220.181 2128.1 227.31 Q2128.1 234.417 2129.91 237.982 Q2131.74 241.523 2135.35 241.523 Q2138.98 241.523 2140.79 237.982 Q2142.62 234.417 2142.62 227.31 Q2142.62 220.181 2140.79 216.639 Q2138.98 213.074 2135.35 213.074 M2135.35 209.371 Q2141.16 209.371 2144.21 213.977 Q2147.29 218.56 2147.29 227.31 Q2147.29 236.037 2144.21 240.644 Q2141.16 245.227 2135.35 245.227 Q2129.54 245.227 2126.46 240.644 Q2123.4 236.037 2123.4 227.31 Q2123.4 218.56 2126.46 213.977 Q2129.54 209.371 2135.35 209.371 Z" fill="#000000" fill-rule="evenodd" fill-opacity="1" /><path clip-path="url(#clip540)" d="M 0 0 M2152.36 238.676 L2157.24 238.676 L2157.24 244.556 L2152.36 244.556 L2152.36 238.676 Z" fill="#000000" fill-rule="evenodd" fill-opacity="1" /><path clip-path="url(#clip540)" d="M 0 0 M2161.13 209.996 L2183.36 209.996 L2183.36 211.986 L2170.81 244.556 L2165.93 244.556 L2177.73 213.931 L2161.13 213.931 L2161.13 209.996 Z" fill="#000000" fill-rule="evenodd" fill-opacity="1" /><path clip-path="url(#clip540)" d="M 0 0 M2198.43 213.074 Q2194.81 213.074 2192.99 216.639 Q2191.18 220.181 2191.18 227.31 Q2191.18 234.417 2192.99 237.982 Q2194.81 241.523 2198.43 241.523 Q2202.06 241.523 2203.86 237.982 Q2205.69 234.417 2205.69 227.31 Q2205.69 220.181 2203.86 216.639 Q2202.06 213.074 2198.43 213.074 M2198.43 209.371 Q2204.24 209.371 2207.29 213.977 Q2210.37 218.56 2210.37 227.31 Q2210.37 236.037 2207.29 240.644 Q2204.24 245.227 2198.43 245.227 Q2192.61 245.227 2189.54 240.644 Q2186.48 236.037 2186.48 227.31 Q2186.48 218.56 2189.54 213.977 Q2192.61 209.371 2198.43 209.371 Z" fill="#000000" fill-rule="evenodd" fill-opacity="1" /><path clip-path="url(#clip540)" d="M 0 0 M2214.26 209.996 L2236.48 209.996 L2236.48 211.986 L2223.93 244.556 L2219.05 244.556 L2230.86 213.931 L2214.26 213.931 L2214.26 209.996 Z" fill="#000000" fill-rule="evenodd" fill-opacity="1" /><polyline clip-path="url(#clip540)" style="stroke:#e26f46; stroke-width:4; stroke-opacity:1; fill:none" points="
  1908.06,287.756 2047.2,287.756 
  "/>
<path clip-path="url(#clip540)" d="M 0 0 M2085.58 283.091 Q2084.86 282.675 2084 282.49 Q2083.17 282.281 2082.15 282.281 Q2078.54 282.281 2076.6 284.642 Q2074.68 286.98 2074.68 291.378 L2074.68 305.036 L2070.39 305.036 L2070.39 279.11 L2074.68 279.11 L2074.68 283.138 Q2076.02 280.777 2078.17 279.642 Q2080.32 278.485 2083.4 278.485 Q2083.84 278.485 2084.37 278.554 Q2084.91 278.601 2085.56 278.716 L2085.58 283.091 Z" fill="#000000" fill-rule="evenodd" fill-opacity="1" /><path clip-path="url(#clip540)" d="M 0 0 M2090.6 283.508 L2120.28 283.508 L2120.28 287.397 L2090.6 287.397 L2090.6 283.508 M2090.6 292.952 L2120.28 292.952 L2120.28 296.888 L2090.6 296.888 L2090.6 292.952 Z" fill="#000000" fill-rule="evenodd" fill-opacity="1" /><path clip-path="url(#clip540)" d="M 0 0 M2126.16 301.101 L2133.8 301.101 L2133.8 274.735 L2125.49 276.402 L2125.49 272.142 L2133.75 270.476 L2138.43 270.476 L2138.43 301.101 L2146.06 301.101 L2146.06 305.036 L2126.16 305.036 L2126.16 301.101 Z" fill="#000000" fill-rule="evenodd" fill-opacity="1" /><path clip-path="url(#clip540)" d="M 0 0 M2151.13 299.156 L2156.02 299.156 L2156.02 305.036 L2151.13 305.036 L2151.13 299.156 Z" fill="#000000" fill-rule="evenodd" fill-opacity="1" /><path clip-path="url(#clip540)" d="M 0 0 M2171.09 273.554 Q2167.48 273.554 2165.65 277.119 Q2163.84 280.661 2163.84 287.79 Q2163.84 294.897 2165.65 298.462 Q2167.48 302.003 2171.09 302.003 Q2174.72 302.003 2176.53 298.462 Q2178.36 294.897 2178.36 287.79 Q2178.36 280.661 2176.53 277.119 Q2174.72 273.554 2171.09 273.554 M2171.09 269.851 Q2176.9 269.851 2179.95 274.457 Q2183.03 279.04 2183.03 287.79 Q2183.03 296.517 2179.95 301.124 Q2176.9 305.707 2171.09 305.707 Q2165.28 305.707 2162.2 301.124 Q2159.14 296.517 2159.14 287.79 Q2159.14 279.04 2162.2 274.457 Q2165.28 269.851 2171.09 269.851 Z" fill="#000000" fill-rule="evenodd" fill-opacity="1" /><polyline clip-path="url(#clip540)" style="stroke:#3da44d; stroke-width:4; stroke-opacity:1; fill:none" points="
  1908.06,348.236 2047.2,348.236 
  "/>
<path clip-path="url(#clip540)" d="M 0 0 M2085.58 343.571 Q2084.86 343.155 2084 342.97 Q2083.17 342.761 2082.15 342.761 Q2078.54 342.761 2076.6 345.122 Q2074.68 347.46 2074.68 351.858 L2074.68 365.516 L2070.39 365.516 L2070.39 339.59 L2074.68 339.59 L2074.68 343.618 Q2076.02 341.257 2078.17 340.122 Q2080.32 338.965 2083.4 338.965 Q2083.84 338.965 2084.37 339.034 Q2084.91 339.081 2085.56 339.196 L2085.58 343.571 Z" fill="#000000" fill-rule="evenodd" fill-opacity="1" /><path clip-path="url(#clip540)" d="M 0 0 M2090.6 343.988 L2120.28 343.988 L2120.28 347.877 L2090.6 347.877 L2090.6 343.988 M2090.6 353.432 L2120.28 353.432 L2120.28 357.368 L2090.6 357.368 L2090.6 353.432 Z" fill="#000000" fill-rule="evenodd" fill-opacity="1" /><path clip-path="url(#clip540)" d="M 0 0 M2126.16 361.581 L2133.8 361.581 L2133.8 335.215 L2125.49 336.882 L2125.49 332.622 L2133.75 330.956 L2138.43 330.956 L2138.43 361.581 L2146.06 361.581 L2146.06 365.516 L2126.16 365.516 L2126.16 361.581 Z" fill="#000000" fill-rule="evenodd" fill-opacity="1" /><path clip-path="url(#clip540)" d="M 0 0 M2151.13 359.636 L2156.02 359.636 L2156.02 365.516 L2151.13 365.516 L2151.13 359.636 Z" fill="#000000" fill-rule="evenodd" fill-opacity="1" /><path clip-path="url(#clip540)" d="M 0 0 M2173.93 335.03 L2162.13 353.479 L2173.93 353.479 L2173.93 335.03 M2172.71 330.956 L2178.59 330.956 L2178.59 353.479 L2183.52 353.479 L2183.52 357.368 L2178.59 357.368 L2178.59 365.516 L2173.93 365.516 L2173.93 357.368 L2158.33 357.368 L2158.33 352.854 L2172.71 330.956 Z" fill="#000000" fill-rule="evenodd" fill-opacity="1" /><path clip-path="url(#clip540)" d="M 0 0 M2189.4 361.581 L2197.04 361.581 L2197.04 335.215 L2188.73 336.882 L2188.73 332.622 L2196.99 330.956 L2201.67 330.956 L2201.67 361.581 L2209.3 361.581 L2209.3 365.516 L2189.4 365.516 L2189.4 361.581 Z" fill="#000000" fill-rule="evenodd" fill-opacity="1" /><path clip-path="url(#clip540)" d="M 0 0 M2227.22 335.03 L2215.42 353.479 L2227.22 353.479 L2227.22 335.03 M2225.99 330.956 L2231.87 330.956 L2231.87 353.479 L2236.8 353.479 L2236.8 357.368 L2231.87 357.368 L2231.87 365.516 L2227.22 365.516 L2227.22 357.368 L2211.62 357.368 L2211.62 352.854 L2225.99 330.956 Z" fill="#000000" fill-rule="evenodd" fill-opacity="1" /></svg>
