<?xml version="1.0" encoding="utf-8"?>
<svg xmlns="http://www.w3.org/2000/svg" xmlns:xlink="http://www.w3.org/1999/xlink" width="600" height="400" viewBox="0 0 2400 1600">
<defs>
  <clipPath id="clip140">
    <rect x="0" y="0" width="2400" height="1600"/>
  </clipPath>
</defs>
<path clip-path="url(#clip140)" d="
M0 1600 L2400 1600 L2400 0 L0 0  Z
  " fill="#ffffff" fill-rule="evenodd" fill-opacity="1"/>
<defs>
  <clipPath id="clip141">
    <rect x="480" y="0" width="1681" height="1600"/>
  </clipPath>
</defs>
<path clip-path="url(#clip140)" d="
M226.232 1423.18 L2352.76 1423.18 L2352.76 47.2441 L226.232 47.2441  Z
  " fill="#ffffff" fill-rule="evenodd" fill-opacity="1"/>
<defs>
  <clipPath id="clip142">
    <rect x="226" y="47" width="2128" height="1377"/>
  </clipPath>
</defs>
<polyline clip-path="url(#clip142)" style="stroke:#000000; stroke-width:2; stroke-opacity:0.1; fill:none" points="
  573.01,1423.18 573.01,47.2441 
  "/>
<polyline clip-path="url(#clip142)" style="stroke:#000000; stroke-width:2; stroke-opacity:0.1; fill:none" points="
  1146.2,1423.18 1146.2,47.2441 
  "/>
<polyline clip-path="url(#clip142)" style="stroke:#000000; stroke-width:2; stroke-opacity:0.1; fill:none" points="
  1719.38,1423.18 1719.38,47.2441 
  "/>
<polyline clip-path="url(#clip142)" style="stroke:#000000; stroke-width:2; stroke-opacity:0.1; fill:none" points="
  2292.57,1423.18 2292.57,47.2441 
  "/>
<polyline clip-path="url(#clip140)" style="stroke:#000000; stroke-width:4; stroke-opacity:1; fill:none" points="
  226.232,1423.18 2352.76,1423.18 
  "/>
<polyline clip-path="url(#clip140)" style="stroke:#000000; stroke-width:4; stroke-opacity:1; fill:none" points="
  573.01,1423.18 573.01,1406.67 
  "/>
<polyline clip-path="url(#clip140)" style="stroke:#000000; stroke-width:4; stroke-opacity:1; fill:none" points="
  1146.2,1423.18 1146.2,1406.67 
  "/>
<polyline clip-path="url(#clip140)" style="stroke:#000000; stroke-width:4; stroke-opacity:1; fill:none" points="
  1719.38,1423.18 1719.38,1406.67 
  "/>
<polyline clip-path="url(#clip140)" style="stroke:#000000; stroke-width:4; stroke-opacity:1; fill:none" points="
  2292.57,1423.18 2292.57,1406.67 
  "/>
<path clip-path="url(#clip140)" d="M 0 0 M576.019 1453.37 L564.214 1471.81 L576.019 1471.81 L576.019 1453.37 M574.793 1449.29 L580.672 1449.29 L580.672 1471.81 L585.603 1471.81 L585.603 1475.7 L580.672 1475.7 L580.672 1483.85 L576.019 1483.85 L576.019 1475.7 L560.418 1475.7 L560.418 1471.19 L574.793 1449.29 Z" fill="#000000" fill-rule="evenodd" fill-opacity="1" /><path clip-path="url(#clip140)" d="M 0 0 M1146.6 1464.71 Q1143.45 1464.71 1141.6 1466.86 Q1139.77 1469.01 1139.77 1472.76 Q1139.77 1476.49 1141.6 1478.67 Q1143.45 1480.82 1146.6 1480.82 Q1149.75 1480.82 1151.58 1478.67 Q1153.43 1476.49 1153.43 1472.76 Q1153.43 1469.01 1151.58 1466.86 Q1149.75 1464.71 1146.6 1464.71 M1155.88 1450.06 L1155.88 1454.31 Q1154.13 1453.48 1152.32 1453.04 Q1150.54 1452.6 1148.78 1452.6 Q1144.15 1452.6 1141.69 1455.73 Q1139.26 1458.85 1138.92 1465.17 Q1140.28 1463.16 1142.34 1462.09 Q1144.4 1461 1146.88 1461 Q1152.09 1461 1155.1 1464.18 Q1158.13 1467.32 1158.13 1472.76 Q1158.13 1478.09 1154.98 1481.31 Q1151.83 1484.52 1146.6 1484.52 Q1140.61 1484.52 1137.44 1479.94 Q1134.26 1475.33 1134.26 1466.61 Q1134.26 1458.41 1138.15 1453.55 Q1142.04 1448.67 1148.59 1448.67 Q1150.35 1448.67 1152.13 1449.01 Q1153.94 1449.36 1155.88 1450.06 Z" fill="#000000" fill-rule="evenodd" fill-opacity="1" /><path clip-path="url(#clip140)" d="M 0 0 M1719.38 1467.44 Q1716.05 1467.44 1714.13 1469.22 Q1712.23 1471 1712.23 1474.13 Q1712.23 1477.25 1714.13 1479.04 Q1716.05 1480.82 1719.38 1480.82 Q1722.72 1480.82 1724.64 1479.04 Q1726.56 1477.23 1726.56 1474.13 Q1726.56 1471 1724.64 1469.22 Q1722.74 1467.44 1719.38 1467.44 M1714.71 1465.45 Q1711.7 1464.71 1710.01 1462.65 Q1708.34 1460.59 1708.34 1457.63 Q1708.34 1453.48 1711.28 1451.07 Q1714.25 1448.67 1719.38 1448.67 Q1724.55 1448.67 1727.49 1451.07 Q1730.43 1453.48 1730.43 1457.63 Q1730.43 1460.59 1728.74 1462.65 Q1727.07 1464.71 1724.08 1465.45 Q1727.46 1466.24 1729.34 1468.53 Q1731.24 1470.82 1731.24 1474.13 Q1731.24 1479.15 1728.16 1481.84 Q1725.1 1484.52 1719.38 1484.52 Q1713.67 1484.52 1710.59 1481.84 Q1707.53 1479.15 1707.53 1474.13 Q1707.53 1470.82 1709.43 1468.53 Q1711.33 1466.24 1714.71 1465.45 M1713 1458.06 Q1713 1460.75 1714.66 1462.25 Q1716.35 1463.76 1719.38 1463.76 Q1722.39 1463.76 1724.08 1462.25 Q1725.8 1460.75 1725.8 1458.06 Q1725.8 1455.38 1724.08 1453.88 Q1722.39 1452.37 1719.38 1452.37 Q1716.35 1452.37 1714.66 1453.88 Q1713 1455.38 1713 1458.06 Z" fill="#000000" fill-rule="evenodd" fill-opacity="1" /><path clip-path="url(#clip140)" d="M 0 0 M2269.45 1479.92 L2277.09 1479.92 L2277.09 1453.55 L2268.78 1455.22 L2268.78 1450.96 L2277.04 1449.29 L2281.71 1449.29 L2281.71 1479.92 L2289.35 1479.92 L2289.35 1483.85 L2269.45 1483.85 L2269.45 1479.92 Z" fill="#000000" fill-rule="evenodd" fill-opacity="1" /><path clip-path="url(#clip140)" d="M 0 0 M2304.42 1452.37 Q2300.81 1452.37 2298.98 1455.94 Q2297.18 1459.48 2297.18 1466.61 Q2297.18 1473.71 2298.98 1477.28 Q2300.81 1480.82 2304.42 1480.82 Q2308.06 1480.82 2309.86 1477.28 Q2311.69 1473.71 2311.69 1466.61 Q2311.69 1459.48 2309.86 1455.94 Q2308.06 1452.37 2304.42 1452.37 M2304.42 1448.67 Q2310.23 1448.67 2313.29 1453.27 Q2316.37 1457.86 2316.37 1466.61 Q2316.37 1475.33 2313.29 1479.94 Q2310.23 1484.52 2304.42 1484.52 Q2298.61 1484.52 2295.53 1479.94 Q2292.48 1475.33 2292.48 1466.61 Q2292.48 1457.86 2295.53 1453.27 Q2298.61 1448.67 2304.42 1448.67 Z" fill="#000000" fill-rule="evenodd" fill-opacity="1" /><path clip-path="url(#clip140)" d="M 0 0 M939.539 1545.35 L939.539 1562.76 L949.852 1562.76 Q955.04 1562.76 957.522 1560.63 Q960.037 1558.46 960.037 1554.04 Q960.037 1549.58 957.522 1547.48 Q955.04 1545.35 949.852 1545.35 L939.539 1545.35 M939.539 1525.81 L939.539 1540.13 L949.056 1540.13 Q953.767 1540.13 956.058 1538.38 Q958.382 1536.6 958.382 1532.97 Q958.382 1529.37 956.058 1527.59 Q953.767 1525.81 949.056 1525.81 L939.539 1525.81 M933.11 1520.52 L949.533 1520.52 Q956.886 1520.52 960.864 1523.58 Q964.843 1526.63 964.843 1532.27 Q964.843 1536.63 962.806 1539.21 Q960.769 1541.79 956.822 1542.42 Q961.565 1543.44 964.175 1546.69 Q966.816 1549.9 966.816 1554.74 Q966.816 1561.11 962.488 1564.57 Q958.159 1568.04 950.17 1568.04 L933.11 1568.04 L933.11 1520.52 Z" fill="#000000" fill-rule="evenodd" fill-opacity="1" /><path clip-path="url(#clip140)" d="M 0 0 M989.16 1550.12 Q982.062 1550.12 979.325 1551.75 Q976.588 1553.37 976.588 1557.29 Q976.588 1560.4 978.625 1562.25 Q980.694 1564.07 984.226 1564.07 Q989.096 1564.07 992.024 1560.63 Q994.985 1557.16 994.985 1551.43 L994.985 1550.12 L989.16 1550.12 M1000.84 1547.71 L1000.84 1568.04 L994.985 1568.04 L994.985 1562.63 Q992.979 1565.88 989.987 1567.44 Q986.996 1568.97 982.667 1568.97 Q977.192 1568.97 973.946 1565.91 Q970.731 1562.82 970.731 1557.67 Q970.731 1551.65 974.742 1548.6 Q978.784 1545.54 986.773 1545.54 L994.985 1545.54 L994.985 1544.97 Q994.985 1540.93 992.311 1538.73 Q989.669 1536.5 984.863 1536.5 Q981.808 1536.5 978.911 1537.23 Q976.015 1537.97 973.341 1539.43 L973.341 1534.02 Q976.556 1532.78 979.58 1532.17 Q982.603 1531.54 985.468 1531.54 Q993.202 1531.54 997.022 1535.55 Q1000.84 1539.56 1000.84 1547.71 Z" fill="#000000" fill-rule="evenodd" fill-opacity="1" /><path clip-path="url(#clip140)" d="M 0 0 M1021.82 1571.35 Q1019.33 1577.72 1016.98 1579.66 Q1014.62 1581.6 1010.68 1581.6 L1006 1581.6 L1006 1576.7 L1009.43 1576.7 Q1011.85 1576.7 1013.19 1575.56 Q1014.53 1574.41 1016.15 1570.14 L1017.2 1567.47 L1002.78 1532.4 L1008.99 1532.4 L1020.13 1560.28 L1031.27 1532.4 L1037.48 1532.4 L1021.82 1571.35 Z" fill="#000000" fill-rule="evenodd" fill-opacity="1" /><path clip-path="url(#clip140)" d="M 0 0 M1074.11 1548.76 L1074.11 1551.62 L1047.18 1551.62 Q1047.57 1557.67 1050.81 1560.85 Q1054.09 1564 1059.91 1564 Q1063.29 1564 1066.44 1563.17 Q1069.62 1562.35 1072.74 1560.69 L1072.74 1566.23 Q1069.59 1567.57 1066.28 1568.27 Q1062.97 1568.97 1059.56 1568.97 Q1051.03 1568.97 1046.04 1564 Q1041.07 1559.04 1041.07 1550.57 Q1041.07 1541.82 1045.78 1536.69 Q1050.53 1531.54 1058.55 1531.54 Q1065.74 1531.54 1069.91 1536.18 Q1074.11 1540.8 1074.11 1548.76 M1068.25 1547.04 Q1068.19 1542.23 1065.55 1539.37 Q1062.94 1536.5 1058.61 1536.5 Q1053.71 1536.5 1050.75 1539.27 Q1047.82 1542.04 1047.37 1547.07 L1068.25 1547.04 Z" fill="#000000" fill-rule="evenodd" fill-opacity="1" /><path clip-path="url(#clip140)" d="M 0 0 M1102.98 1533.45 L1102.98 1538.98 Q1100.5 1537.71 1097.82 1537.07 Q1095.15 1536.44 1092.28 1536.44 Q1087.92 1536.44 1085.73 1537.77 Q1083.56 1539.11 1083.56 1541.79 Q1083.56 1543.82 1085.12 1545 Q1086.68 1546.15 1091.39 1547.2 L1093.4 1547.64 Q1099.64 1548.98 1102.25 1551.43 Q1104.89 1553.85 1104.89 1558.21 Q1104.89 1563.17 1100.94 1566.07 Q1097.03 1568.97 1090.15 1568.97 Q1087.29 1568.97 1084.17 1568.39 Q1081.08 1567.85 1077.64 1566.74 L1077.64 1560.69 Q1080.89 1562.38 1084.04 1563.24 Q1087.19 1564.07 1090.28 1564.07 Q1094.42 1564.07 1096.64 1562.66 Q1098.87 1561.23 1098.87 1558.65 Q1098.87 1556.27 1097.25 1554.99 Q1095.66 1553.72 1090.22 1552.54 L1088.18 1552.07 Q1082.74 1550.92 1080.32 1548.56 Q1077.9 1546.18 1077.9 1542.04 Q1077.9 1537.01 1081.46 1534.27 Q1085.03 1531.54 1091.58 1531.54 Q1094.83 1531.54 1097.7 1532.01 Q1100.56 1532.49 1102.98 1533.45 Z" fill="#000000" fill-rule="evenodd" fill-opacity="1" /><path clip-path="url(#clip140)" d="M 0 0 M1132.01 1520.52 L1159.32 1520.52 L1159.32 1525.93 L1138.44 1525.93 L1138.44 1539.94 L1157.28 1539.94 L1157.28 1545.35 L1138.44 1545.35 L1138.44 1568.04 L1132.01 1568.04 L1132.01 1520.52 Z" fill="#000000" fill-rule="evenodd" fill-opacity="1" /><path clip-path="url(#clip140)" d="M 0 0 M1175.68 1550.12 Q1168.58 1550.12 1165.84 1551.75 Q1163.1 1553.37 1163.1 1557.29 Q1163.1 1560.4 1165.14 1562.25 Q1167.21 1564.07 1170.74 1564.07 Q1175.61 1564.07 1178.54 1560.63 Q1181.5 1557.16 1181.5 1551.43 L1181.5 1550.12 L1175.68 1550.12 M1187.36 1547.71 L1187.36 1568.04 L1181.5 1568.04 L1181.5 1562.63 Q1179.49 1565.88 1176.5 1567.44 Q1173.51 1568.97 1169.18 1568.97 Q1163.71 1568.97 1160.46 1565.91 Q1157.25 1562.82 1157.25 1557.67 Q1157.25 1551.65 1161.26 1548.6 Q1165.3 1545.54 1173.29 1545.54 L1181.5 1545.54 L1181.5 1544.97 Q1181.5 1540.93 1178.83 1538.73 Q1176.18 1536.5 1171.38 1536.5 Q1168.32 1536.5 1165.43 1537.23 Q1162.53 1537.97 1159.86 1539.43 L1159.86 1534.02 Q1163.07 1532.78 1166.09 1532.17 Q1169.12 1531.54 1171.98 1531.54 Q1179.72 1531.54 1183.54 1535.55 Q1187.36 1539.56 1187.36 1547.71 Z" fill="#000000" fill-rule="evenodd" fill-opacity="1" /><path clip-path="url(#clip140)" d="M 0 0 M1219.15 1533.76 L1219.15 1539.24 Q1216.67 1537.87 1214.16 1537.2 Q1211.67 1536.5 1209.13 1536.5 Q1203.43 1536.5 1200.28 1540.13 Q1197.13 1543.73 1197.13 1550.25 Q1197.13 1556.78 1200.28 1560.4 Q1203.43 1564 1209.13 1564 Q1211.67 1564 1214.16 1563.33 Q1216.67 1562.63 1219.15 1561.26 L1219.15 1566.68 Q1216.7 1567.82 1214.06 1568.39 Q1211.45 1568.97 1208.49 1568.97 Q1200.44 1568.97 1195.7 1563.91 Q1190.95 1558.85 1190.95 1550.25 Q1190.95 1541.53 1195.73 1536.53 Q1200.53 1531.54 1208.87 1531.54 Q1211.58 1531.54 1214.16 1532.11 Q1216.73 1532.65 1219.15 1533.76 Z" fill="#000000" fill-rule="evenodd" fill-opacity="1" /><path clip-path="url(#clip140)" d="M 0 0 M1231.09 1522.27 L1231.09 1532.4 L1243.15 1532.4 L1243.15 1536.95 L1231.09 1536.95 L1231.09 1556.3 Q1231.09 1560.66 1232.27 1561.9 Q1233.48 1563.14 1237.14 1563.14 L1243.15 1563.14 L1243.15 1568.04 L1237.14 1568.04 Q1230.36 1568.04 1227.78 1565.53 Q1225.2 1562.98 1225.2 1556.3 L1225.2 1536.95 L1220.9 1536.95 L1220.9 1532.4 L1225.2 1532.4 L1225.2 1522.27 L1231.09 1522.27 Z" fill="#000000" fill-rule="evenodd" fill-opacity="1" /><path clip-path="url(#clip140)" d="M 0 0 M1263.11 1536.5 Q1258.4 1536.5 1255.66 1540.19 Q1252.92 1543.85 1252.92 1550.25 Q1252.92 1556.65 1255.63 1560.34 Q1258.37 1564 1263.11 1564 Q1267.79 1564 1270.52 1560.31 Q1273.26 1556.62 1273.26 1550.25 Q1273.26 1543.92 1270.52 1540.23 Q1267.79 1536.5 1263.11 1536.5 M1263.11 1531.54 Q1270.75 1531.54 1275.11 1536.5 Q1279.47 1541.47 1279.47 1550.25 Q1279.47 1559 1275.11 1564 Q1270.75 1568.97 1263.11 1568.97 Q1255.44 1568.97 1251.08 1564 Q1246.75 1559 1246.75 1550.25 Q1246.75 1541.47 1251.08 1536.5 Q1255.44 1531.54 1263.11 1531.54 Z" fill="#000000" fill-rule="evenodd" fill-opacity="1" /><path clip-path="url(#clip140)" d="M 0 0 M1306.27 1537.87 Q1305.28 1537.3 1304.1 1537.04 Q1302.96 1536.76 1301.56 1536.76 Q1296.59 1536.76 1293.92 1540 Q1291.28 1543.22 1291.28 1549.27 L1291.28 1568.04 L1285.39 1568.04 L1285.39 1532.4 L1291.28 1532.4 L1291.28 1537.93 Q1293.12 1534.69 1296.08 1533.13 Q1299.04 1531.54 1303.28 1531.54 Q1303.88 1531.54 1304.61 1531.63 Q1305.34 1531.7 1306.24 1531.85 L1306.27 1537.87 Z" fill="#000000" fill-rule="evenodd" fill-opacity="1" /><path clip-path="url(#clip140)" d="M 0 0 M1326.8 1520.52 L1367 1520.52 L1367 1525.93 L1350.13 1525.93 L1350.13 1568.04 L1343.67 1568.04 L1343.67 1525.93 L1326.8 1525.93 L1326.8 1520.52 Z" fill="#000000" fill-rule="evenodd" fill-opacity="1" /><path clip-path="url(#clip140)" d="M 0 0 M1402.77 1546.53 L1402.77 1568.04 L1396.92 1568.04 L1396.92 1546.72 Q1396.92 1541.66 1394.94 1539.14 Q1392.97 1536.63 1389.02 1536.63 Q1384.28 1536.63 1381.54 1539.65 Q1378.8 1542.68 1378.8 1547.9 L1378.8 1568.04 L1372.92 1568.04 L1372.92 1518.52 L1378.8 1518.52 L1378.8 1537.93 Q1380.91 1534.72 1383.74 1533.13 Q1386.6 1531.54 1390.33 1531.54 Q1396.47 1531.54 1399.62 1535.36 Q1402.77 1539.14 1402.77 1546.53 Z" fill="#000000" fill-rule="evenodd" fill-opacity="1" /><path clip-path="url(#clip140)" d="M 0 0 M1429.57 1537.87 Q1428.58 1537.3 1427.41 1537.04 Q1426.26 1536.76 1424.86 1536.76 Q1419.9 1536.76 1417.22 1540 Q1414.58 1543.22 1414.58 1549.27 L1414.58 1568.04 L1408.69 1568.04 L1408.69 1532.4 L1414.58 1532.4 L1414.58 1537.93 Q1416.43 1534.69 1419.39 1533.13 Q1422.35 1531.54 1426.58 1531.54 Q1427.18 1531.54 1427.92 1531.63 Q1428.65 1531.7 1429.54 1531.85 L1429.57 1537.87 Z" fill="#000000" fill-rule="evenodd" fill-opacity="1" /><path clip-path="url(#clip140)" d="M 0 0 M1464.77 1548.76 L1464.77 1551.62 L1437.85 1551.62 Q1438.23 1557.67 1441.48 1560.85 Q1444.75 1564 1450.58 1564 Q1453.95 1564 1457.1 1563.17 Q1460.29 1562.35 1463.41 1560.69 L1463.41 1566.23 Q1460.25 1567.57 1456.94 1568.27 Q1453.63 1568.97 1450.23 1568.97 Q1441.7 1568.97 1436.7 1564 Q1431.74 1559.04 1431.74 1550.57 Q1431.74 1541.82 1436.45 1536.69 Q1441.19 1531.54 1449.21 1531.54 Q1456.4 1531.54 1460.57 1536.18 Q1464.77 1540.8 1464.77 1548.76 M1458.92 1547.04 Q1458.85 1542.23 1456.21 1539.37 Q1453.6 1536.5 1449.27 1536.5 Q1444.37 1536.5 1441.41 1539.27 Q1438.48 1542.04 1438.04 1547.07 L1458.92 1547.04 Z" fill="#000000" fill-rule="evenodd" fill-opacity="1" /><path clip-path="url(#clip140)" d="M 0 0 M1493.64 1533.45 L1493.64 1538.98 Q1491.16 1537.71 1488.49 1537.07 Q1485.81 1536.44 1482.95 1536.44 Q1478.59 1536.44 1476.39 1537.77 Q1474.23 1539.11 1474.23 1541.79 Q1474.23 1543.82 1475.79 1545 Q1477.35 1546.15 1482.06 1547.2 L1484.06 1547.64 Q1490.3 1548.98 1492.91 1551.43 Q1495.55 1553.85 1495.55 1558.21 Q1495.55 1563.17 1491.61 1566.07 Q1487.69 1568.97 1480.82 1568.97 Q1477.95 1568.97 1474.83 1568.39 Q1471.74 1567.85 1468.31 1566.74 L1468.31 1560.69 Q1471.55 1562.38 1474.7 1563.24 Q1477.86 1564.07 1480.94 1564.07 Q1485.08 1564.07 1487.31 1562.66 Q1489.54 1561.23 1489.54 1558.65 Q1489.54 1556.27 1487.91 1554.99 Q1486.32 1553.72 1480.88 1552.54 L1478.84 1552.07 Q1473.4 1550.92 1470.98 1548.56 Q1468.56 1546.18 1468.56 1542.04 Q1468.56 1537.01 1472.13 1534.27 Q1475.69 1531.54 1482.25 1531.54 Q1485.49 1531.54 1488.36 1532.01 Q1491.22 1532.49 1493.64 1533.45 Z" fill="#000000" fill-rule="evenodd" fill-opacity="1" /><path clip-path="url(#clip140)" d="M 0 0 M1531.33 1546.53 L1531.33 1568.04 L1525.47 1568.04 L1525.47 1546.72 Q1525.47 1541.66 1523.5 1539.14 Q1521.52 1536.63 1517.58 1536.63 Q1512.83 1536.63 1510.1 1539.65 Q1507.36 1542.68 1507.36 1547.9 L1507.36 1568.04 L1501.47 1568.04 L1501.47 1518.52 L1507.36 1518.52 L1507.36 1537.93 Q1509.46 1534.72 1512.29 1533.13 Q1515.16 1531.54 1518.88 1531.54 Q1525.03 1531.54 1528.18 1535.36 Q1531.33 1539.14 1531.33 1546.53 Z" fill="#000000" fill-rule="evenodd" fill-opacity="1" /><path clip-path="url(#clip140)" d="M 0 0 M1551.28 1536.5 Q1546.57 1536.5 1543.84 1540.19 Q1541.1 1543.85 1541.1 1550.25 Q1541.1 1556.65 1543.8 1560.34 Q1546.54 1564 1551.28 1564 Q1555.96 1564 1558.7 1560.31 Q1561.44 1556.62 1561.44 1550.25 Q1561.44 1543.92 1558.7 1540.23 Q1555.96 1536.5 1551.28 1536.5 M1551.28 1531.54 Q1558.92 1531.54 1563.28 1536.5 Q1567.64 1541.47 1567.64 1550.25 Q1567.64 1559 1563.28 1564 Q1558.92 1568.97 1551.28 1568.97 Q1543.61 1568.97 1539.25 1564 Q1534.92 1559 1534.92 1550.25 Q1534.92 1541.47 1539.25 1536.5 Q1543.61 1531.54 1551.28 1531.54 Z" fill="#000000" fill-rule="evenodd" fill-opacity="1" /><path clip-path="url(#clip140)" d="M 0 0 M1573.79 1518.52 L1579.64 1518.52 L1579.64 1568.04 L1573.79 1568.04 L1573.79 1518.52 Z" fill="#000000" fill-rule="evenodd" fill-opacity="1" /><path clip-path="url(#clip140)" d="M 0 0 M1609.24 1537.81 L1609.24 1518.52 L1615.1 1518.52 L1615.1 1568.04 L1609.24 1568.04 L1609.24 1562.7 Q1607.4 1565.88 1604.56 1567.44 Q1601.76 1568.97 1597.82 1568.97 Q1591.36 1568.97 1587.28 1563.81 Q1583.24 1558.65 1583.24 1550.25 Q1583.24 1541.85 1587.28 1536.69 Q1591.36 1531.54 1597.82 1531.54 Q1601.76 1531.54 1604.56 1533.1 Q1607.4 1534.62 1609.24 1537.81 M1589.29 1550.25 Q1589.29 1556.71 1591.93 1560.4 Q1594.6 1564.07 1599.25 1564.07 Q1603.9 1564.07 1606.57 1560.4 Q1609.24 1556.71 1609.24 1550.25 Q1609.24 1543.79 1606.57 1540.13 Q1603.9 1536.44 1599.25 1536.44 Q1594.6 1536.44 1591.93 1540.13 Q1589.29 1543.79 1589.29 1550.25 Z" fill="#000000" fill-rule="evenodd" fill-opacity="1" /><path clip-path="url(#clip140)" d="M 0 0 M1643.97 1533.45 L1643.97 1538.98 Q1641.49 1537.71 1638.81 1537.07 Q1636.14 1536.44 1633.27 1536.44 Q1628.91 1536.44 1626.72 1537.77 Q1624.55 1539.11 1624.55 1541.79 Q1624.55 1543.82 1626.11 1545 Q1627.67 1546.15 1632.38 1547.2 L1634.39 1547.64 Q1640.63 1548.98 1643.24 1551.43 Q1645.88 1553.85 1645.88 1558.21 Q1645.88 1563.17 1641.93 1566.07 Q1638.02 1568.97 1631.14 1568.97 Q1628.28 1568.97 1625.16 1568.39 Q1622.07 1567.85 1618.63 1566.74 L1618.63 1560.69 Q1621.88 1562.38 1625.03 1563.24 Q1628.18 1564.07 1631.27 1564.07 Q1635.41 1564.07 1637.63 1562.66 Q1639.86 1561.23 1639.86 1558.65 Q1639.86 1556.27 1638.24 1554.99 Q1636.65 1553.72 1631.21 1552.54 L1629.17 1552.07 Q1623.73 1550.92 1621.31 1548.56 Q1618.89 1546.18 1618.89 1542.04 Q1618.89 1537.01 1622.45 1534.27 Q1626.02 1531.54 1632.57 1531.54 Q1635.82 1531.54 1638.68 1532.01 Q1641.55 1532.49 1643.97 1533.45 Z" fill="#000000" fill-rule="evenodd" fill-opacity="1" /><polyline clip-path="url(#clip142)" style="stroke:#000000; stroke-width:2; stroke-opacity:0.1; fill:none" points="
  226.232,1240.3 2352.76,1240.3 
  "/>
<polyline clip-path="url(#clip142)" style="stroke:#000000; stroke-width:2; stroke-opacity:0.1; fill:none" points="
  226.232,983.256 2352.76,983.256 
  "/>
<polyline clip-path="url(#clip142)" style="stroke:#000000; stroke-width:2; stroke-opacity:0.1; fill:none" points="
  226.232,726.216 2352.76,726.216 
  "/>
<polyline clip-path="url(#clip142)" style="stroke:#000000; stroke-width:2; stroke-opacity:0.1; fill:none" points="
  226.232,469.175 2352.76,469.175 
  "/>
<polyline clip-path="url(#clip142)" style="stroke:#000000; stroke-width:2; stroke-opacity:0.1; fill:none" points="
  226.232,212.135 2352.76,212.135 
  "/>
<polyline clip-path="url(#clip140)" style="stroke:#000000; stroke-width:4; stroke-opacity:1; fill:none" points="
  226.232,1423.18 226.232,47.2441 
  "/>
<polyline clip-path="url(#clip140)" style="stroke:#000000; stroke-width:4; stroke-opacity:1; fill:none" points="
  226.232,1240.3 251.75,1240.3 
  "/>
<polyline clip-path="url(#clip140)" style="stroke:#000000; stroke-width:4; stroke-opacity:1; fill:none" points="
  226.232,983.256 251.75,983.256 
  "/>
<polyline clip-path="url(#clip140)" style="stroke:#000000; stroke-width:4; stroke-opacity:1; fill:none" points="
  226.232,726.216 251.75,726.216 
  "/>
<polyline clip-path="url(#clip140)" style="stroke:#000000; stroke-width:4; stroke-opacity:1; fill:none" points="
  226.232,469.175 251.75,469.175 
  "/>
<polyline clip-path="url(#clip140)" style="stroke:#000000; stroke-width:4; stroke-opacity:1; fill:none" points="
  226.232,212.135 251.75,212.135 
  "/>
<path clip-path="url(#clip140)" d="M 0 0 M142.316 1223.02 L160.672 1223.02 L160.672 1226.95 L146.598 1226.95 L146.598 1235.42 Q147.616 1235.08 148.635 1234.91 Q149.653 1234.73 150.672 1234.73 Q156.459 1234.73 159.839 1237.9 Q163.218 1241.07 163.218 1246.49 Q163.218 1252.07 159.746 1255.17 Q156.274 1258.25 149.954 1258.25 Q147.778 1258.25 145.51 1257.88 Q143.265 1257.51 140.857 1256.77 L140.857 1252.07 Q142.941 1253.2 145.163 1253.76 Q147.385 1254.31 149.862 1254.31 Q153.866 1254.31 156.204 1252.21 Q158.542 1250.1 158.542 1246.49 Q158.542 1242.88 156.204 1240.77 Q153.866 1238.66 149.862 1238.66 Q147.987 1238.66 146.112 1239.08 Q144.26 1239.5 142.316 1240.38 L142.316 1223.02 Z" fill="#000000" fill-rule="evenodd" fill-opacity="1" /><path clip-path="url(#clip140)" d="M 0 0 M178.288 1226.09 Q174.677 1226.09 172.848 1229.66 Q171.042 1233.2 171.042 1240.33 Q171.042 1247.44 172.848 1251 Q174.677 1254.54 178.288 1254.54 Q181.922 1254.54 183.727 1251 Q185.556 1247.44 185.556 1240.33 Q185.556 1233.2 183.727 1229.66 Q181.922 1226.09 178.288 1226.09 M178.288 1222.39 Q184.098 1222.39 187.153 1227 Q190.232 1231.58 190.232 1240.33 Q190.232 1249.06 187.153 1253.66 Q184.098 1258.25 178.288 1258.25 Q172.477 1258.25 169.399 1253.66 Q166.343 1249.06 166.343 1240.33 Q166.343 1231.58 169.399 1227 Q172.477 1222.39 178.288 1222.39 Z" fill="#000000" fill-rule="evenodd" fill-opacity="1" /><path clip-path="url(#clip140)" d="M 0 0 M116.297 996.601 L123.936 996.601 L123.936 970.235 L115.626 971.902 L115.626 967.642 L123.89 965.976 L128.566 965.976 L128.566 996.601 L136.204 996.601 L136.204 1000.54 L116.297 1000.54 L116.297 996.601 Z" fill="#000000" fill-rule="evenodd" fill-opacity="1" /><path clip-path="url(#clip140)" d="M 0 0 M151.274 969.054 Q147.663 969.054 145.834 972.619 Q144.029 976.161 144.029 983.29 Q144.029 990.397 145.834 993.962 Q147.663 997.503 151.274 997.503 Q154.908 997.503 156.714 993.962 Q158.542 990.397 158.542 983.29 Q158.542 976.161 156.714 972.619 Q154.908 969.054 151.274 969.054 M151.274 965.351 Q157.084 965.351 160.14 969.957 Q163.218 974.54 163.218 983.29 Q163.218 992.017 160.14 996.624 Q157.084 1001.21 151.274 1001.21 Q145.464 1001.21 142.385 996.624 Q139.329 992.017 139.329 983.29 Q139.329 974.54 142.385 969.957 Q145.464 965.351 151.274 965.351 Z" fill="#000000" fill-rule="evenodd" fill-opacity="1" /><path clip-path="url(#clip140)" d="M 0 0 M178.288 969.054 Q174.677 969.054 172.848 972.619 Q171.042 976.161 171.042 983.29 Q171.042 990.397 172.848 993.962 Q174.677 997.503 178.288 997.503 Q181.922 997.503 183.727 993.962 Q185.556 990.397 185.556 983.29 Q185.556 976.161 183.727 972.619 Q181.922 969.054 178.288 969.054 M178.288 965.351 Q184.098 965.351 187.153 969.957 Q190.232 974.54 190.232 983.29 Q190.232 992.017 187.153 996.624 Q184.098 1001.21 178.288 1001.21 Q172.477 1001.21 169.399 996.624 Q166.343 992.017 166.343 983.29 Q166.343 974.54 169.399 969.957 Q172.477 965.351 178.288 965.351 Z" fill="#000000" fill-rule="evenodd" fill-opacity="1" /><path clip-path="url(#clip140)" d="M 0 0 M117.293 739.56 L124.931 739.56 L124.931 713.195 L116.621 714.861 L116.621 710.602 L124.885 708.936 L129.561 708.936 L129.561 739.56 L137.2 739.56 L137.2 743.496 L117.293 743.496 L117.293 739.56 Z" fill="#000000" fill-rule="evenodd" fill-opacity="1" /><path clip-path="url(#clip140)" d="M 0 0 M142.316 708.936 L160.672 708.936 L160.672 712.871 L146.598 712.871 L146.598 721.343 Q147.616 720.996 148.635 720.834 Q149.653 720.648 150.672 720.648 Q156.459 720.648 159.839 723.82 Q163.218 726.991 163.218 732.408 Q163.218 737.986 159.746 741.088 Q156.274 744.167 149.954 744.167 Q147.778 744.167 145.51 743.796 Q143.265 743.426 140.857 742.685 L140.857 737.986 Q142.941 739.121 145.163 739.676 Q147.385 740.232 149.862 740.232 Q153.866 740.232 156.204 738.125 Q158.542 736.019 158.542 732.408 Q158.542 728.797 156.204 726.69 Q153.866 724.584 149.862 724.584 Q147.987 724.584 146.112 725 Q144.26 725.417 142.316 726.297 L142.316 708.936 Z" fill="#000000" fill-rule="evenodd" fill-opacity="1" /><path clip-path="url(#clip140)" d="M 0 0 M178.288 712.014 Q174.677 712.014 172.848 715.579 Q171.042 719.121 171.042 726.25 Q171.042 733.357 172.848 736.922 Q174.677 740.463 178.288 740.463 Q181.922 740.463 183.727 736.922 Q185.556 733.357 185.556 726.25 Q185.556 719.121 183.727 715.579 Q181.922 712.014 178.288 712.014 M178.288 708.311 Q184.098 708.311 187.153 712.917 Q190.232 717.5 190.232 726.25 Q190.232 734.977 187.153 739.584 Q184.098 744.167 178.288 744.167 Q172.477 744.167 169.399 739.584 Q166.343 734.977 166.343 726.25 Q166.343 717.5 169.399 712.917 Q172.477 708.311 178.288 708.311 Z" fill="#000000" fill-rule="evenodd" fill-opacity="1" /><path clip-path="url(#clip140)" d="M 0 0 M119.885 482.52 L136.204 482.52 L136.204 486.455 L114.26 486.455 L114.26 482.52 Q116.922 479.766 121.505 475.136 Q126.112 470.483 127.292 469.141 Q129.538 466.618 130.417 464.881 Q131.32 463.122 131.32 461.432 Q131.32 458.678 129.376 456.942 Q127.455 455.206 124.353 455.206 Q122.154 455.206 119.7 455.969 Q117.269 456.733 114.492 458.284 L114.492 453.562 Q117.316 452.428 119.769 451.849 Q122.223 451.27 124.26 451.27 Q129.63 451.27 132.825 453.956 Q136.019 456.641 136.019 461.132 Q136.019 463.261 135.209 465.182 Q134.422 467.081 132.316 469.673 Q131.737 470.344 128.635 473.562 Q125.533 476.756 119.885 482.52 Z" fill="#000000" fill-rule="evenodd" fill-opacity="1" /><path clip-path="url(#clip140)" d="M 0 0 M151.274 454.974 Q147.663 454.974 145.834 458.539 Q144.029 462.081 144.029 469.21 Q144.029 476.317 145.834 479.881 Q147.663 483.423 151.274 483.423 Q154.908 483.423 156.714 479.881 Q158.542 476.317 158.542 469.21 Q158.542 462.081 156.714 458.539 Q154.908 454.974 151.274 454.974 M151.274 451.27 Q157.084 451.27 160.14 455.877 Q163.218 460.46 163.218 469.21 Q163.218 477.937 160.14 482.543 Q157.084 487.127 151.274 487.127 Q145.464 487.127 142.385 482.543 Q139.329 477.937 139.329 469.21 Q139.329 460.46 142.385 455.877 Q145.464 451.27 151.274 451.27 Z" fill="#000000" fill-rule="evenodd" fill-opacity="1" /><path clip-path="url(#clip140)" d="M 0 0 M178.288 454.974 Q174.677 454.974 172.848 458.539 Q171.042 462.081 171.042 469.21 Q171.042 476.317 172.848 479.881 Q174.677 483.423 178.288 483.423 Q181.922 483.423 183.727 479.881 Q185.556 476.317 185.556 469.21 Q185.556 462.081 183.727 458.539 Q181.922 454.974 178.288 454.974 M178.288 451.27 Q184.098 451.27 187.153 455.877 Q190.232 460.46 190.232 469.21 Q190.232 477.937 187.153 482.543 Q184.098 487.127 178.288 487.127 Q172.477 487.127 169.399 482.543 Q166.343 477.937 166.343 469.21 Q166.343 460.46 169.399 455.877 Q172.477 451.27 178.288 451.27 Z" fill="#000000" fill-rule="evenodd" fill-opacity="1" /><path clip-path="url(#clip140)" d="M 0 0 M120.88 225.48 L137.2 225.48 L137.2 229.415 L115.256 229.415 L115.256 225.48 Q117.918 222.726 122.501 218.096 Q127.107 213.443 128.288 212.101 Q130.533 209.577 131.413 207.841 Q132.316 206.082 132.316 204.392 Q132.316 201.638 130.371 199.902 Q128.45 198.165 125.348 198.165 Q123.149 198.165 120.695 198.929 Q118.265 199.693 115.487 201.244 L115.487 196.522 Q118.311 195.388 120.765 194.809 Q123.218 194.23 125.255 194.23 Q130.626 194.23 133.82 196.916 Q137.015 199.601 137.015 204.091 Q137.015 206.221 136.204 208.142 Q135.417 210.04 133.311 212.633 Q132.732 213.304 129.63 216.522 Q126.529 219.716 120.88 225.48 Z" fill="#000000" fill-rule="evenodd" fill-opacity="1" /><path clip-path="url(#clip140)" d="M 0 0 M142.316 194.855 L160.672 194.855 L160.672 198.79 L146.598 198.79 L146.598 207.263 Q147.616 206.915 148.635 206.753 Q149.653 206.568 150.672 206.568 Q156.459 206.568 159.839 209.74 Q163.218 212.911 163.218 218.327 Q163.218 223.906 159.746 227.008 Q156.274 230.087 149.954 230.087 Q147.778 230.087 145.51 229.716 Q143.265 229.346 140.857 228.605 L140.857 223.906 Q142.941 225.04 145.163 225.596 Q147.385 226.151 149.862 226.151 Q153.866 226.151 156.204 224.045 Q158.542 221.939 158.542 218.327 Q158.542 214.716 156.204 212.61 Q153.866 210.503 149.862 210.503 Q147.987 210.503 146.112 210.92 Q144.26 211.337 142.316 212.216 L142.316 194.855 Z" fill="#000000" fill-rule="evenodd" fill-opacity="1" /><path clip-path="url(#clip140)" d="M 0 0 M178.288 197.934 Q174.677 197.934 172.848 201.499 Q171.042 205.04 171.042 212.17 Q171.042 219.276 172.848 222.841 Q174.677 226.383 178.288 226.383 Q181.922 226.383 183.727 222.841 Q185.556 219.276 185.556 212.17 Q185.556 205.04 183.727 201.499 Q181.922 197.934 178.288 197.934 M178.288 194.23 Q184.098 194.23 187.153 198.837 Q190.232 203.42 190.232 212.17 Q190.232 220.897 187.153 225.503 Q184.098 230.087 178.288 230.087 Q172.477 230.087 169.399 225.503 Q166.343 220.897 166.343 212.17 Q166.343 203.42 169.399 198.837 Q172.477 194.23 178.288 194.23 Z" fill="#000000" fill-rule="evenodd" fill-opacity="1" /><path clip-path="url(#clip140)" d="M 0 0 M22.818 1024.1 L46.4666 1032.82 L46.4666 1015.35 L22.818 1024.1 M16.4842 1027.73 L16.4842 1020.44 L64.0042 1002.33 L64.0042 1009.02 L51.8138 1013.35 L51.8138 1034.77 L64.0042 1039.09 L64.0042 1045.87 L16.4842 1027.73 Z" fill="#000000" fill-rule="evenodd" fill-opacity="1" /><path clip-path="url(#clip140)" d="M 0 0 M28.3562 1004.21 L28.3562 998.004 L58.275 986.864 L28.3562 975.724 L28.3562 969.518 L64.0042 982.886 L64.0042 990.843 L28.3562 1004.21 Z" fill="#000000" fill-rule="evenodd" fill-opacity="1" /><path clip-path="url(#clip140)" d="M 0 0 M44.7161 932.883 L47.5806 932.883 L47.5806 959.81 Q53.6281 959.428 56.8109 956.182 Q59.9619 952.903 59.9619 947.079 Q59.9619 943.705 59.1344 940.554 Q58.3069 937.371 56.6518 934.252 L62.1899 934.252 Q63.5267 937.403 64.227 940.713 Q64.9272 944.023 64.9272 947.429 Q64.9272 955.959 59.9619 960.956 Q54.9967 965.921 46.5303 965.921 Q37.7774 965.921 32.6531 961.21 Q27.4968 956.468 27.4968 948.447 Q27.4968 941.254 32.1438 937.084 Q36.7589 932.883 44.7161 932.883 M42.9973 938.74 Q38.1912 938.803 35.3266 941.445 Q32.4621 944.055 32.4621 948.384 Q32.4621 953.285 35.2312 956.245 Q38.0002 959.173 43.0292 959.619 L42.9973 938.74 Z" fill="#000000" fill-rule="evenodd" fill-opacity="1" /><path clip-path="url(#clip140)" d="M 0 0 M33.8307 906.083 Q33.2578 907.07 33.0032 908.248 Q32.7167 909.394 32.7167 910.794 Q32.7167 915.759 35.9632 918.433 Q39.1779 921.075 45.2253 921.075 L64.0042 921.075 L64.0042 926.963 L28.3562 926.963 L28.3562 921.075 L33.8944 921.075 Q30.6479 919.229 29.0883 916.269 Q27.4968 913.309 27.4968 909.075 Q27.4968 908.471 27.5923 907.739 Q27.656 907.006 27.8151 906.115 L33.8307 906.083 Z" fill="#000000" fill-rule="evenodd" fill-opacity="1" /><path clip-path="url(#clip140)" d="M 0 0 M46.0847 883.74 Q46.0847 890.838 47.7079 893.575 Q49.3312 896.312 53.2461 896.312 Q56.3653 896.312 58.2114 894.275 Q60.0256 892.206 60.0256 888.673 Q60.0256 883.803 56.5881 880.875 Q53.1188 877.915 47.3897 877.915 L46.0847 877.915 L46.0847 883.74 M43.6657 872.059 L64.0042 872.059 L64.0042 877.915 L58.5933 877.915 Q61.8398 879.92 63.3994 882.912 Q64.9272 885.904 64.9272 890.233 Q64.9272 895.707 61.8716 898.954 Q58.7843 902.169 53.6281 902.169 Q47.6125 902.169 44.5569 898.158 Q41.5014 894.116 41.5014 886.127 L41.5014 877.915 L40.9285 877.915 Q36.8862 877.915 34.6901 880.589 Q32.4621 883.231 32.4621 888.037 Q32.4621 891.092 33.1941 893.989 Q33.9262 896.885 35.3903 899.559 L29.9795 899.559 Q28.7381 896.344 28.1334 893.32 Q27.4968 890.296 27.4968 887.432 Q27.4968 879.698 31.5072 875.878 Q35.5176 872.059 43.6657 872.059 Z" fill="#000000" fill-rule="evenodd" fill-opacity="1" /><path clip-path="url(#clip140)" d="M 0 0 M45.7664 842.458 Q39.4007 842.458 35.8996 845.1 Q32.3984 847.71 32.3984 852.452 Q32.3984 857.163 35.8996 859.805 Q39.4007 862.415 45.7664 862.415 Q52.1003 862.415 55.6014 859.805 Q59.1026 857.163 59.1026 852.452 Q59.1026 847.71 55.6014 845.1 Q52.1003 842.458 45.7664 842.458 M59.58 836.602 Q68.683 836.602 73.1071 840.644 Q77.5631 844.686 77.5631 853.025 Q77.5631 856.113 77.0857 858.85 Q76.6401 861.587 75.6852 864.165 L69.9879 864.165 Q71.3884 861.587 72.0568 859.073 Q72.7252 856.558 72.7252 853.948 Q72.7252 848.187 69.7015 845.323 Q66.7096 842.458 60.6303 842.458 L57.7339 842.458 Q60.885 844.272 62.4446 847.105 Q64.0042 849.938 64.0042 853.885 Q64.0042 860.441 59.0071 864.452 Q54.01 868.462 45.7664 868.462 Q37.491 868.462 32.4939 864.452 Q27.4968 860.441 27.4968 853.885 Q27.4968 849.938 29.0564 847.105 Q30.616 844.272 33.7671 842.458 L28.3562 842.458 L28.3562 836.602 L59.58 836.602 Z" fill="#000000" fill-rule="evenodd" fill-opacity="1" /><path clip-path="url(#clip140)" d="M 0 0 M44.7161 799.967 L47.5806 799.967 L47.5806 826.894 Q53.6281 826.512 56.8109 823.266 Q59.9619 819.987 59.9619 814.163 Q59.9619 810.789 59.1344 807.638 Q58.3069 804.455 56.6518 801.336 L62.1899 801.336 Q63.5267 804.487 64.227 807.797 Q64.9272 811.107 64.9272 814.513 Q64.9272 823.043 59.9619 828.04 Q54.9967 833.005 46.5303 833.005 Q37.7774 833.005 32.6531 828.295 Q27.4968 823.552 27.4968 815.531 Q27.4968 808.338 32.1438 804.168 Q36.7589 799.967 44.7161 799.967 M42.9973 805.824 Q38.1912 805.887 35.3266 808.529 Q32.4621 811.139 32.4621 815.468 Q32.4621 820.369 35.2312 823.329 Q38.0002 826.257 43.0292 826.703 L42.9973 805.824 Z" fill="#000000" fill-rule="evenodd" fill-opacity="1" /><path clip-path="url(#clip140)" d="M 0 0 M18.0438 744.363 L24.314 744.363 Q22.5634 748.023 21.704 751.269 Q20.8447 754.516 20.8447 757.54 Q20.8447 762.791 22.8817 765.656 Q24.9187 768.489 28.6745 768.489 Q31.8255 768.489 33.4488 766.611 Q35.0402 764.701 36.0269 759.418 L36.8226 755.534 Q38.1912 748.341 41.6605 744.936 Q45.098 741.498 50.8908 741.498 Q57.7976 741.498 61.3624 746.145 Q64.9272 750.76 64.9272 759.704 Q64.9272 763.078 64.1633 766.897 Q63.3994 770.685 61.9035 774.759 L55.2831 774.759 Q57.4793 770.844 58.5933 767.088 Q59.7073 763.332 59.7073 759.704 Q59.7073 754.198 57.543 751.206 Q55.3786 748.214 51.3682 748.214 Q47.8671 748.214 45.8937 750.378 Q43.9204 752.511 42.9337 757.412 L42.1698 761.327 Q40.7375 768.521 37.682 771.735 Q34.6264 774.95 29.1837 774.95 Q22.8817 774.95 19.2532 770.526 Q15.6248 766.07 15.6248 758.272 Q15.6248 754.93 16.2295 751.46 Q16.8343 747.991 18.0438 744.363 Z" fill="#000000" fill-rule="evenodd" fill-opacity="1" /><path clip-path="url(#clip140)" d="M 0 0 M46.0847 719.154 Q46.0847 726.252 47.7079 728.989 Q49.3312 731.727 53.2461 731.727 Q56.3653 731.727 58.2114 729.69 Q60.0256 727.621 60.0256 724.088 Q60.0256 719.218 56.5881 716.29 Q53.1188 713.33 47.3897 713.33 L46.0847 713.33 L46.0847 719.154 M43.6657 707.473 L64.0042 707.473 L64.0042 713.33 L58.5933 713.33 Q61.8398 715.335 63.3994 718.327 Q64.9272 721.319 64.9272 725.647 Q64.9272 731.122 61.8716 734.369 Q58.7843 737.583 53.6281 737.583 Q47.6125 737.583 44.5569 733.573 Q41.5014 729.531 41.5014 721.542 L41.5014 713.33 L40.9285 713.33 Q36.8862 713.33 34.6901 716.003 Q32.4621 718.645 32.4621 723.451 Q32.4621 726.507 33.1941 729.403 Q33.9262 732.3 35.3903 734.973 L29.9795 734.973 Q28.7381 731.759 28.1334 728.735 Q27.4968 725.711 27.4968 722.847 Q27.4968 715.112 31.5072 711.293 Q35.5176 707.473 43.6657 707.473 Z" fill="#000000" fill-rule="evenodd" fill-opacity="1" /><path clip-path="url(#clip140)" d="M 0 0 M35.1993 673.576 Q31.2526 671.38 29.3747 668.324 Q27.4968 665.269 27.4968 661.131 Q27.4968 655.561 31.4117 652.537 Q35.2948 649.514 42.4881 649.514 L64.0042 649.514 L64.0042 655.402 L42.679 655.402 Q37.5546 655.402 35.072 657.216 Q32.5894 659.03 32.5894 662.754 Q32.5894 667.306 35.6131 669.948 Q38.6368 672.589 43.8567 672.589 L64.0042 672.589 L64.0042 678.478 L42.679 678.478 Q37.5228 678.478 35.072 680.292 Q32.5894 682.106 32.5894 685.894 Q32.5894 690.381 35.6449 693.023 Q38.6686 695.665 43.8567 695.665 L64.0042 695.665 L64.0042 701.553 L28.3562 701.553 L28.3562 695.665 L33.8944 695.665 Q30.616 693.66 29.0564 690.859 Q27.4968 688.058 27.4968 684.207 Q27.4968 680.324 29.4702 677.618 Q31.4436 674.881 35.1993 673.576 Z" fill="#000000" fill-rule="evenodd" fill-opacity="1" /><path clip-path="url(#clip140)" d="M 0 0 M58.657 637.705 L77.5631 637.705 L77.5631 643.594 L28.3562 643.594 L28.3562 637.705 L33.7671 637.705 Q30.5842 635.859 29.0564 633.058 Q27.4968 630.226 27.4968 626.311 Q27.4968 619.818 32.6531 615.775 Q37.8093 611.701 46.212 611.701 Q54.6147 611.701 59.771 615.775 Q64.9272 619.818 64.9272 626.311 Q64.9272 630.226 63.3994 633.058 Q61.8398 635.859 58.657 637.705 M46.212 617.781 Q39.7508 617.781 36.0905 620.454 Q32.3984 623.096 32.3984 627.743 Q32.3984 632.39 36.0905 635.063 Q39.7508 637.705 46.212 637.705 Q52.6732 637.705 56.3653 635.063 Q60.0256 632.39 60.0256 627.743 Q60.0256 623.096 56.3653 620.454 Q52.6732 617.781 46.212 617.781 Z" fill="#000000" fill-rule="evenodd" fill-opacity="1" /><path clip-path="url(#clip140)" d="M 0 0 M14.479 605.558 L14.479 599.702 L64.0042 599.702 L64.0042 605.558 L14.479 605.558 Z" fill="#000000" fill-rule="evenodd" fill-opacity="1" /><path clip-path="url(#clip140)" d="M 0 0 M44.7161 563.067 L47.5806 563.067 L47.5806 589.994 Q53.6281 589.612 56.8109 586.366 Q59.9619 583.087 59.9619 577.263 Q59.9619 573.889 59.1344 570.738 Q58.3069 567.555 56.6518 564.436 L62.1899 564.436 Q63.5267 567.587 64.227 570.897 Q64.9272 574.207 64.9272 577.613 Q64.9272 586.143 59.9619 591.14 Q54.9967 596.105 46.5303 596.105 Q37.7774 596.105 32.6531 591.395 Q27.4968 586.652 27.4968 578.631 Q27.4968 571.438 32.1438 567.269 Q36.7589 563.067 44.7161 563.067 M42.9973 568.924 Q38.1912 568.987 35.3266 571.629 Q32.4621 574.239 32.4621 578.568 Q32.4621 583.469 35.2312 586.429 Q38.0002 589.358 43.0292 589.803 L42.9973 568.924 Z" fill="#000000" fill-rule="evenodd" fill-opacity="1" /><path clip-path="url(#clip140)" d="M 0 0 M18.0438 507.463 L24.314 507.463 Q22.5634 511.123 21.704 514.37 Q20.8447 517.616 20.8447 520.64 Q20.8447 525.892 22.8817 528.756 Q24.9187 531.589 28.6745 531.589 Q31.8255 531.589 33.4488 529.711 Q35.0402 527.801 36.0269 522.518 L36.8226 518.635 Q38.1912 511.441 41.6605 508.036 Q45.098 504.598 50.8908 504.598 Q57.7976 504.598 61.3624 509.245 Q64.9272 513.86 64.9272 522.804 Q64.9272 526.178 64.1633 529.998 Q63.3994 533.785 61.9035 537.859 L55.2831 537.859 Q57.4793 533.944 58.5933 530.188 Q59.7073 526.433 59.7073 522.804 Q59.7073 517.298 57.543 514.306 Q55.3786 511.314 51.3682 511.314 Q47.8671 511.314 45.8937 513.478 Q43.9204 515.611 42.9337 520.513 L42.1698 524.428 Q40.7375 531.621 37.682 534.835 Q34.6264 538.05 29.1837 538.05 Q22.8817 538.05 19.2532 533.626 Q15.6248 529.17 15.6248 521.372 Q15.6248 518.03 16.2295 514.561 Q16.8343 511.091 18.0438 507.463 Z" fill="#000000" fill-rule="evenodd" fill-opacity="1" /><path clip-path="url(#clip140)" d="M 0 0 M28.3562 498.455 L28.3562 492.599 L64.0042 492.599 L64.0042 498.455 L28.3562 498.455 M14.479 498.455 L14.479 492.599 L21.895 492.599 L21.895 498.455 L14.479 498.455 Z" fill="#000000" fill-rule="evenodd" fill-opacity="1" /><path clip-path="url(#clip140)" d="M 0 0 M28.3562 489.002 L28.3562 461.184 L33.7034 461.184 L59.3254 483.21 L59.3254 461.184 L64.0042 461.184 L64.0042 489.798 L58.657 489.798 L33.035 467.773 L33.035 489.002 L28.3562 489.002 Z" fill="#000000" fill-rule="evenodd" fill-opacity="1" /><path clip-path="url(#clip140)" d="M 0 0 M44.7161 424.55 L47.5806 424.55 L47.5806 451.477 Q53.6281 451.095 56.8109 447.848 Q59.9619 444.57 59.9619 438.745 Q59.9619 435.371 59.1344 432.22 Q58.3069 429.037 56.6518 425.918 L62.1899 425.918 Q63.5267 429.069 64.227 432.379 Q64.9272 435.69 64.9272 439.095 Q64.9272 447.625 59.9619 452.622 Q54.9967 457.588 46.5303 457.588 Q37.7774 457.588 32.6531 452.877 Q27.4968 448.135 27.4968 440.114 Q27.4968 432.92 32.1438 428.751 Q36.7589 424.55 44.7161 424.55 M42.9973 430.406 Q38.1912 430.47 35.3266 433.111 Q32.4621 435.721 32.4621 440.05 Q32.4621 444.952 35.2312 447.912 Q38.0002 450.84 43.0292 451.286 L42.9973 430.406 Z" fill="#000000" fill-rule="evenodd" fill-opacity="1" /><polyline clip-path="url(#clip142)" style="stroke:#009af9; stroke-width:4; stroke-opacity:1; fill:none" points="
  286.417,1371.39 859.604,1214.59 1432.79,849.595 2292.57,86.1857 
  "/>
<polyline clip-path="url(#clip142)" style="stroke:#e26f46; stroke-width:4; stroke-opacity:1; fill:none" points="
  286.417,1363.68 859.604,1224.87 1432.79,1026.95 2292.57,715.934 
  "/>
<polyline clip-path="url(#clip142)" style="stroke:#3da44d; stroke-width:4; stroke-opacity:1; fill:none" points="
  286.417,1368.82 859.604,1286.56 1432.79,1145.19 2292.57,870.158 
  "/>
<polyline clip-path="url(#clip142)" style="stroke:#c271d2; stroke-width:4; stroke-opacity:1; fill:none" points="
  286.417,1379.1 859.604,1309.7 1432.79,1178.61 2292.57,906.144 
  "/>
<polyline clip-path="url(#clip142)" style="stroke:#ac8d18; stroke-width:4; stroke-opacity:1; fill:none" points="
  286.417,1384.24 859.604,1317.41 1432.79,1186.32 2292.57,916.425 
  "/>
<path clip-path="url(#clip140)" d="
M297.116 455.989 L650.664 455.989 L650.664 93.1086 L297.116 93.1086  Z
  " fill="#ffffff" fill-rule="evenodd" fill-opacity="1"/>
<polyline clip-path="url(#clip140)" style="stroke:#000000; stroke-width:4; stroke-opacity:1; fill:none" points="
  297.116,455.989 650.664,455.989 650.664,93.1086 297.116,93.1086 297.116,455.989 
  "/>
<polyline clip-path="url(#clip140)" style="stroke:#009af9; stroke-width:4; stroke-opacity:1; fill:none" points="
  320.744,153.589 462.512,153.589 
  "/>
<path clip-path="url(#clip140)" d="M 0 0 M506.765 137.217 Q504.404 135.596 498.872 135.596 Q493.015 135.596 493.015 138.305 Q493.015 140.434 499.126 141.546 Q503.941 142.402 506.65 144.995 Q509.937 148.12 509.937 154.532 Q509.937 160.666 506.765 164.277 Q503.594 167.911 498.039 167.911 Q492.506 167.911 489.312 164.277 Q486.14 160.666 486.14 154.3 Q486.14 149.578 489.312 145.758 Q490.539 144.277 492.275 143.444 Q488.664 141.615 488.664 138.351 Q488.664 132.055 498.872 132.055 Q503.988 132.055 506.765 133.675 L506.765 137.217 M495.469 144.601 Q493.895 145.272 492.622 146.962 Q490.631 149.578 490.631 154.3 Q490.631 158.999 492.599 161.638 Q494.589 164.3 498.039 164.3 Q501.441 164.3 503.432 161.615 Q505.423 158.93 505.423 154.532 Q505.423 149.925 503.316 147.703 Q501.071 145.319 498.154 145.064 Q496.673 144.925 495.469 144.601 Z" fill="#000000" fill-rule="evenodd" fill-opacity="1" /><path clip-path="url(#clip140)" d="M 0 0 M509.937 145.712 L539.612 145.712 L539.612 149.601 L509.937 149.601 L509.937 145.712 M509.937 155.157 L539.612 155.157 L539.612 159.092 L509.937 159.092 L509.937 155.157 Z" fill="#000000" fill-rule="evenodd" fill-opacity="1" /><path clip-path="url(#clip140)" d="M 0 0 M554.682 135.759 Q551.071 135.759 549.242 139.323 Q547.436 142.865 547.436 149.995 Q547.436 157.101 549.242 160.666 Q551.071 164.207 554.682 164.207 Q558.316 164.207 560.122 160.666 Q561.95 157.101 561.95 149.995 Q561.95 142.865 560.122 139.323 Q558.316 135.759 554.682 135.759 M554.682 132.055 Q560.492 132.055 563.547 136.661 Q566.626 141.245 566.626 149.995 Q566.626 158.721 563.547 163.328 Q560.492 167.911 554.682 167.911 Q548.872 167.911 545.793 163.328 Q542.737 158.721 542.737 149.995 Q542.737 141.245 545.793 136.661 Q548.872 132.055 554.682 132.055 Z" fill="#000000" fill-rule="evenodd" fill-opacity="1" /><path clip-path="url(#clip140)" d="M 0 0 M571.696 161.36 L576.58 161.36 L576.58 167.24 L571.696 167.24 L571.696 161.36 Z" fill="#000000" fill-rule="evenodd" fill-opacity="1" /><path clip-path="url(#clip140)" d="M 0 0 M582.459 163.305 L590.098 163.305 L590.098 136.939 L581.788 138.606 L581.788 134.346 L590.052 132.68 L594.728 132.68 L594.728 163.305 L602.367 163.305 L602.367 167.24 L582.459 167.24 L582.459 163.305 Z" fill="#000000" fill-rule="evenodd" fill-opacity="1" /><polyline clip-path="url(#clip140)" style="stroke:#e26f46; stroke-width:4; stroke-opacity:1; fill:none" points="
  320.744,214.069 462.512,214.069 
  "/>
<path clip-path="url(#clip140)" d="M 0 0 M506.765 197.697 Q504.404 196.076 498.872 196.076 Q493.015 196.076 493.015 198.785 Q493.015 200.914 499.126 202.026 Q503.941 202.882 506.65 205.475 Q509.937 208.6 509.937 215.012 Q509.937 221.146 506.765 224.757 Q503.594 228.391 498.039 228.391 Q492.506 228.391 489.312 224.757 Q486.14 221.146 486.14 214.78 Q486.14 210.058 489.312 206.238 Q490.539 204.757 492.275 203.924 Q488.664 202.095 488.664 198.831 Q488.664 192.535 498.872 192.535 Q503.988 192.535 506.765 194.155 L506.765 197.697 M495.469 205.081 Q493.895 205.752 492.622 207.442 Q490.631 210.058 490.631 214.78 Q490.631 219.479 492.599 222.118 Q494.589 224.78 498.039 224.78 Q501.441 224.78 503.432 222.095 Q505.423 219.41 505.423 215.012 Q505.423 210.405 503.316 208.183 Q501.071 205.799 498.154 205.544 Q496.673 205.405 495.469 205.081 Z" fill="#000000" fill-rule="evenodd" fill-opacity="1" /><path clip-path="url(#clip140)" d="M 0 0 M509.937 206.192 L539.612 206.192 L539.612 210.081 L509.937 210.081 L509.937 206.192 M509.937 215.637 L539.612 215.637 L539.612 219.572 L509.937 219.572 L509.937 215.637 Z" fill="#000000" fill-rule="evenodd" fill-opacity="1" /><path clip-path="url(#clip140)" d="M 0 0 M554.682 196.239 Q551.071 196.239 549.242 199.803 Q547.436 203.345 547.436 210.475 Q547.436 217.581 549.242 221.146 Q551.071 224.687 554.682 224.687 Q558.316 224.687 560.122 221.146 Q561.95 217.581 561.95 210.475 Q561.95 203.345 560.122 199.803 Q558.316 196.239 554.682 196.239 M554.682 192.535 Q560.492 192.535 563.547 197.141 Q566.626 201.725 566.626 210.475 Q566.626 219.201 563.547 223.808 Q560.492 228.391 554.682 228.391 Q548.872 228.391 545.793 223.808 Q542.737 219.201 542.737 210.475 Q542.737 201.725 545.793 197.141 Q548.872 192.535 554.682 192.535 Z" fill="#000000" fill-rule="evenodd" fill-opacity="1" /><path clip-path="url(#clip140)" d="M 0 0 M571.696 221.84 L576.58 221.84 L576.58 227.72 L571.696 227.72 L571.696 221.84 Z" fill="#000000" fill-rule="evenodd" fill-opacity="1" /><path clip-path="url(#clip140)" d="M 0 0 M595.816 209.086 Q599.172 209.803 601.047 212.072 Q602.945 214.34 602.945 217.674 Q602.945 222.789 599.427 225.59 Q595.908 228.391 589.427 228.391 Q587.251 228.391 584.936 227.951 Q582.645 227.535 580.191 226.678 L580.191 222.164 Q582.135 223.299 584.45 223.877 Q586.765 224.456 589.288 224.456 Q593.686 224.456 595.978 222.72 Q598.293 220.984 598.293 217.674 Q598.293 214.618 596.14 212.905 Q594.01 211.169 590.191 211.169 L586.163 211.169 L586.163 207.326 L590.376 207.326 Q593.825 207.326 595.654 205.961 Q597.482 204.572 597.482 201.979 Q597.482 199.317 595.584 197.905 Q593.709 196.47 590.191 196.47 Q588.27 196.47 586.07 196.887 Q583.871 197.303 581.233 198.183 L581.233 194.016 Q583.895 193.276 586.209 192.905 Q588.547 192.535 590.607 192.535 Q595.932 192.535 599.033 194.965 Q602.135 197.373 602.135 201.493 Q602.135 204.363 600.492 206.354 Q598.848 208.322 595.816 209.086 Z" fill="#000000" fill-rule="evenodd" fill-opacity="1" /><polyline clip-path="url(#clip140)" style="stroke:#3da44d; stroke-width:4; stroke-opacity:1; fill:none" points="
  320.744,274.549 462.512,274.549 
  "/>
<path clip-path="url(#clip140)" d="M 0 0 M506.765 258.177 Q504.404 256.556 498.872 256.556 Q493.015 256.556 493.015 259.265 Q493.015 261.394 499.126 262.506 Q503.941 263.362 506.65 265.955 Q509.937 269.08 509.937 275.492 Q509.937 281.626 506.765 285.237 Q503.594 288.871 498.039 288.871 Q492.506 288.871 489.312 285.237 Q486.14 281.626 486.14 275.26 Q486.14 270.538 489.312 266.718 Q490.539 265.237 492.275 264.404 Q488.664 262.575 488.664 259.311 Q488.664 253.015 498.872 253.015 Q503.988 253.015 506.765 254.635 L506.765 258.177 M495.469 265.561 Q493.895 266.232 492.622 267.922 Q490.631 270.538 490.631 275.26 Q490.631 279.959 492.599 282.598 Q494.589 285.26 498.039 285.26 Q501.441 285.26 503.432 282.575 Q505.423 279.89 505.423 275.492 Q505.423 270.885 503.316 268.663 Q501.071 266.279 498.154 266.024 Q496.673 265.885 495.469 265.561 Z" fill="#000000" fill-rule="evenodd" fill-opacity="1" /><path clip-path="url(#clip140)" d="M 0 0 M509.937 266.672 L539.612 266.672 L539.612 270.561 L509.937 270.561 L509.937 266.672 M509.937 276.117 L539.612 276.117 L539.612 280.052 L509.937 280.052 L509.937 276.117 Z" fill="#000000" fill-rule="evenodd" fill-opacity="1" /><path clip-path="url(#clip140)" d="M 0 0 M554.682 256.719 Q551.071 256.719 549.242 260.283 Q547.436 263.825 547.436 270.955 Q547.436 278.061 549.242 281.626 Q551.071 285.167 554.682 285.167 Q558.316 285.167 560.122 281.626 Q561.95 278.061 561.95 270.955 Q561.95 263.825 560.122 260.283 Q558.316 256.719 554.682 256.719 M554.682 253.015 Q560.492 253.015 563.547 257.621 Q566.626 262.205 566.626 270.955 Q566.626 279.681 563.547 284.288 Q560.492 288.871 554.682 288.871 Q548.872 288.871 545.793 284.288 Q542.737 279.681 542.737 270.955 Q542.737 262.205 545.793 257.621 Q548.872 253.015 554.682 253.015 Z" fill="#000000" fill-rule="evenodd" fill-opacity="1" /><path clip-path="url(#clip140)" d="M 0 0 M571.696 282.32 L576.58 282.32 L576.58 288.2 L571.696 288.2 L571.696 282.32 Z" fill="#000000" fill-rule="evenodd" fill-opacity="1" /><path clip-path="url(#clip140)" d="M 0 0 M581.695 253.64 L600.052 253.64 L600.052 257.575 L585.978 257.575 L585.978 266.047 Q586.996 265.7 588.015 265.538 Q589.033 265.353 590.052 265.353 Q595.839 265.353 599.219 268.524 Q602.598 271.695 602.598 277.112 Q602.598 282.691 599.126 285.792 Q595.654 288.871 589.334 288.871 Q587.158 288.871 584.89 288.501 Q582.645 288.13 580.237 287.39 L580.237 282.691 Q582.32 283.825 584.543 284.38 Q586.765 284.936 589.242 284.936 Q593.246 284.936 595.584 282.829 Q597.922 280.723 597.922 277.112 Q597.922 273.501 595.584 271.394 Q593.246 269.288 589.242 269.288 Q587.367 269.288 585.492 269.705 Q583.64 270.121 581.695 271.001 L581.695 253.64 Z" fill="#000000" fill-rule="evenodd" fill-opacity="1" /><polyline clip-path="url(#clip140)" style="stroke:#c271d2; stroke-width:4; stroke-opacity:1; fill:none" points="
  320.744,335.029 462.512,335.029 
  "/>
<path clip-path="url(#clip140)" d="M 0 0 M506.765 318.657 Q504.404 317.036 498.872 317.036 Q493.015 317.036 493.015 319.745 Q493.015 321.874 499.126 322.986 Q503.941 323.842 506.65 326.435 Q509.937 329.56 509.937 335.972 Q509.937 342.106 506.765 345.717 Q503.594 349.351 498.039 349.351 Q492.506 349.351 489.312 345.717 Q486.14 342.106 486.14 335.74 Q486.14 331.018 489.312 327.198 Q490.539 325.717 492.275 324.884 Q488.664 323.055 488.664 319.791 Q488.664 313.495 498.872 313.495 Q503.988 313.495 506.765 315.115 L506.765 318.657 M495.469 326.041 Q493.895 326.712 492.622 328.402 Q490.631 331.018 490.631 335.74 Q490.631 340.439 492.599 343.078 Q494.589 345.74 498.039 345.74 Q501.441 345.74 503.432 343.055 Q505.423 340.37 505.423 335.972 Q505.423 331.365 503.316 329.143 Q501.071 326.759 498.154 326.504 Q496.673 326.365 495.469 326.041 Z" fill="#000000" fill-rule="evenodd" fill-opacity="1" /><path clip-path="url(#clip140)" d="M 0 0 M509.937 327.152 L539.612 327.152 L539.612 331.041 L509.937 331.041 L509.937 327.152 M509.937 336.597 L539.612 336.597 L539.612 340.532 L509.937 340.532 L509.937 336.597 Z" fill="#000000" fill-rule="evenodd" fill-opacity="1" /><path clip-path="url(#clip140)" d="M 0 0 M554.682 317.199 Q551.071 317.199 549.242 320.763 Q547.436 324.305 547.436 331.435 Q547.436 338.541 549.242 342.106 Q551.071 345.647 554.682 345.647 Q558.316 345.647 560.122 342.106 Q561.95 338.541 561.95 331.435 Q561.95 324.305 560.122 320.763 Q558.316 317.199 554.682 317.199 M554.682 313.495 Q560.492 313.495 563.547 318.101 Q566.626 322.685 566.626 331.435 Q566.626 340.161 563.547 344.768 Q560.492 349.351 554.682 349.351 Q548.872 349.351 545.793 344.768 Q542.737 340.161 542.737 331.435 Q542.737 322.685 545.793 318.101 Q548.872 313.495 554.682 313.495 Z" fill="#000000" fill-rule="evenodd" fill-opacity="1" /><path clip-path="url(#clip140)" d="M 0 0 M571.696 342.8 L576.58 342.8 L576.58 348.68 L571.696 348.68 L571.696 342.8 Z" fill="#000000" fill-rule="evenodd" fill-opacity="1" /><path clip-path="url(#clip140)" d="M 0 0 M580.469 314.12 L602.691 314.12 L602.691 316.111 L590.145 348.68 L585.26 348.68 L597.066 318.055 L580.469 318.055 L580.469 314.12 Z" fill="#000000" fill-rule="evenodd" fill-opacity="1" /><polyline clip-path="url(#clip140)" style="stroke:#ac8d18; stroke-width:4; stroke-opacity:1; fill:none" points="
  320.744,395.509 462.512,395.509 
  "/>
<path clip-path="url(#clip140)" d="M 0 0 M506.765 379.137 Q504.404 377.516 498.872 377.516 Q493.015 377.516 493.015 380.225 Q493.015 382.354 499.126 383.466 Q503.941 384.322 506.65 386.915 Q509.937 390.04 509.937 396.452 Q509.937 402.586 506.765 406.197 Q503.594 409.831 498.039 409.831 Q492.506 409.831 489.312 406.197 Q486.14 402.586 486.14 396.22 Q486.14 391.498 489.312 387.678 Q490.539 386.197 492.275 385.364 Q488.664 383.535 488.664 380.271 Q488.664 373.975 498.872 373.975 Q503.988 373.975 506.765 375.595 L506.765 379.137 M495.469 386.521 Q493.895 387.192 492.622 388.882 Q490.631 391.498 490.631 396.22 Q490.631 400.919 492.599 403.558 Q494.589 406.22 498.039 406.22 Q501.441 406.22 503.432 403.535 Q505.423 400.85 505.423 396.452 Q505.423 391.845 503.316 389.623 Q501.071 387.239 498.154 386.984 Q496.673 386.845 495.469 386.521 Z" fill="#000000" fill-rule="evenodd" fill-opacity="1" /><path clip-path="url(#clip140)" d="M 0 0 M509.937 387.632 L539.612 387.632 L539.612 391.521 L509.937 391.521 L509.937 387.632 M509.937 397.077 L539.612 397.077 L539.612 401.012 L509.937 401.012 L509.937 397.077 Z" fill="#000000" fill-rule="evenodd" fill-opacity="1" /><path clip-path="url(#clip140)" d="M 0 0 M554.682 377.679 Q551.071 377.679 549.242 381.243 Q547.436 384.785 547.436 391.915 Q547.436 399.021 549.242 402.586 Q551.071 406.127 554.682 406.127 Q558.316 406.127 560.122 402.586 Q561.95 399.021 561.95 391.915 Q561.95 384.785 560.122 381.243 Q558.316 377.679 554.682 377.679 M554.682 373.975 Q560.492 373.975 563.547 378.581 Q566.626 383.165 566.626 391.915 Q566.626 400.641 563.547 405.248 Q560.492 409.831 554.682 409.831 Q548.872 409.831 545.793 405.248 Q542.737 400.641 542.737 391.915 Q542.737 383.165 545.793 378.581 Q548.872 373.975 554.682 373.975 Z" fill="#000000" fill-rule="evenodd" fill-opacity="1" /><path clip-path="url(#clip140)" d="M 0 0 M571.696 403.28 L576.58 403.28 L576.58 409.16 L571.696 409.16 L571.696 403.28 Z" fill="#000000" fill-rule="evenodd" fill-opacity="1" /><path clip-path="url(#clip140)" d="M 0 0 M581.788 408.442 L581.788 404.183 Q583.547 405.016 585.353 405.456 Q587.158 405.896 588.895 405.896 Q593.524 405.896 595.955 402.794 Q598.408 399.669 598.756 393.327 Q597.413 395.317 595.353 396.382 Q593.293 397.447 590.793 397.447 Q585.608 397.447 582.575 394.322 Q579.566 391.174 579.566 385.734 Q579.566 380.41 582.714 377.192 Q585.862 373.975 591.094 373.975 Q597.089 373.975 600.237 378.581 Q603.408 383.165 603.408 391.915 Q603.408 400.086 599.519 404.97 Q595.654 409.831 589.103 409.831 Q587.344 409.831 585.538 409.484 Q583.733 409.137 581.788 408.442 M591.094 393.79 Q594.242 393.79 596.07 391.637 Q597.922 389.484 597.922 385.734 Q597.922 382.007 596.07 379.854 Q594.242 377.679 591.094 377.679 Q587.945 377.679 586.094 379.854 Q584.265 382.007 584.265 385.734 Q584.265 389.484 586.094 391.637 Q587.945 393.79 591.094 393.79 Z" fill="#000000" fill-rule="evenodd" fill-opacity="1" /></svg>
