<?xml version="1.0" encoding="utf-8"?>
<svg xmlns="http://www.w3.org/2000/svg" xmlns:xlink="http://www.w3.org/1999/xlink" width="600" height="400" viewBox="0 0 2400 1600">
<defs>
  <clipPath id="clip010">
    <rect x="0" y="0" width="2400" height="1600"/>
  </clipPath>
</defs>
<path clip-path="url(#clip010)" d="
M0 1600 L2400 1600 L2400 0 L0 0  Z
  " fill="#ffffff" fill-rule="evenodd" fill-opacity="1"/>
<defs>
  <clipPath id="clip011">
    <rect x="480" y="0" width="1681" height="1600"/>
  </clipPath>
</defs>
<path clip-path="url(#clip010)" d="
M148.334 1415.22 L2352.76 1415.22 L2352.76 123.472 L148.334 123.472  Z
  " fill="#ffffff" fill-rule="evenodd" fill-opacity="1"/>
<defs>
  <clipPath id="clip012">
    <rect x="148" y="123" width="2205" height="1293"/>
  </clipPath>
</defs>
<polyline clip-path="url(#clip012)" style="stroke:#000000; stroke-width:2; stroke-opacity:0.1; fill:none" points="
  378.776,1415.22 378.776,123.472 
  "/>
<polyline clip-path="url(#clip012)" style="stroke:#000000; stroke-width:2; stroke-opacity:0.1; fill:none" points="
  420.789,1415.22 420.789,123.472 
  "/>
<polyline clip-path="url(#clip012)" style="stroke:#000000; stroke-width:2; stroke-opacity:0.1; fill:none" points="
  888.183,1415.22 888.183,123.472 
  "/>
<polyline clip-path="url(#clip012)" style="stroke:#000000; stroke-width:2; stroke-opacity:0.1; fill:none" points="
  1355.58,1415.22 1355.58,123.472 
  "/>
<polyline clip-path="url(#clip012)" style="stroke:#000000; stroke-width:2; stroke-opacity:0.1; fill:none" points="
  1822.97,1415.22 1822.97,123.472 
  "/>
<polyline clip-path="url(#clip012)" style="stroke:#000000; stroke-width:2; stroke-opacity:0.1; fill:none" points="
  2290.37,1415.22 2290.37,123.472 
  "/>
<polyline clip-path="url(#clip010)" style="stroke:#000000; stroke-width:4; stroke-opacity:1; fill:none" points="
  148.334,1415.22 2352.76,1415.22 
  "/>
<polyline clip-path="url(#clip010)" style="stroke:#000000; stroke-width:4; stroke-opacity:1; fill:none" points="
  378.776,1415.22 378.776,1399.72 
  "/>
<polyline clip-path="url(#clip010)" style="stroke:#000000; stroke-width:4; stroke-opacity:1; fill:none" points="
  420.789,1415.22 420.789,1399.72 
  "/>
<polyline clip-path="url(#clip010)" style="stroke:#000000; stroke-width:4; stroke-opacity:1; fill:none" points="
  888.183,1415.22 888.183,1399.72 
  "/>
<polyline clip-path="url(#clip010)" style="stroke:#000000; stroke-width:4; stroke-opacity:1; fill:none" points="
  1355.58,1415.22 1355.58,1399.72 
  "/>
<polyline clip-path="url(#clip010)" style="stroke:#000000; stroke-width:4; stroke-opacity:1; fill:none" points="
  1822.97,1415.22 1822.97,1399.72 
  "/>
<polyline clip-path="url(#clip010)" style="stroke:#000000; stroke-width:4; stroke-opacity:1; fill:none" points="
  2290.37,1415.22 2290.37,1399.72 
  "/>
<path clip-path="url(#clip010)" d="M 0 0 M257.463 1496.71 L257.463 1492.45 Q259.222 1493.28 261.027 1493.72 Q262.833 1494.16 264.569 1494.16 Q269.199 1494.16 271.629 1491.06 Q274.083 1487.93 274.43 1481.59 Q273.088 1483.58 271.027 1484.65 Q268.967 1485.71 266.467 1485.71 Q261.282 1485.71 258.25 1482.59 Q255.24 1479.44 255.24 1474 Q255.24 1468.67 258.389 1465.46 Q261.537 1462.24 266.768 1462.24 Q272.763 1462.24 275.912 1466.85 Q279.083 1471.43 279.083 1480.18 Q279.083 1488.35 275.194 1493.23 Q271.328 1498.1 264.777 1498.1 Q263.018 1498.1 261.213 1497.75 Q259.407 1497.4 257.463 1496.71 M266.768 1482.05 Q269.916 1482.05 271.745 1479.9 Q273.597 1477.75 273.597 1474 Q273.597 1470.27 271.745 1468.12 Q269.916 1465.94 266.768 1465.94 Q263.62 1465.94 261.768 1468.12 Q259.939 1470.27 259.939 1474 Q259.939 1477.75 261.768 1479.9 Q263.62 1482.05 266.768 1482.05 Z" fill="#000000" fill-rule="evenodd" fill-opacity="1" /><path clip-path="url(#clip010)" d="M 0 0 M284.152 1491.54 L289.037 1491.54 L289.037 1497.42 L284.152 1497.42 L284.152 1491.54 Z" fill="#000000" fill-rule="evenodd" fill-opacity="1" /><path clip-path="url(#clip010)" d="M 0 0 M304.106 1465.94 Q300.495 1465.94 298.666 1469.51 Q296.861 1473.05 296.861 1480.18 Q296.861 1487.29 298.666 1490.85 Q300.495 1494.39 304.106 1494.39 Q307.74 1494.39 309.546 1490.85 Q311.374 1487.29 311.374 1480.18 Q311.374 1473.05 309.546 1469.51 Q307.74 1465.94 304.106 1465.94 M304.106 1462.24 Q309.916 1462.24 312.972 1466.85 Q316.05 1471.43 316.05 1480.18 Q316.05 1488.91 312.972 1493.51 Q309.916 1498.1 304.106 1498.1 Q298.296 1498.1 295.217 1493.51 Q292.162 1488.91 292.162 1480.18 Q292.162 1471.43 295.217 1466.85 Q298.296 1462.24 304.106 1462.24 Z" fill="#000000" fill-rule="evenodd" fill-opacity="1" /><path clip-path="url(#clip010)" d="M 0 0 M331.12 1465.94 Q327.509 1465.94 325.68 1469.51 Q323.874 1473.05 323.874 1480.18 Q323.874 1487.29 325.68 1490.85 Q327.509 1494.39 331.12 1494.39 Q334.754 1494.39 336.559 1490.85 Q338.388 1487.29 338.388 1480.18 Q338.388 1473.05 336.559 1469.51 Q334.754 1465.94 331.12 1465.94 M331.12 1462.24 Q336.93 1462.24 339.985 1466.85 Q343.064 1471.43 343.064 1480.18 Q343.064 1488.91 339.985 1493.51 Q336.93 1498.1 331.12 1498.1 Q325.309 1498.1 322.231 1493.51 Q319.175 1488.91 319.175 1480.18 Q319.175 1471.43 322.231 1466.85 Q325.309 1462.24 331.12 1462.24 Z" fill="#000000" fill-rule="evenodd" fill-opacity="1" /><path clip-path="url(#clip010)" d="M 0 0 M358.133 1465.94 Q354.522 1465.94 352.694 1469.51 Q350.888 1473.05 350.888 1480.18 Q350.888 1487.29 352.694 1490.85 Q354.522 1494.39 358.133 1494.39 Q361.768 1494.39 363.573 1490.85 Q365.402 1487.29 365.402 1480.18 Q365.402 1473.05 363.573 1469.51 Q361.768 1465.94 358.133 1465.94 M358.133 1462.24 Q363.944 1462.24 366.999 1466.85 Q370.078 1471.43 370.078 1480.18 Q370.078 1488.91 366.999 1493.51 Q363.944 1498.1 358.133 1498.1 Q352.323 1498.1 349.245 1493.51 Q346.189 1488.91 346.189 1480.18 Q346.189 1471.43 349.245 1466.85 Q352.323 1462.24 358.133 1462.24 Z" fill="#000000" fill-rule="evenodd" fill-opacity="1" /><path clip-path="url(#clip010)" d="M 0 0 M403.318 1471.96 L392.74 1482.59 L403.318 1493.16 L400.564 1495.97 L389.939 1485.34 L379.314 1495.97 L376.582 1493.16 L387.138 1482.59 L376.582 1471.96 L379.314 1469.16 L389.939 1479.79 L400.564 1469.16 L403.318 1471.96 Z" fill="#000000" fill-rule="evenodd" fill-opacity="1" /><path clip-path="url(#clip010)" d="M 0 0 M409.198 1493.49 L416.837 1493.49 L416.837 1467.12 L408.527 1468.79 L408.527 1464.53 L416.79 1462.86 L421.466 1462.86 L421.466 1493.49 L429.105 1493.49 L429.105 1497.42 L409.198 1497.42 L409.198 1493.49 Z" fill="#000000" fill-rule="evenodd" fill-opacity="1" /><path clip-path="url(#clip010)" d="M 0 0 M444.175 1465.94 Q440.563 1465.94 438.735 1469.51 Q436.929 1473.05 436.929 1480.18 Q436.929 1487.29 438.735 1490.85 Q440.563 1494.39 444.175 1494.39 Q447.809 1494.39 449.614 1490.85 Q451.443 1487.29 451.443 1480.18 Q451.443 1473.05 449.614 1469.51 Q447.809 1465.94 444.175 1465.94 M444.175 1462.24 Q449.985 1462.24 453.04 1466.85 Q456.119 1471.43 456.119 1480.18 Q456.119 1488.91 453.04 1493.51 Q449.985 1498.1 444.175 1498.1 Q438.364 1498.1 435.286 1493.51 Q432.23 1488.91 432.23 1480.18 Q432.23 1471.43 435.286 1466.85 Q438.364 1462.24 444.175 1462.24 Z" fill="#000000" fill-rule="evenodd" fill-opacity="1" /><path clip-path="url(#clip010)" d="M 0 0 M456.119 1456.34 L480.231 1456.34 L480.231 1459.54 L456.119 1459.54 L456.119 1456.34 Z" fill="#000000" fill-rule="evenodd" fill-opacity="1" /><path clip-path="url(#clip010)" d="M 0 0 M492.945 1454.46 Q490.387 1454.46 488.882 1456.21 Q487.396 1457.96 487.396 1461 Q487.396 1464.03 488.882 1465.8 Q490.387 1467.55 492.945 1467.55 Q495.502 1467.55 496.988 1465.8 Q498.493 1464.03 498.493 1461 Q498.493 1457.96 496.988 1456.21 Q495.502 1454.46 492.945 1454.46 M500.486 1442.55 L500.486 1446.01 Q499.057 1445.34 497.59 1444.98 Q496.142 1444.62 494.713 1444.62 Q490.951 1444.62 488.957 1447.16 Q486.983 1449.7 486.7 1454.84 Q487.81 1453.2 489.484 1452.33 Q491.158 1451.45 493.17 1451.45 Q497.402 1451.45 499.847 1454.03 Q502.311 1456.58 502.311 1461 Q502.311 1465.33 499.753 1467.94 Q497.195 1470.56 492.945 1470.56 Q488.073 1470.56 485.497 1466.83 Q482.92 1463.09 482.92 1456 Q482.92 1449.34 486.08 1445.39 Q489.239 1441.43 494.562 1441.43 Q495.991 1441.43 497.44 1441.71 Q498.907 1441.99 500.486 1442.55 Z" fill="#000000" fill-rule="evenodd" fill-opacity="1" /><path clip-path="url(#clip010)" d="M 0 0 M300.64 1493.49 L308.279 1493.49 L308.279 1467.12 L299.969 1468.79 L299.969 1464.53 L308.233 1462.86 L312.909 1462.86 L312.909 1493.49 L320.548 1493.49 L320.548 1497.42 L300.64 1497.42 L300.64 1493.49 Z" fill="#000000" fill-rule="evenodd" fill-opacity="1" /><path clip-path="url(#clip010)" d="M 0 0 M325.617 1491.54 L330.501 1491.54 L330.501 1497.42 L325.617 1497.42 L325.617 1491.54 Z" fill="#000000" fill-rule="evenodd" fill-opacity="1" /><path clip-path="url(#clip010)" d="M 0 0 M336.381 1493.49 L344.02 1493.49 L344.02 1467.12 L335.71 1468.79 L335.71 1464.53 L343.973 1462.86 L348.649 1462.86 L348.649 1493.49 L356.288 1493.49 L356.288 1497.42 L336.381 1497.42 L336.381 1493.49 Z" fill="#000000" fill-rule="evenodd" fill-opacity="1" /><path clip-path="url(#clip010)" d="M 0 0 M371.357 1465.94 Q367.746 1465.94 365.918 1469.51 Q364.112 1473.05 364.112 1480.18 Q364.112 1487.29 365.918 1490.85 Q367.746 1494.39 371.357 1494.39 Q374.992 1494.39 376.797 1490.85 Q378.626 1487.29 378.626 1480.18 Q378.626 1473.05 376.797 1469.51 Q374.992 1465.94 371.357 1465.94 M371.357 1462.24 Q377.168 1462.24 380.223 1466.85 Q383.302 1471.43 383.302 1480.18 Q383.302 1488.91 380.223 1493.51 Q377.168 1498.1 371.357 1498.1 Q365.547 1498.1 362.469 1493.51 Q359.413 1488.91 359.413 1480.18 Q359.413 1471.43 362.469 1466.85 Q365.547 1462.24 371.357 1462.24 Z" fill="#000000" fill-rule="evenodd" fill-opacity="1" /><path clip-path="url(#clip010)" d="M 0 0 M398.371 1465.94 Q394.76 1465.94 392.931 1469.51 Q391.126 1473.05 391.126 1480.18 Q391.126 1487.29 392.931 1490.85 Q394.76 1494.39 398.371 1494.39 Q402.005 1494.39 403.811 1490.85 Q405.64 1487.29 405.64 1480.18 Q405.64 1473.05 403.811 1469.51 Q402.005 1465.94 398.371 1465.94 M398.371 1462.24 Q404.181 1462.24 407.237 1466.85 Q410.316 1471.43 410.316 1480.18 Q410.316 1488.91 407.237 1493.51 Q404.181 1498.1 398.371 1498.1 Q392.561 1498.1 389.482 1493.51 Q386.427 1488.91 386.427 1480.18 Q386.427 1471.43 389.482 1466.85 Q392.561 1462.24 398.371 1462.24 Z" fill="#000000" fill-rule="evenodd" fill-opacity="1" /><path clip-path="url(#clip010)" d="M 0 0 M443.556 1471.96 L432.978 1482.59 L443.556 1493.16 L440.802 1495.97 L430.177 1485.34 L419.552 1495.97 L416.82 1493.16 L427.376 1482.59 L416.82 1471.96 L419.552 1469.16 L430.177 1479.79 L440.802 1469.16 L443.556 1471.96 Z" fill="#000000" fill-rule="evenodd" fill-opacity="1" /><path clip-path="url(#clip010)" d="M 0 0 M449.436 1493.49 L457.075 1493.49 L457.075 1467.12 L448.764 1468.79 L448.764 1464.53 L457.028 1462.86 L461.704 1462.86 L461.704 1493.49 L469.343 1493.49 L469.343 1497.42 L449.436 1497.42 L449.436 1493.49 Z" fill="#000000" fill-rule="evenodd" fill-opacity="1" /><path clip-path="url(#clip010)" d="M 0 0 M484.412 1465.94 Q480.801 1465.94 478.973 1469.51 Q477.167 1473.05 477.167 1480.18 Q477.167 1487.29 478.973 1490.85 Q480.801 1494.39 484.412 1494.39 Q488.047 1494.39 489.852 1490.85 Q491.681 1487.29 491.681 1480.18 Q491.681 1473.05 489.852 1469.51 Q488.047 1465.94 484.412 1465.94 M484.412 1462.24 Q490.223 1462.24 493.278 1466.85 Q496.357 1471.43 496.357 1480.18 Q496.357 1488.91 493.278 1493.51 Q490.223 1498.1 484.412 1498.1 Q478.602 1498.1 475.524 1493.51 Q472.468 1488.91 472.468 1480.18 Q472.468 1471.43 475.524 1466.85 Q478.602 1462.24 484.412 1462.24 Z" fill="#000000" fill-rule="evenodd" fill-opacity="1" /><path clip-path="url(#clip010)" d="M 0 0 M496.357 1456.34 L520.468 1456.34 L520.468 1459.54 L496.357 1459.54 L496.357 1456.34 Z" fill="#000000" fill-rule="evenodd" fill-opacity="1" /><path clip-path="url(#clip010)" d="M 0 0 M524.625 1441.93 L539.539 1441.93 L539.539 1445.13 L528.104 1445.13 L528.104 1452.01 Q528.932 1451.73 529.759 1451.6 Q530.587 1451.45 531.414 1451.45 Q536.116 1451.45 538.862 1454.03 Q541.608 1456.6 541.608 1461 Q541.608 1465.54 538.787 1468.06 Q535.966 1470.56 530.831 1470.56 Q529.064 1470.56 527.22 1470.26 Q525.396 1469.96 523.44 1469.36 L523.44 1465.54 Q525.133 1466.46 526.938 1466.91 Q528.744 1467.36 530.756 1467.36 Q534.01 1467.36 535.91 1465.65 Q537.809 1463.94 537.809 1461 Q537.809 1458.07 535.91 1456.36 Q534.01 1454.65 530.756 1454.65 Q529.233 1454.65 527.709 1454.99 Q526.205 1455.32 524.625 1456.04 L524.625 1441.93 Z" fill="#000000" fill-rule="evenodd" fill-opacity="1" /><path clip-path="url(#clip010)" d="M 0 0 M782.907 1478.79 Q786.264 1479.51 788.139 1481.78 Q790.037 1484.04 790.037 1487.38 Q790.037 1492.49 786.518 1495.29 Q783 1498.1 776.518 1498.1 Q774.343 1498.1 772.028 1497.66 Q769.736 1497.24 767.282 1496.38 L767.282 1491.87 Q769.227 1493 771.542 1493.58 Q773.856 1494.16 776.38 1494.16 Q780.778 1494.16 783.069 1492.42 Q785.384 1490.69 785.384 1487.38 Q785.384 1484.32 783.231 1482.61 Q781.102 1480.87 777.282 1480.87 L773.255 1480.87 L773.255 1477.03 L777.468 1477.03 Q780.917 1477.03 782.745 1475.66 Q784.574 1474.28 784.574 1471.68 Q784.574 1469.02 782.676 1467.61 Q780.801 1466.17 777.282 1466.17 Q775.361 1466.17 773.162 1466.59 Q770.963 1467.01 768.324 1467.89 L768.324 1463.72 Q770.986 1462.98 773.301 1462.61 Q775.639 1462.24 777.699 1462.24 Q783.023 1462.24 786.125 1464.67 Q789.227 1467.08 789.227 1471.2 Q789.227 1474.07 787.583 1476.06 Q785.94 1478.03 782.907 1478.79 Z" fill="#000000" fill-rule="evenodd" fill-opacity="1" /><path clip-path="url(#clip010)" d="M 0 0 M795.106 1491.54 L799.991 1491.54 L799.991 1497.42 L795.106 1497.42 L795.106 1491.54 Z" fill="#000000" fill-rule="evenodd" fill-opacity="1" /><path clip-path="url(#clip010)" d="M 0 0 M819.227 1478.79 Q822.583 1479.51 824.458 1481.78 Q826.356 1484.04 826.356 1487.38 Q826.356 1492.49 822.838 1495.29 Q819.319 1498.1 812.838 1498.1 Q810.662 1498.1 808.347 1497.66 Q806.055 1497.24 803.602 1496.38 L803.602 1491.87 Q805.546 1493 807.861 1493.58 Q810.176 1494.16 812.699 1494.16 Q817.097 1494.16 819.389 1492.42 Q821.703 1490.69 821.703 1487.38 Q821.703 1484.32 819.551 1482.61 Q817.421 1480.87 813.602 1480.87 L809.574 1480.87 L809.574 1477.03 L813.787 1477.03 Q817.236 1477.03 819.065 1475.66 Q820.893 1474.28 820.893 1471.68 Q820.893 1469.02 818.995 1467.61 Q817.12 1466.17 813.602 1466.17 Q811.68 1466.17 809.481 1466.59 Q807.282 1467.01 804.643 1467.89 L804.643 1463.72 Q807.305 1462.98 809.62 1462.61 Q811.958 1462.24 814.018 1462.24 Q819.342 1462.24 822.444 1464.67 Q825.546 1467.08 825.546 1471.2 Q825.546 1474.07 823.903 1476.06 Q822.259 1478.03 819.227 1478.79 Z" fill="#000000" fill-rule="evenodd" fill-opacity="1" /><path clip-path="url(#clip010)" d="M 0 0 M835.453 1493.49 L851.773 1493.49 L851.773 1497.42 L829.828 1497.42 L829.828 1493.49 Q832.49 1490.73 837.074 1486.1 Q841.68 1481.45 842.861 1480.11 Q845.106 1477.59 845.986 1475.85 Q846.888 1474.09 846.888 1472.4 Q846.888 1469.65 844.944 1467.91 Q843.023 1466.17 839.921 1466.17 Q837.722 1466.17 835.268 1466.94 Q832.838 1467.7 830.06 1469.25 L830.06 1464.53 Q832.884 1463.4 835.338 1462.82 Q837.791 1462.24 839.828 1462.24 Q845.199 1462.24 848.393 1464.92 Q851.588 1467.61 851.588 1472.1 Q851.588 1474.23 850.777 1476.15 Q849.99 1478.05 847.884 1480.64 Q847.305 1481.31 844.203 1484.53 Q841.101 1487.72 835.453 1493.49 Z" fill="#000000" fill-rule="evenodd" fill-opacity="1" /><path clip-path="url(#clip010)" d="M 0 0 M856.888 1462.86 L875.245 1462.86 L875.245 1466.8 L861.171 1466.8 L861.171 1475.27 Q862.189 1474.92 863.208 1474.76 Q864.226 1474.58 865.245 1474.58 Q871.032 1474.58 874.411 1477.75 Q877.791 1480.92 877.791 1486.34 Q877.791 1491.91 874.319 1495.02 Q870.847 1498.1 864.527 1498.1 Q862.351 1498.1 860.083 1497.72 Q857.838 1497.35 855.43 1496.61 L855.43 1491.91 Q857.513 1493.05 859.736 1493.6 Q861.958 1494.16 864.435 1494.16 Q868.439 1494.16 870.777 1492.05 Q873.115 1489.95 873.115 1486.34 Q873.115 1482.72 870.777 1480.62 Q868.439 1478.51 864.435 1478.51 Q862.56 1478.51 860.685 1478.93 Q858.833 1479.35 856.888 1480.22 L856.888 1462.86 Z" fill="#000000" fill-rule="evenodd" fill-opacity="1" /><path clip-path="url(#clip010)" d="M 0 0 M911.032 1471.96 L900.453 1482.59 L911.032 1493.16 L908.277 1495.97 L897.652 1485.34 L887.027 1495.97 L884.296 1493.16 L894.851 1482.59 L884.296 1471.96 L887.027 1469.16 L897.652 1479.79 L908.277 1469.16 L911.032 1471.96 Z" fill="#000000" fill-rule="evenodd" fill-opacity="1" /><path clip-path="url(#clip010)" d="M 0 0 M916.911 1493.49 L924.55 1493.49 L924.55 1467.12 L916.24 1468.79 L916.24 1464.53 L924.504 1462.86 L929.18 1462.86 L929.18 1493.49 L936.819 1493.49 L936.819 1497.42 L916.911 1497.42 L916.911 1493.49 Z" fill="#000000" fill-rule="evenodd" fill-opacity="1" /><path clip-path="url(#clip010)" d="M 0 0 M951.888 1465.94 Q948.277 1465.94 946.448 1469.51 Q944.643 1473.05 944.643 1480.18 Q944.643 1487.29 946.448 1490.85 Q948.277 1494.39 951.888 1494.39 Q955.522 1494.39 957.328 1490.85 Q959.156 1487.29 959.156 1480.18 Q959.156 1473.05 957.328 1469.51 Q955.522 1465.94 951.888 1465.94 M951.888 1462.24 Q957.698 1462.24 960.754 1466.85 Q963.832 1471.43 963.832 1480.18 Q963.832 1488.91 960.754 1493.51 Q957.698 1498.1 951.888 1498.1 Q946.078 1498.1 942.999 1493.51 Q939.944 1488.91 939.944 1480.18 Q939.944 1471.43 942.999 1466.85 Q946.078 1462.24 951.888 1462.24 Z" fill="#000000" fill-rule="evenodd" fill-opacity="1" /><path clip-path="url(#clip010)" d="M 0 0 M963.832 1456.34 L987.944 1456.34 L987.944 1459.54 L963.832 1459.54 L963.832 1456.34 Z" fill="#000000" fill-rule="evenodd" fill-opacity="1" /><path clip-path="url(#clip010)" d="M 0 0 M992.1 1441.93 L1007.01 1441.93 L1007.01 1445.13 L995.58 1445.13 L995.58 1452.01 Q996.407 1451.73 997.235 1451.6 Q998.062 1451.45 998.89 1451.45 Q1003.59 1451.45 1006.34 1454.03 Q1009.08 1456.6 1009.08 1461 Q1009.08 1465.54 1006.26 1468.06 Q1003.44 1470.56 998.307 1470.56 Q996.539 1470.56 994.696 1470.26 Q992.872 1469.96 990.915 1469.36 L990.915 1465.54 Q992.608 1466.46 994.414 1466.91 Q996.219 1467.36 998.232 1467.36 Q1001.49 1467.36 1003.39 1465.65 Q1005.28 1463.94 1005.28 1461 Q1005.28 1458.07 1003.39 1456.36 Q1001.49 1454.65 998.232 1454.65 Q996.708 1454.65 995.185 1454.99 Q993.68 1455.32 992.1 1456.04 L992.1 1441.93 Z" fill="#000000" fill-rule="evenodd" fill-opacity="1" /><path clip-path="url(#clip010)" d="M 0 0 M1235.71 1462.86 L1254.06 1462.86 L1254.06 1466.8 L1239.99 1466.8 L1239.99 1475.27 Q1241.01 1474.92 1242.03 1474.76 Q1243.04 1474.58 1244.06 1474.58 Q1249.85 1474.58 1253.23 1477.75 Q1256.61 1480.92 1256.61 1486.34 Q1256.61 1491.91 1253.14 1495.02 Q1249.67 1498.1 1243.35 1498.1 Q1241.17 1498.1 1238.9 1497.72 Q1236.66 1497.35 1234.25 1496.61 L1234.25 1491.91 Q1236.33 1493.05 1238.55 1493.6 Q1240.78 1494.16 1243.25 1494.16 Q1247.26 1494.16 1249.6 1492.05 Q1251.93 1489.95 1251.93 1486.34 Q1251.93 1482.72 1249.6 1480.62 Q1247.26 1478.51 1243.25 1478.51 Q1241.38 1478.51 1239.5 1478.93 Q1237.65 1479.35 1235.71 1480.22 L1235.71 1462.86 Z" fill="#000000" fill-rule="evenodd" fill-opacity="1" /><path clip-path="url(#clip010)" d="M 0 0 M1261.68 1491.54 L1266.56 1491.54 L1266.56 1497.42 L1261.68 1497.42 L1261.68 1491.54 Z" fill="#000000" fill-rule="evenodd" fill-opacity="1" /><path clip-path="url(#clip010)" d="M 0 0 M1271.68 1462.86 L1290.04 1462.86 L1290.04 1466.8 L1275.96 1466.8 L1275.96 1475.27 Q1276.98 1474.92 1278 1474.76 Q1279.02 1474.58 1280.04 1474.58 Q1285.82 1474.58 1289.2 1477.75 Q1292.58 1480.92 1292.58 1486.34 Q1292.58 1491.91 1289.11 1495.02 Q1285.64 1498.1 1279.32 1498.1 Q1277.14 1498.1 1274.87 1497.72 Q1272.63 1497.35 1270.22 1496.61 L1270.22 1491.91 Q1272.3 1493.05 1274.53 1493.6 Q1276.75 1494.16 1279.23 1494.16 Q1283.23 1494.16 1285.57 1492.05 Q1287.91 1489.95 1287.91 1486.34 Q1287.91 1482.72 1285.57 1480.62 Q1283.23 1478.51 1279.23 1478.51 Q1277.35 1478.51 1275.48 1478.93 Q1273.62 1479.35 1271.68 1480.22 L1271.68 1462.86 Z" fill="#000000" fill-rule="evenodd" fill-opacity="1" /><path clip-path="url(#clip010)" d="M 0 0 M1297.7 1462.86 L1316.05 1462.86 L1316.05 1466.8 L1301.98 1466.8 L1301.98 1475.27 Q1303 1474.92 1304.02 1474.76 Q1305.04 1474.58 1306.05 1474.58 Q1311.84 1474.58 1315.22 1477.75 Q1318.6 1480.92 1318.6 1486.34 Q1318.6 1491.91 1315.13 1495.02 Q1311.66 1498.1 1305.34 1498.1 Q1303.16 1498.1 1300.89 1497.72 Q1298.65 1497.35 1296.24 1496.61 L1296.24 1491.91 Q1298.32 1493.05 1300.54 1493.6 Q1302.77 1494.16 1305.24 1494.16 Q1309.25 1494.16 1311.59 1492.05 Q1313.92 1489.95 1313.92 1486.34 Q1313.92 1482.72 1311.59 1480.62 Q1309.25 1478.51 1305.24 1478.51 Q1303.37 1478.51 1301.49 1478.93 Q1299.64 1479.35 1297.7 1480.22 L1297.7 1462.86 Z" fill="#000000" fill-rule="evenodd" fill-opacity="1" /><path clip-path="url(#clip010)" d="M 0 0 M1333.67 1465.94 Q1330.06 1465.94 1328.23 1469.51 Q1326.42 1473.05 1326.42 1480.18 Q1326.42 1487.29 1328.23 1490.85 Q1330.06 1494.39 1333.67 1494.39 Q1337.3 1494.39 1339.11 1490.85 Q1340.94 1487.29 1340.94 1480.18 Q1340.94 1473.05 1339.11 1469.51 Q1337.3 1465.94 1333.67 1465.94 M1333.67 1462.24 Q1339.48 1462.24 1342.54 1466.85 Q1345.61 1471.43 1345.61 1480.18 Q1345.61 1488.91 1342.54 1493.51 Q1339.48 1498.1 1333.67 1498.1 Q1327.86 1498.1 1324.78 1493.51 Q1321.73 1488.91 1321.73 1480.18 Q1321.73 1471.43 1324.78 1466.85 Q1327.86 1462.24 1333.67 1462.24 Z" fill="#000000" fill-rule="evenodd" fill-opacity="1" /><path clip-path="url(#clip010)" d="M 0 0 M1378.85 1471.96 L1368.28 1482.59 L1378.85 1493.16 L1376.1 1495.97 L1365.47 1485.34 L1354.85 1495.97 L1352.12 1493.16 L1362.67 1482.59 L1352.12 1471.96 L1354.85 1469.16 L1365.47 1479.79 L1376.1 1469.16 L1378.85 1471.96 Z" fill="#000000" fill-rule="evenodd" fill-opacity="1" /><path clip-path="url(#clip010)" d="M 0 0 M1384.73 1493.49 L1392.37 1493.49 L1392.37 1467.12 L1384.06 1468.79 L1384.06 1464.53 L1392.33 1462.86 L1397 1462.86 L1397 1493.49 L1404.64 1493.49 L1404.64 1497.42 L1384.73 1497.42 L1384.73 1493.49 Z" fill="#000000" fill-rule="evenodd" fill-opacity="1" /><path clip-path="url(#clip010)" d="M 0 0 M1419.71 1465.94 Q1416.1 1465.94 1414.27 1469.51 Q1412.47 1473.05 1412.47 1480.18 Q1412.47 1487.29 1414.27 1490.85 Q1416.1 1494.39 1419.71 1494.39 Q1423.34 1494.39 1425.15 1490.85 Q1426.98 1487.29 1426.98 1480.18 Q1426.98 1473.05 1425.15 1469.51 Q1423.34 1465.94 1419.71 1465.94 M1419.71 1462.24 Q1425.52 1462.24 1428.58 1466.85 Q1431.66 1471.43 1431.66 1480.18 Q1431.66 1488.91 1428.58 1493.51 Q1425.52 1498.1 1419.71 1498.1 Q1413.9 1498.1 1410.82 1493.51 Q1407.77 1488.91 1407.77 1480.18 Q1407.77 1471.43 1410.82 1466.85 Q1413.9 1462.24 1419.71 1462.24 Z" fill="#000000" fill-rule="evenodd" fill-opacity="1" /><path clip-path="url(#clip010)" d="M 0 0 M1431.66 1456.34 L1455.77 1456.34 L1455.77 1459.54 L1431.66 1459.54 L1431.66 1456.34 Z" fill="#000000" fill-rule="evenodd" fill-opacity="1" /><path clip-path="url(#clip010)" d="M 0 0 M1459.92 1441.93 L1474.84 1441.93 L1474.84 1445.13 L1463.4 1445.13 L1463.4 1452.01 Q1464.23 1451.73 1465.06 1451.6 Q1465.89 1451.45 1466.71 1451.45 Q1471.41 1451.45 1474.16 1454.03 Q1476.91 1456.6 1476.91 1461 Q1476.91 1465.54 1474.09 1468.06 Q1471.26 1470.56 1466.13 1470.56 Q1464.36 1470.56 1462.52 1470.26 Q1460.69 1469.96 1458.74 1469.36 L1458.74 1465.54 Q1460.43 1466.46 1462.24 1466.91 Q1464.04 1467.36 1466.05 1467.36 Q1469.31 1467.36 1471.21 1465.65 Q1473.11 1463.94 1473.11 1461 Q1473.11 1458.07 1471.21 1456.36 Q1469.31 1454.65 1466.05 1454.65 Q1464.53 1454.65 1463.01 1454.99 Q1461.5 1455.32 1459.92 1456.04 L1459.92 1441.93 Z" fill="#000000" fill-rule="evenodd" fill-opacity="1" /><path clip-path="url(#clip010)" d="M 0 0 M1702.12 1462.86 L1724.34 1462.86 L1724.34 1464.85 L1711.79 1497.42 L1706.91 1497.42 L1718.71 1466.8 L1702.12 1466.8 L1702.12 1462.86 Z" fill="#000000" fill-rule="evenodd" fill-opacity="1" /><path clip-path="url(#clip010)" d="M 0 0 M1729.41 1491.54 L1734.29 1491.54 L1734.29 1497.42 L1729.41 1497.42 L1729.41 1491.54 Z" fill="#000000" fill-rule="evenodd" fill-opacity="1" /><path clip-path="url(#clip010)" d="M 0 0 M1738.18 1462.86 L1760.4 1462.86 L1760.4 1464.85 L1747.86 1497.42 L1742.97 1497.42 L1754.78 1466.8 L1738.18 1466.8 L1738.18 1462.86 Z" fill="#000000" fill-rule="evenodd" fill-opacity="1" /><path clip-path="url(#clip010)" d="M 0 0 M1764.29 1462.86 L1786.52 1462.86 L1786.52 1464.85 L1773.97 1497.42 L1769.08 1497.42 L1780.89 1466.8 L1764.29 1466.8 L1764.29 1462.86 Z" fill="#000000" fill-rule="evenodd" fill-opacity="1" /><path clip-path="url(#clip010)" d="M 0 0 M1791.63 1462.86 L1809.99 1462.86 L1809.99 1466.8 L1795.91 1466.8 L1795.91 1475.27 Q1796.93 1474.92 1797.95 1474.76 Q1798.97 1474.58 1799.99 1474.58 Q1805.77 1474.58 1809.15 1477.75 Q1812.53 1480.92 1812.53 1486.34 Q1812.53 1491.91 1809.06 1495.02 Q1805.59 1498.1 1799.27 1498.1 Q1797.09 1498.1 1794.83 1497.72 Q1792.58 1497.35 1790.17 1496.61 L1790.17 1491.91 Q1792.26 1493.05 1794.48 1493.6 Q1796.7 1494.16 1799.18 1494.16 Q1803.18 1494.16 1805.52 1492.05 Q1807.86 1489.95 1807.86 1486.34 Q1807.86 1482.72 1805.52 1480.62 Q1803.18 1478.51 1799.18 1478.51 Q1797.3 1478.51 1795.43 1478.93 Q1793.58 1479.35 1791.63 1480.22 L1791.63 1462.86 Z" fill="#000000" fill-rule="evenodd" fill-opacity="1" /><path clip-path="url(#clip010)" d="M 0 0 M1845.77 1471.96 L1835.2 1482.59 L1845.77 1493.16 L1843.02 1495.97 L1832.39 1485.34 L1821.77 1495.97 L1819.04 1493.16 L1829.59 1482.59 L1819.04 1471.96 L1821.77 1469.16 L1832.39 1479.79 L1843.02 1469.16 L1845.77 1471.96 Z" fill="#000000" fill-rule="evenodd" fill-opacity="1" /><path clip-path="url(#clip010)" d="M 0 0 M1851.65 1493.49 L1859.29 1493.49 L1859.29 1467.12 L1850.98 1468.79 L1850.98 1464.53 L1859.25 1462.86 L1863.92 1462.86 L1863.92 1493.49 L1871.56 1493.49 L1871.56 1497.42 L1851.65 1497.42 L1851.65 1493.49 Z" fill="#000000" fill-rule="evenodd" fill-opacity="1" /><path clip-path="url(#clip010)" d="M 0 0 M1886.63 1465.94 Q1883.02 1465.94 1881.19 1469.51 Q1879.39 1473.05 1879.39 1480.18 Q1879.39 1487.29 1881.19 1490.85 Q1883.02 1494.39 1886.63 1494.39 Q1890.26 1494.39 1892.07 1490.85 Q1893.9 1487.29 1893.9 1480.18 Q1893.9 1473.05 1892.07 1469.51 Q1890.26 1465.94 1886.63 1465.94 M1886.63 1462.24 Q1892.44 1462.24 1895.5 1466.85 Q1898.58 1471.43 1898.58 1480.18 Q1898.58 1488.91 1895.5 1493.51 Q1892.44 1498.1 1886.63 1498.1 Q1880.82 1498.1 1877.74 1493.51 Q1874.69 1488.91 1874.69 1480.18 Q1874.69 1471.43 1877.74 1466.85 Q1880.82 1462.24 1886.63 1462.24 Z" fill="#000000" fill-rule="evenodd" fill-opacity="1" /><path clip-path="url(#clip010)" d="M 0 0 M1898.58 1456.34 L1922.69 1456.34 L1922.69 1459.54 L1898.58 1459.54 L1898.58 1456.34 Z" fill="#000000" fill-rule="evenodd" fill-opacity="1" /><path clip-path="url(#clip010)" d="M 0 0 M1926.84 1441.93 L1941.76 1441.93 L1941.76 1445.13 L1930.32 1445.13 L1930.32 1452.01 Q1931.15 1451.73 1931.98 1451.6 Q1932.81 1451.45 1933.63 1451.45 Q1938.33 1451.45 1941.08 1454.03 Q1943.83 1456.6 1943.83 1461 Q1943.83 1465.54 1941.01 1468.06 Q1938.18 1470.56 1933.05 1470.56 Q1931.28 1470.56 1929.44 1470.26 Q1927.61 1469.96 1925.66 1469.36 L1925.66 1465.54 Q1927.35 1466.46 1929.16 1466.91 Q1930.96 1467.36 1932.97 1467.36 Q1936.23 1467.36 1938.13 1465.65 Q1940.03 1463.94 1940.03 1461 Q1940.03 1458.07 1938.13 1456.36 Q1936.23 1454.65 1932.97 1454.65 Q1931.45 1454.65 1929.93 1454.99 Q1928.42 1455.32 1926.84 1456.04 L1926.84 1441.93 Z" fill="#000000" fill-rule="evenodd" fill-opacity="1" /><path clip-path="url(#clip010)" d="M 0 0 M2169 1493.49 L2176.64 1493.49 L2176.64 1467.12 L2168.33 1468.79 L2168.33 1464.53 L2176.6 1462.86 L2181.27 1462.86 L2181.27 1493.49 L2188.91 1493.49 L2188.91 1497.42 L2169 1497.42 L2169 1493.49 Z" fill="#000000" fill-rule="evenodd" fill-opacity="1" /><path clip-path="url(#clip010)" d="M 0 0 M2193.98 1491.54 L2198.86 1491.54 L2198.86 1497.42 L2193.98 1497.42 L2193.98 1491.54 Z" fill="#000000" fill-rule="evenodd" fill-opacity="1" /><path clip-path="url(#clip010)" d="M 0 0 M2213.93 1465.94 Q2210.32 1465.94 2208.49 1469.51 Q2206.69 1473.05 2206.69 1480.18 Q2206.69 1487.29 2208.49 1490.85 Q2210.32 1494.39 2213.93 1494.39 Q2217.57 1494.39 2219.37 1490.85 Q2221.2 1487.29 2221.2 1480.18 Q2221.2 1473.05 2219.37 1469.51 Q2217.57 1465.94 2213.93 1465.94 M2213.93 1462.24 Q2219.74 1462.24 2222.8 1466.85 Q2225.88 1471.43 2225.88 1480.18 Q2225.88 1488.91 2222.8 1493.51 Q2219.74 1498.1 2213.93 1498.1 Q2208.12 1498.1 2205.04 1493.51 Q2201.99 1488.91 2201.99 1480.18 Q2201.99 1471.43 2205.04 1466.85 Q2208.12 1462.24 2213.93 1462.24 Z" fill="#000000" fill-rule="evenodd" fill-opacity="1" /><path clip-path="url(#clip010)" d="M 0 0 M2240.95 1465.94 Q2237.34 1465.94 2235.51 1469.51 Q2233.7 1473.05 2233.7 1480.18 Q2233.7 1487.29 2235.51 1490.85 Q2237.34 1494.39 2240.95 1494.39 Q2244.58 1494.39 2246.39 1490.85 Q2248.22 1487.29 2248.22 1480.18 Q2248.22 1473.05 2246.39 1469.51 Q2244.58 1465.94 2240.95 1465.94 M2240.95 1462.24 Q2246.76 1462.24 2249.81 1466.85 Q2252.89 1471.43 2252.89 1480.18 Q2252.89 1488.91 2249.81 1493.51 Q2246.76 1498.1 2240.95 1498.1 Q2235.14 1498.1 2232.06 1493.51 Q2229 1488.91 2229 1480.18 Q2229 1471.43 2232.06 1466.85 Q2235.14 1462.24 2240.95 1462.24 Z" fill="#000000" fill-rule="evenodd" fill-opacity="1" /><path clip-path="url(#clip010)" d="M 0 0 M2267.96 1465.94 Q2264.35 1465.94 2262.52 1469.51 Q2260.72 1473.05 2260.72 1480.18 Q2260.72 1487.29 2262.52 1490.85 Q2264.35 1494.39 2267.96 1494.39 Q2271.6 1494.39 2273.4 1490.85 Q2275.23 1487.29 2275.23 1480.18 Q2275.23 1473.05 2273.4 1469.51 Q2271.6 1465.94 2267.96 1465.94 M2267.96 1462.24 Q2273.77 1462.24 2276.83 1466.85 Q2279.91 1471.43 2279.91 1480.18 Q2279.91 1488.91 2276.83 1493.51 Q2273.77 1498.1 2267.96 1498.1 Q2262.15 1498.1 2259.07 1493.51 Q2256.02 1488.91 2256.02 1480.18 Q2256.02 1471.43 2259.07 1466.85 Q2262.15 1462.24 2267.96 1462.24 Z" fill="#000000" fill-rule="evenodd" fill-opacity="1" /><path clip-path="url(#clip010)" d="M 0 0 M2313.15 1471.96 L2302.57 1482.59 L2313.15 1493.16 L2310.39 1495.97 L2299.77 1485.34 L2289.14 1495.97 L2286.41 1493.16 L2296.97 1482.59 L2286.41 1471.96 L2289.14 1469.16 L2299.77 1479.79 L2310.39 1469.16 L2313.15 1471.96 Z" fill="#000000" fill-rule="evenodd" fill-opacity="1" /><path clip-path="url(#clip010)" d="M 0 0 M2319.03 1493.49 L2326.66 1493.49 L2326.66 1467.12 L2318.35 1468.79 L2318.35 1464.53 L2326.62 1462.86 L2331.29 1462.86 L2331.29 1493.49 L2338.93 1493.49 L2338.93 1497.42 L2319.03 1497.42 L2319.03 1493.49 Z" fill="#000000" fill-rule="evenodd" fill-opacity="1" /><path clip-path="url(#clip010)" d="M 0 0 M2354 1465.94 Q2350.39 1465.94 2348.56 1469.51 Q2346.76 1473.05 2346.76 1480.18 Q2346.76 1487.29 2348.56 1490.85 Q2350.39 1494.39 2354 1494.39 Q2357.64 1494.39 2359.44 1490.85 Q2361.27 1487.29 2361.27 1480.18 Q2361.27 1473.05 2359.44 1469.51 Q2357.64 1465.94 2354 1465.94 M2354 1462.24 Q2359.81 1462.24 2362.87 1466.85 Q2365.95 1471.43 2365.95 1480.18 Q2365.95 1488.91 2362.87 1493.51 Q2359.81 1498.1 2354 1498.1 Q2348.19 1498.1 2345.11 1493.51 Q2342.06 1488.91 2342.06 1480.18 Q2342.06 1471.43 2345.11 1466.85 Q2348.19 1462.24 2354 1462.24 Z" fill="#000000" fill-rule="evenodd" fill-opacity="1" /><path clip-path="url(#clip010)" d="M 0 0 M2365.95 1456.34 L2390.06 1456.34 L2390.06 1459.54 L2365.95 1459.54 L2365.95 1456.34 Z" fill="#000000" fill-rule="evenodd" fill-opacity="1" /><path clip-path="url(#clip010)" d="M 0 0 M2404.62 1445.24 L2395.02 1460.23 L2404.62 1460.23 L2404.62 1445.24 M2403.62 1441.93 L2408.4 1441.93 L2408.4 1460.23 L2412.4 1460.23 L2412.4 1463.39 L2408.4 1463.39 L2408.4 1470.01 L2404.62 1470.01 L2404.62 1463.39 L2391.94 1463.39 L2391.94 1459.73 L2403.62 1441.93 Z" fill="#000000" fill-rule="evenodd" fill-opacity="1" /><path clip-path="url(#clip010)" d="M 0 0 M889.132 1530.12 L925.677 1530.12 L925.677 1535.04 L910.342 1535.04 L910.342 1573.32 L904.468 1573.32 L904.468 1535.04 L889.132 1535.04 L889.132 1530.12 Z" fill="#000000" fill-rule="evenodd" fill-opacity="1" /><path clip-path="url(#clip010)" d="M 0 0 M958.2 1553.76 L958.2 1573.32 L952.876 1573.32 L952.876 1553.93 Q952.876 1549.33 951.082 1547.05 Q949.288 1544.76 945.7 1544.76 Q941.389 1544.76 938.9 1547.51 Q936.412 1550.26 936.412 1555.01 L936.412 1573.32 L931.059 1573.32 L931.059 1528.3 L936.412 1528.3 L936.412 1545.95 Q938.322 1543.03 940.897 1541.58 Q943.501 1540.13 946.886 1540.13 Q952.471 1540.13 955.336 1543.61 Q958.2 1547.05 958.2 1553.76 Z" fill="#000000" fill-rule="evenodd" fill-opacity="1" /><path clip-path="url(#clip010)" d="M 0 0 M982.563 1545.89 Q981.666 1545.37 980.596 1545.14 Q979.554 1544.88 978.281 1544.88 Q973.767 1544.88 971.337 1547.83 Q968.935 1550.75 968.935 1556.25 L968.935 1573.32 L963.582 1573.32 L963.582 1540.91 L968.935 1540.91 L968.935 1545.95 Q970.613 1543 973.304 1541.58 Q975.995 1540.13 979.843 1540.13 Q980.393 1540.13 981.059 1540.22 Q981.724 1540.28 982.534 1540.42 L982.563 1545.89 Z" fill="#000000" fill-rule="evenodd" fill-opacity="1" /><path clip-path="url(#clip010)" d="M 0 0 M1014.57 1555.79 L1014.57 1558.39 L990.086 1558.39 Q990.434 1563.89 993.385 1566.78 Q996.365 1569.65 1001.66 1569.65 Q1004.73 1569.65 1007.59 1568.89 Q1010.49 1568.14 1013.32 1566.64 L1013.32 1571.67 Q1010.46 1572.89 1007.45 1573.52 Q1004.44 1574.16 1001.34 1574.16 Q993.588 1574.16 989.045 1569.65 Q984.531 1565.13 984.531 1557.44 Q984.531 1549.48 988.813 1544.82 Q993.125 1540.13 1000.42 1540.13 Q1006.96 1540.13 1010.75 1544.36 Q1014.57 1548.55 1014.57 1555.79 M1009.24 1554.22 Q1009.18 1549.86 1006.78 1547.25 Q1004.41 1544.65 1000.47 1544.65 Q996.018 1544.65 993.327 1547.16 Q990.665 1549.68 990.26 1554.25 L1009.24 1554.22 Z" fill="#000000" fill-rule="evenodd" fill-opacity="1" /><path clip-path="url(#clip010)" d="M 0 0 M1040.81 1541.87 L1040.81 1546.9 Q1038.55 1545.75 1036.12 1545.17 Q1033.69 1544.59 1031.09 1544.59 Q1027.12 1544.59 1025.13 1545.8 Q1023.16 1547.02 1023.16 1549.45 Q1023.16 1551.3 1024.58 1552.37 Q1025.99 1553.41 1030.28 1554.37 L1032.1 1554.77 Q1037.77 1555.99 1040.14 1558.22 Q1042.55 1560.42 1042.55 1564.38 Q1042.55 1568.89 1038.96 1571.53 Q1035.4 1574.16 1029.15 1574.16 Q1026.54 1574.16 1023.71 1573.64 Q1020.9 1573.15 1017.78 1572.14 L1017.78 1566.64 Q1020.73 1568.17 1023.59 1568.95 Q1026.46 1569.7 1029.26 1569.7 Q1033.03 1569.7 1035.05 1568.43 Q1037.08 1567.13 1037.08 1564.79 Q1037.08 1562.62 1035.6 1561.46 Q1034.15 1560.3 1029.21 1559.23 L1027.35 1558.8 Q1022.41 1557.75 1020.21 1555.61 Q1018.01 1553.44 1018.01 1549.68 Q1018.01 1545.11 1021.25 1542.62 Q1024.49 1540.13 1030.45 1540.13 Q1033.4 1540.13 1036.01 1540.57 Q1038.61 1541 1040.81 1541.87 Z" fill="#000000" fill-rule="evenodd" fill-opacity="1" /><path clip-path="url(#clip010)" d="M 0 0 M1075.07 1553.76 L1075.07 1573.32 L1069.74 1573.32 L1069.74 1553.93 Q1069.74 1549.33 1067.95 1547.05 Q1066.16 1544.76 1062.57 1544.76 Q1058.26 1544.76 1055.77 1547.51 Q1053.28 1550.26 1053.28 1555.01 L1053.28 1573.32 L1047.93 1573.32 L1047.93 1528.3 L1053.28 1528.3 L1053.28 1545.95 Q1055.19 1543.03 1057.77 1541.58 Q1060.37 1540.13 1063.76 1540.13 Q1069.34 1540.13 1072.2 1543.61 Q1075.07 1547.05 1075.07 1553.76 Z" fill="#000000" fill-rule="evenodd" fill-opacity="1" /><path clip-path="url(#clip010)" d="M 0 0 M1093.21 1544.65 Q1088.93 1544.65 1086.44 1548 Q1083.95 1551.33 1083.95 1557.15 Q1083.95 1562.96 1086.41 1566.32 Q1088.9 1569.65 1093.21 1569.65 Q1097.46 1569.65 1099.95 1566.29 Q1102.44 1562.93 1102.44 1557.15 Q1102.44 1551.39 1099.95 1548.03 Q1097.46 1544.65 1093.21 1544.65 M1093.21 1540.13 Q1100.16 1540.13 1104.12 1544.65 Q1108.08 1549.16 1108.08 1557.15 Q1108.08 1565.1 1104.12 1569.65 Q1100.16 1574.16 1093.21 1574.16 Q1086.24 1574.16 1082.27 1569.65 Q1078.34 1565.1 1078.34 1557.15 Q1078.34 1549.16 1082.27 1544.65 Q1086.24 1540.13 1093.21 1540.13 Z" fill="#000000" fill-rule="evenodd" fill-opacity="1" /><path clip-path="url(#clip010)" d="M 0 0 M1113.67 1528.3 L1118.99 1528.3 L1118.99 1573.32 L1113.67 1573.32 L1113.67 1528.3 Z" fill="#000000" fill-rule="evenodd" fill-opacity="1" /><path clip-path="url(#clip010)" d="M 0 0 M1145.9 1545.83 L1145.9 1528.3 L1151.23 1528.3 L1151.23 1573.32 L1145.9 1573.32 L1145.9 1568.46 Q1144.22 1571.35 1141.65 1572.77 Q1139.1 1574.16 1135.51 1574.16 Q1129.64 1574.16 1125.94 1569.47 Q1122.26 1564.79 1122.26 1557.15 Q1122.26 1549.51 1125.94 1544.82 Q1129.64 1540.13 1135.51 1540.13 Q1139.1 1540.13 1141.65 1541.55 Q1144.22 1542.94 1145.9 1545.83 M1127.76 1557.15 Q1127.76 1563.02 1130.16 1566.38 Q1132.59 1569.7 1136.82 1569.7 Q1141.04 1569.7 1143.47 1566.38 Q1145.9 1563.02 1145.9 1557.15 Q1145.9 1551.27 1143.47 1547.95 Q1141.04 1544.59 1136.82 1544.59 Q1132.59 1544.59 1130.16 1547.95 Q1127.76 1551.27 1127.76 1557.15 Z" fill="#000000" fill-rule="evenodd" fill-opacity="1" /><path clip-path="url(#clip010)" d="M 0 0 M1188.2 1544.65 Q1183.92 1544.65 1181.43 1548 Q1178.95 1551.33 1178.95 1557.15 Q1178.95 1562.96 1181.4 1566.32 Q1183.89 1569.65 1188.2 1569.65 Q1192.46 1569.65 1194.95 1566.29 Q1197.43 1562.93 1197.43 1557.15 Q1197.43 1551.39 1194.95 1548.03 Q1192.46 1544.65 1188.2 1544.65 M1188.2 1540.13 Q1195.15 1540.13 1199.11 1544.65 Q1203.08 1549.16 1203.08 1557.15 Q1203.08 1565.1 1199.11 1569.65 Q1195.15 1574.16 1188.2 1574.16 Q1181.23 1574.16 1177.27 1569.65 Q1173.33 1565.1 1173.33 1557.15 Q1173.33 1549.16 1177.27 1544.65 Q1181.23 1540.13 1188.2 1540.13 Z" fill="#000000" fill-rule="evenodd" fill-opacity="1" /><path clip-path="url(#clip010)" d="M 0 0 M1225.07 1528.3 L1225.07 1532.73 L1219.98 1532.73 Q1217.11 1532.73 1215.98 1533.88 Q1214.88 1535.04 1214.88 1538.05 L1214.88 1540.91 L1223.65 1540.91 L1223.65 1545.05 L1214.88 1545.05 L1214.88 1573.32 L1209.53 1573.32 L1209.53 1545.05 L1204.44 1545.05 L1204.44 1540.91 L1209.53 1540.91 L1209.53 1538.66 Q1209.53 1533.25 1212.05 1530.79 Q1214.56 1528.3 1220.03 1528.3 L1225.07 1528.3 Z" fill="#000000" fill-rule="evenodd" fill-opacity="1" /><path clip-path="url(#clip010)" d="M 0 0 M1277.21 1555.79 L1277.21 1558.39 L1252.73 1558.39 Q1253.08 1563.89 1256.03 1566.78 Q1259.01 1569.65 1264.3 1569.65 Q1267.37 1569.65 1270.24 1568.89 Q1273.13 1568.14 1275.96 1566.64 L1275.96 1571.67 Q1273.1 1572.89 1270.09 1573.52 Q1267.08 1574.16 1263.99 1574.16 Q1256.23 1574.16 1251.69 1569.65 Q1247.17 1565.13 1247.17 1557.44 Q1247.17 1549.48 1251.46 1544.82 Q1255.77 1540.13 1263.06 1540.13 Q1269.6 1540.13 1273.39 1544.36 Q1277.21 1548.55 1277.21 1555.79 M1271.88 1554.22 Q1271.83 1549.86 1269.43 1547.25 Q1267.05 1544.65 1263.12 1544.65 Q1258.66 1544.65 1255.97 1547.16 Q1253.31 1549.68 1252.9 1554.25 L1271.88 1554.22 Z" fill="#000000" fill-rule="evenodd" fill-opacity="1" /><path clip-path="url(#clip010)" d="M 0 0 M1308.69 1540.91 L1296.97 1556.68 L1309.3 1573.32 L1303.02 1573.32 L1293.59 1560.59 L1284.15 1573.32 L1277.87 1573.32 L1290.46 1556.37 L1278.94 1540.91 L1285.22 1540.91 L1293.82 1552.46 L1302.41 1540.91 L1308.69 1540.91 Z" fill="#000000" fill-rule="evenodd" fill-opacity="1" /><path clip-path="url(#clip010)" d="M 0 0 M1320.03 1568.46 L1320.03 1585.65 L1314.68 1585.65 L1314.68 1540.91 L1320.03 1540.91 L1320.03 1545.83 Q1321.71 1542.94 1324.26 1541.55 Q1326.83 1540.13 1330.39 1540.13 Q1336.29 1540.13 1339.97 1544.82 Q1343.67 1549.51 1343.67 1557.15 Q1343.67 1564.79 1339.97 1569.47 Q1336.29 1574.16 1330.39 1574.16 Q1326.83 1574.16 1324.26 1572.77 Q1321.71 1571.35 1320.03 1568.46 M1338.15 1557.15 Q1338.15 1551.27 1335.72 1547.95 Q1333.31 1544.59 1329.09 1544.59 Q1324.86 1544.59 1322.43 1547.95 Q1320.03 1551.27 1320.03 1557.15 Q1320.03 1563.02 1322.43 1566.38 Q1324.86 1569.7 1329.09 1569.7 Q1333.31 1569.7 1335.72 1566.38 Q1338.15 1563.02 1338.15 1557.15 Z" fill="#000000" fill-rule="evenodd" fill-opacity="1" /><path clip-path="url(#clip010)" d="M 0 0 M1376.98 1555.79 L1376.98 1558.39 L1352.5 1558.39 Q1352.84 1563.89 1355.8 1566.78 Q1358.78 1569.65 1364.07 1569.65 Q1367.14 1569.65 1370 1568.89 Q1372.9 1568.14 1375.73 1566.64 L1375.73 1571.67 Q1372.87 1572.89 1369.86 1573.52 Q1366.85 1574.16 1363.75 1574.16 Q1356 1574.16 1351.46 1569.65 Q1346.94 1565.13 1346.94 1557.44 Q1346.94 1549.48 1351.22 1544.82 Q1355.54 1540.13 1362.83 1540.13 Q1369.37 1540.13 1373.16 1544.36 Q1376.98 1548.55 1376.98 1555.79 M1371.65 1554.22 Q1371.59 1549.86 1369.19 1547.25 Q1366.82 1544.65 1362.89 1544.65 Q1358.43 1544.65 1355.74 1547.16 Q1353.08 1549.68 1352.67 1554.25 L1371.65 1554.22 Z" fill="#000000" fill-rule="evenodd" fill-opacity="1" /><path clip-path="url(#clip010)" d="M 0 0 M1405.88 1542.16 L1405.88 1547.14 Q1403.63 1545.89 1401.34 1545.28 Q1399.08 1544.65 1396.77 1544.65 Q1391.59 1544.65 1388.72 1547.95 Q1385.86 1551.22 1385.86 1557.15 Q1385.86 1563.08 1388.72 1566.38 Q1391.59 1569.65 1396.77 1569.65 Q1399.08 1569.65 1401.34 1569.04 Q1403.63 1568.4 1405.88 1567.16 L1405.88 1572.08 Q1403.65 1573.12 1401.25 1573.64 Q1398.88 1574.16 1396.19 1574.16 Q1388.87 1574.16 1384.56 1569.56 Q1380.25 1564.96 1380.25 1557.15 Q1380.25 1549.22 1384.59 1544.68 Q1388.96 1540.13 1396.54 1540.13 Q1399 1540.13 1401.34 1540.65 Q1403.68 1541.15 1405.88 1542.16 Z" fill="#000000" fill-rule="evenodd" fill-opacity="1" /><path clip-path="url(#clip010)" d="M 0 0 M1416.73 1531.71 L1416.73 1540.91 L1427.7 1540.91 L1427.7 1545.05 L1416.73 1545.05 L1416.73 1562.64 Q1416.73 1566.61 1417.8 1567.74 Q1418.9 1568.87 1422.23 1568.87 L1427.7 1568.87 L1427.7 1573.32 L1422.23 1573.32 Q1416.07 1573.32 1413.72 1571.04 Q1411.38 1568.72 1411.38 1562.64 L1411.38 1545.05 L1407.47 1545.05 L1407.47 1540.91 L1411.38 1540.91 L1411.38 1531.71 L1416.73 1531.71 Z" fill="#000000" fill-rule="evenodd" fill-opacity="1" /><path clip-path="url(#clip010)" d="M 0 0 M1461 1555.79 L1461 1558.39 L1436.53 1558.39 Q1436.87 1563.89 1439.82 1566.78 Q1442.8 1569.65 1448.1 1569.65 Q1451.17 1569.65 1454.03 1568.89 Q1456.92 1568.14 1459.76 1566.64 L1459.76 1571.67 Q1456.9 1572.89 1453.89 1573.52 Q1450.88 1574.16 1447.78 1574.16 Q1440.03 1574.16 1435.48 1569.65 Q1430.97 1565.13 1430.97 1557.44 Q1430.97 1549.48 1435.25 1544.82 Q1439.56 1540.13 1446.85 1540.13 Q1453.39 1540.13 1457.18 1544.36 Q1461 1548.55 1461 1555.79 M1455.68 1554.22 Q1455.62 1549.86 1453.22 1547.25 Q1450.85 1544.65 1446.91 1544.65 Q1442.46 1544.65 1439.77 1547.16 Q1437.1 1549.68 1436.7 1554.25 L1455.68 1554.22 Z" fill="#000000" fill-rule="evenodd" fill-opacity="1" /><path clip-path="url(#clip010)" d="M 0 0 M1487.91 1545.83 L1487.91 1528.3 L1493.24 1528.3 L1493.24 1573.32 L1487.91 1573.32 L1487.91 1568.46 Q1486.24 1571.35 1483.66 1572.77 Q1481.11 1574.16 1477.53 1574.16 Q1471.65 1574.16 1467.95 1569.47 Q1464.27 1564.79 1464.27 1557.15 Q1464.27 1549.51 1467.95 1544.82 Q1471.65 1540.13 1477.53 1540.13 Q1481.11 1540.13 1483.66 1541.55 Q1486.24 1542.94 1487.91 1545.83 M1469.77 1557.15 Q1469.77 1563.02 1472.17 1566.38 Q1474.6 1569.7 1478.83 1569.7 Q1483.05 1569.7 1485.48 1566.38 Q1487.91 1563.02 1487.91 1557.15 Q1487.91 1551.27 1485.48 1547.95 Q1483.05 1544.59 1478.83 1544.59 Q1474.6 1544.59 1472.17 1547.95 Q1469.77 1551.27 1469.77 1557.15 Z" fill="#000000" fill-rule="evenodd" fill-opacity="1" /><path clip-path="url(#clip010)" d="M 0 0 M1517.66 1528.3 L1522.98 1528.3 L1522.98 1573.32 L1517.66 1573.32 L1517.66 1528.3 Z" fill="#000000" fill-rule="evenodd" fill-opacity="1" /><path clip-path="url(#clip010)" d="M 0 0 M1541.13 1544.65 Q1536.84 1544.65 1534.35 1548 Q1531.87 1551.33 1531.87 1557.15 Q1531.87 1562.96 1534.33 1566.32 Q1536.81 1569.65 1541.13 1569.65 Q1545.38 1569.65 1547.87 1566.29 Q1550.36 1562.93 1550.36 1557.15 Q1550.36 1551.39 1547.87 1548.03 Q1545.38 1544.65 1541.13 1544.65 M1541.13 1540.13 Q1548.07 1540.13 1552.03 1544.65 Q1556 1549.16 1556 1557.15 Q1556 1565.1 1552.03 1569.65 Q1548.07 1574.16 1541.13 1574.16 Q1534.15 1574.16 1530.19 1569.65 Q1526.25 1565.1 1526.25 1557.15 Q1526.25 1549.16 1530.19 1544.65 Q1534.15 1540.13 1541.13 1540.13 Z" fill="#000000" fill-rule="evenodd" fill-opacity="1" /><path clip-path="url(#clip010)" d="M 0 0 M1582.24 1541.87 L1582.24 1546.9 Q1579.98 1545.75 1577.55 1545.17 Q1575.12 1544.59 1572.52 1544.59 Q1568.56 1544.59 1566.56 1545.8 Q1564.59 1547.02 1564.59 1549.45 Q1564.59 1551.3 1566.01 1552.37 Q1567.43 1553.41 1571.71 1554.37 L1573.53 1554.77 Q1579.2 1555.99 1581.58 1558.22 Q1583.98 1560.42 1583.98 1564.38 Q1583.98 1568.89 1580.39 1571.53 Q1576.83 1574.16 1570.58 1574.16 Q1567.98 1574.16 1565.14 1573.64 Q1562.33 1573.15 1559.21 1572.14 L1559.21 1566.64 Q1562.16 1568.17 1565.03 1568.95 Q1567.89 1569.7 1570.7 1569.7 Q1574.46 1569.7 1576.48 1568.43 Q1578.51 1567.13 1578.51 1564.79 Q1578.51 1562.62 1577.03 1561.46 Q1575.59 1560.3 1570.64 1559.23 L1568.79 1558.8 Q1563.84 1557.75 1561.64 1555.61 Q1559.44 1553.44 1559.44 1549.68 Q1559.44 1545.11 1562.68 1542.62 Q1565.92 1540.13 1571.88 1540.13 Q1574.83 1540.13 1577.44 1540.57 Q1580.04 1541 1582.24 1541.87 Z" fill="#000000" fill-rule="evenodd" fill-opacity="1" /><path clip-path="url(#clip010)" d="M 0 0 M1610.22 1541.87 L1610.22 1546.9 Q1607.97 1545.75 1605.53 1545.17 Q1603.1 1544.59 1600.5 1544.59 Q1596.54 1544.59 1594.54 1545.8 Q1592.57 1547.02 1592.57 1549.45 Q1592.57 1551.3 1593.99 1552.37 Q1595.41 1553.41 1599.69 1554.37 L1601.51 1554.77 Q1607.18 1555.99 1609.56 1558.22 Q1611.96 1560.42 1611.96 1564.38 Q1611.96 1568.89 1608.37 1571.53 Q1604.81 1574.16 1598.56 1574.16 Q1595.96 1574.16 1593.12 1573.64 Q1590.31 1573.15 1587.19 1572.14 L1587.19 1566.64 Q1590.14 1568.17 1593.01 1568.95 Q1595.87 1569.7 1598.68 1569.7 Q1602.44 1569.7 1604.46 1568.43 Q1606.49 1567.13 1606.49 1564.79 Q1606.49 1562.62 1605.01 1561.46 Q1603.57 1560.3 1598.62 1559.23 L1596.77 1558.8 Q1591.82 1557.75 1589.62 1555.61 Q1587.42 1553.44 1587.42 1549.68 Q1587.42 1545.11 1590.66 1542.62 Q1593.9 1540.13 1599.86 1540.13 Q1602.81 1540.13 1605.42 1540.57 Q1608.02 1541 1610.22 1541.87 Z" fill="#000000" fill-rule="evenodd" fill-opacity="1" /><polyline clip-path="url(#clip012)" style="stroke:#000000; stroke-width:2; stroke-opacity:0.1; fill:none" points="
  148.334,1378.66 2352.76,1378.66 
  "/>
<polyline clip-path="url(#clip012)" style="stroke:#000000; stroke-width:2; stroke-opacity:0.1; fill:none" points="
  148.334,1113.74 2352.76,1113.74 
  "/>
<polyline clip-path="url(#clip012)" style="stroke:#000000; stroke-width:2; stroke-opacity:0.1; fill:none" points="
  148.334,848.82 2352.76,848.82 
  "/>
<polyline clip-path="url(#clip012)" style="stroke:#000000; stroke-width:2; stroke-opacity:0.1; fill:none" points="
  148.334,583.901 2352.76,583.901 
  "/>
<polyline clip-path="url(#clip012)" style="stroke:#000000; stroke-width:2; stroke-opacity:0.1; fill:none" points="
  148.334,318.982 2352.76,318.982 
  "/>
<polyline clip-path="url(#clip010)" style="stroke:#000000; stroke-width:4; stroke-opacity:1; fill:none" points="
  148.334,1415.22 148.334,123.472 
  "/>
<polyline clip-path="url(#clip010)" style="stroke:#000000; stroke-width:4; stroke-opacity:1; fill:none" points="
  148.334,1378.66 174.787,1378.66 
  "/>
<polyline clip-path="url(#clip010)" style="stroke:#000000; stroke-width:4; stroke-opacity:1; fill:none" points="
  148.334,1113.74 174.787,1113.74 
  "/>
<polyline clip-path="url(#clip010)" style="stroke:#000000; stroke-width:4; stroke-opacity:1; fill:none" points="
  148.334,848.82 174.787,848.82 
  "/>
<polyline clip-path="url(#clip010)" style="stroke:#000000; stroke-width:4; stroke-opacity:1; fill:none" points="
  148.334,583.901 174.787,583.901 
  "/>
<polyline clip-path="url(#clip010)" style="stroke:#000000; stroke-width:4; stroke-opacity:1; fill:none" points="
  148.334,318.982 174.787,318.982 
  "/>
<path clip-path="url(#clip010)" d="M 0 0 M63.4226 1364.46 Q59.8115 1364.46 57.9828 1368.02 Q56.1773 1371.56 56.1773 1378.69 Q56.1773 1385.8 57.9828 1389.36 Q59.8115 1392.91 63.4226 1392.91 Q67.0569 1392.91 68.8624 1389.36 Q70.6911 1385.8 70.6911 1378.69 Q70.6911 1371.56 68.8624 1368.02 Q67.0569 1364.46 63.4226 1364.46 M63.4226 1360.75 Q69.2328 1360.75 72.2883 1365.36 Q75.367 1369.94 75.367 1378.69 Q75.367 1387.42 72.2883 1392.03 Q69.2328 1396.61 63.4226 1396.61 Q57.6125 1396.61 54.5338 1392.03 Q51.4782 1387.42 51.4782 1378.69 Q51.4782 1369.94 54.5338 1365.36 Q57.6125 1360.75 63.4226 1360.75 Z" fill="#000000" fill-rule="evenodd" fill-opacity="1" /><path clip-path="url(#clip010)" d="M 0 0 M80.4364 1390.06 L85.3206 1390.06 L85.3206 1395.94 L80.4364 1395.94 L80.4364 1390.06 Z" fill="#000000" fill-rule="evenodd" fill-opacity="1" /><path clip-path="url(#clip010)" d="M 0 0 M100.39 1364.46 Q96.7789 1364.46 94.9502 1368.02 Q93.1447 1371.56 93.1447 1378.69 Q93.1447 1385.8 94.9502 1389.36 Q96.7789 1392.91 100.39 1392.91 Q104.024 1392.91 105.83 1389.36 Q107.658 1385.8 107.658 1378.69 Q107.658 1371.56 105.83 1368.02 Q104.024 1364.46 100.39 1364.46 M100.39 1360.75 Q106.2 1360.75 109.256 1365.36 Q112.334 1369.94 112.334 1378.69 Q112.334 1387.42 109.256 1392.03 Q106.2 1396.61 100.39 1396.61 Q94.5799 1396.61 91.5012 1392.03 Q88.4456 1387.42 88.4456 1378.69 Q88.4456 1369.94 91.5012 1365.36 Q94.5799 1360.75 100.39 1360.75 Z" fill="#000000" fill-rule="evenodd" fill-opacity="1" /><path clip-path="url(#clip010)" d="M 0 0 M64.6495 1099.54 Q61.0384 1099.54 59.2097 1103.1 Q57.4041 1106.64 57.4041 1113.77 Q57.4041 1120.88 59.2097 1124.44 Q61.0384 1127.99 64.6495 1127.99 Q68.2837 1127.99 70.0892 1124.44 Q71.9179 1120.88 71.9179 1113.77 Q71.9179 1106.64 70.0892 1103.1 Q68.2837 1099.54 64.6495 1099.54 M64.6495 1095.83 Q70.4596 1095.83 73.5152 1100.44 Q76.5938 1105.02 76.5938 1113.77 Q76.5938 1122.5 73.5152 1127.11 Q70.4596 1131.69 64.6495 1131.69 Q58.8393 1131.69 55.7606 1127.11 Q52.7051 1122.5 52.7051 1113.77 Q52.7051 1105.02 55.7606 1100.44 Q58.8393 1095.83 64.6495 1095.83 Z" fill="#000000" fill-rule="evenodd" fill-opacity="1" /><path clip-path="url(#clip010)" d="M 0 0 M81.6633 1125.14 L86.5475 1125.14 L86.5475 1131.02 L81.6633 1131.02 L81.6633 1125.14 Z" fill="#000000" fill-rule="evenodd" fill-opacity="1" /><path clip-path="url(#clip010)" d="M 0 0 M92.4271 1127.08 L100.066 1127.08 L100.066 1100.72 L91.7558 1102.38 L91.7558 1098.13 L100.02 1096.46 L104.696 1096.46 L104.696 1127.08 L112.334 1127.08 L112.334 1131.02 L92.4271 1131.02 L92.4271 1127.08 Z" fill="#000000" fill-rule="evenodd" fill-opacity="1" /><path clip-path="url(#clip010)" d="M 0 0 M65.0198 834.619 Q61.4087 834.619 59.58 838.184 Q57.7745 841.725 57.7745 848.855 Q57.7745 855.961 59.58 859.526 Q61.4087 863.068 65.0198 863.068 Q68.6541 863.068 70.4596 859.526 Q72.2883 855.961 72.2883 848.855 Q72.2883 841.725 70.4596 838.184 Q68.6541 834.619 65.0198 834.619 M65.0198 830.915 Q70.83 830.915 73.8855 835.522 Q76.9642 840.105 76.9642 848.855 Q76.9642 857.582 73.8855 862.188 Q70.83 866.771 65.0198 866.771 Q59.2097 866.771 56.131 862.188 Q53.0754 857.582 53.0754 848.855 Q53.0754 840.105 56.131 835.522 Q59.2097 830.915 65.0198 830.915 Z" fill="#000000" fill-rule="evenodd" fill-opacity="1" /><path clip-path="url(#clip010)" d="M 0 0 M82.0336 860.22 L86.9179 860.22 L86.9179 866.1 L82.0336 866.1 L82.0336 860.22 Z" fill="#000000" fill-rule="evenodd" fill-opacity="1" /><path clip-path="url(#clip010)" d="M 0 0 M96.015 862.165 L112.334 862.165 L112.334 866.1 L90.3901 866.1 L90.3901 862.165 Q93.0521 859.41 97.6354 854.781 Q102.242 850.128 103.422 848.785 Q105.668 846.262 106.547 844.526 Q107.45 842.767 107.45 841.077 Q107.45 838.322 105.506 836.586 Q103.584 834.85 100.483 834.85 Q98.2835 834.85 95.8298 835.614 Q93.3993 836.378 90.6215 837.929 L90.6215 833.207 Q93.4456 832.072 95.8993 831.494 Q98.353 830.915 100.39 830.915 Q105.76 830.915 108.955 833.6 Q112.149 836.285 112.149 840.776 Q112.149 842.906 111.339 844.827 Q110.552 846.725 108.446 849.318 Q107.867 849.989 104.765 853.207 Q101.663 856.401 96.015 862.165 Z" fill="#000000" fill-rule="evenodd" fill-opacity="1" /><path clip-path="url(#clip010)" d="M 0 0 M64.0708 569.7 Q60.4597 569.7 58.631 573.265 Q56.8254 576.806 56.8254 583.936 Q56.8254 591.042 58.631 594.607 Q60.4597 598.149 64.0708 598.149 Q67.705 598.149 69.5105 594.607 Q71.3392 591.042 71.3392 583.936 Q71.3392 576.806 69.5105 573.265 Q67.705 569.7 64.0708 569.7 M64.0708 565.996 Q69.8809 565.996 72.9365 570.603 Q76.0151 575.186 76.0151 583.936 Q76.0151 592.663 72.9365 597.269 Q69.8809 601.852 64.0708 601.852 Q58.2606 601.852 55.1819 597.269 Q52.1264 592.663 52.1264 583.936 Q52.1264 575.186 55.1819 570.603 Q58.2606 565.996 64.0708 565.996 Z" fill="#000000" fill-rule="evenodd" fill-opacity="1" /><path clip-path="url(#clip010)" d="M 0 0 M81.0846 595.302 L85.9688 595.302 L85.9688 601.181 L81.0846 601.181 L81.0846 595.302 Z" fill="#000000" fill-rule="evenodd" fill-opacity="1" /><path clip-path="url(#clip010)" d="M 0 0 M105.205 582.547 Q108.561 583.265 110.436 585.533 Q112.334 587.802 112.334 591.135 Q112.334 596.251 108.816 599.052 Q105.297 601.852 98.8159 601.852 Q96.64 601.852 94.3252 601.413 Q92.0336 600.996 89.5799 600.139 L89.5799 595.626 Q91.5243 596.76 93.8391 597.339 Q96.1539 597.917 98.6771 597.917 Q103.075 597.917 105.367 596.181 Q107.682 594.445 107.682 591.135 Q107.682 588.079 105.529 586.366 Q103.399 584.63 99.5798 584.63 L95.5521 584.63 L95.5521 580.788 L99.765 580.788 Q103.214 580.788 105.043 579.422 Q106.871 578.033 106.871 575.441 Q106.871 572.779 104.973 571.367 Q103.098 569.931 99.5798 569.931 Q97.6585 569.931 95.4595 570.348 Q93.2604 570.765 90.6215 571.644 L90.6215 567.478 Q93.2836 566.737 95.5984 566.367 Q97.9363 565.996 99.9965 565.996 Q105.321 565.996 108.422 568.427 Q111.524 570.834 111.524 574.954 Q111.524 577.825 109.881 579.816 Q108.237 581.783 105.205 582.547 Z" fill="#000000" fill-rule="evenodd" fill-opacity="1" /><path clip-path="url(#clip010)" d="M 0 0 M62.9365 304.781 Q59.3254 304.781 57.4967 308.346 Q55.6912 311.887 55.6912 319.017 Q55.6912 326.123 57.4967 329.688 Q59.3254 333.23 62.9365 333.23 Q66.5707 333.23 68.3763 329.688 Q70.205 326.123 70.205 319.017 Q70.205 311.887 68.3763 308.346 Q66.5707 304.781 62.9365 304.781 M62.9365 301.077 Q68.7467 301.077 71.8022 305.684 Q74.8809 310.267 74.8809 319.017 Q74.8809 327.744 71.8022 332.35 Q68.7467 336.934 62.9365 336.934 Q57.1264 336.934 54.0477 332.35 Q50.9921 327.744 50.9921 319.017 Q50.9921 310.267 54.0477 305.684 Q57.1264 301.077 62.9365 301.077 Z" fill="#000000" fill-rule="evenodd" fill-opacity="1" /><path clip-path="url(#clip010)" d="M 0 0 M79.9503 330.383 L84.8345 330.383 L84.8345 336.262 L79.9503 336.262 L79.9503 330.383 Z" fill="#000000" fill-rule="evenodd" fill-opacity="1" /><path clip-path="url(#clip010)" d="M 0 0 M102.751 305.776 L90.9456 324.225 L102.751 324.225 L102.751 305.776 M101.524 301.702 L107.404 301.702 L107.404 324.225 L112.334 324.225 L112.334 328.114 L107.404 328.114 L107.404 336.262 L102.751 336.262 L102.751 328.114 L87.1493 328.114 L87.1493 323.6 L101.524 301.702 Z" fill="#000000" fill-rule="evenodd" fill-opacity="1" /><path clip-path="url(#clip010)" d="M 0 0 M894.43 12.096 L945.593 12.096 L945.593 18.9825 L924.123 18.9825 L924.123 72.576 L915.9 72.576 L915.9 18.9825 L894.43 18.9825 L894.43 12.096 Z" fill="#000000" fill-rule="evenodd" fill-opacity="1" /><path clip-path="url(#clip010)" d="M 0 0 M959.366 76.7889 Q956.206 84.8907 953.209 87.3618 Q950.211 89.8329 945.188 89.8329 L939.233 89.8329 L939.233 83.5945 L943.608 83.5945 Q946.687 83.5945 948.388 82.1361 Q950.09 80.6778 952.156 75.2496 L953.492 71.8468 L935.142 27.2059 L943.041 27.2059 L957.219 62.6918 L971.397 27.2059 L979.297 27.2059 L959.366 76.7889 Z" fill="#000000" fill-rule="evenodd" fill-opacity="1" /><path clip-path="url(#clip010)" d="M 0 0 M994.325 65.7705 L994.325 89.8329 L986.831 89.8329 L986.831 27.2059 L994.325 27.2059 L994.325 34.0924 Q996.675 30.0415 1000.24 28.0971 Q1003.85 26.1121 1008.83 26.1121 Q1017.09 26.1121 1022.24 32.6746 Q1027.42 39.2371 1027.42 49.9314 Q1027.42 60.6258 1022.24 67.1883 Q1017.09 73.7508 1008.83 73.7508 Q1003.85 73.7508 1000.24 71.8063 Q996.675 69.8214 994.325 65.7705 M1019.68 49.9314 Q1019.68 41.7081 1016.28 37.0496 Q1012.92 32.3505 1007 32.3505 Q1001.09 32.3505 997.688 37.0496 Q994.325 41.7081 994.325 49.9314 Q994.325 58.1548 997.688 62.8538 Q1001.09 67.5124 1007 67.5124 Q1012.92 67.5124 1016.28 62.8538 Q1019.68 58.1548 1019.68 49.9314 Z" fill="#000000" fill-rule="evenodd" fill-opacity="1" /><path clip-path="url(#clip010)" d="M 0 0 M1074.05 48.0275 L1074.05 51.6733 L1039.78 51.6733 Q1040.26 59.3701 1044.39 63.421 Q1048.57 67.4314 1055.98 67.4314 Q1060.27 67.4314 1064.28 66.3781 Q1068.34 65.3249 1072.31 63.2184 L1072.31 70.267 Q1068.29 71.9684 1064.08 72.8596 Q1059.87 73.7508 1055.53 73.7508 Q1044.68 73.7508 1038.32 67.4314 Q1032 61.1119 1032 50.3365 Q1032 39.1965 1037.99 32.6746 Q1044.03 26.1121 1054.24 26.1121 Q1063.39 26.1121 1068.7 32.0264 Q1074.05 37.9003 1074.05 48.0275 M1066.59 45.84 Q1066.51 39.7232 1063.15 36.0774 Q1059.83 32.4315 1054.32 32.4315 Q1048.08 32.4315 1044.31 35.9558 Q1040.59 39.4801 1040.02 45.8805 L1066.59 45.84 Z" fill="#000000" fill-rule="evenodd" fill-opacity="1" /><path clip-path="url(#clip010)" d="M 0 0 M1144.82 14.0809 L1144.82 22.0612 Q1140.16 19.8332 1136.03 18.7395 Q1131.89 17.6457 1128.05 17.6457 Q1121.36 17.6457 1117.72 20.2383 Q1114.11 22.8309 1114.11 27.611 Q1114.11 31.6214 1116.5 33.6873 Q1118.93 35.7128 1125.66 36.9686 L1130.6 37.9813 Q1139.75 39.7232 1144.09 44.1387 Q1148.46 48.5136 1148.46 55.8863 Q1148.46 64.6767 1142.55 69.2137 Q1136.67 73.7508 1125.29 73.7508 Q1121 73.7508 1116.14 72.7785 Q1111.32 71.8063 1106.13 69.9024 L1106.13 61.4765 Q1111.11 64.2716 1115.89 65.6895 Q1120.67 67.1073 1125.29 67.1073 Q1132.3 67.1073 1136.11 64.3527 Q1139.91 61.598 1139.91 56.4939 Q1139.91 52.0379 1137.16 49.5264 Q1134.45 47.0148 1128.21 45.759 L1123.23 44.7868 Q1114.07 42.9639 1109.98 39.075 Q1105.89 35.1862 1105.89 28.2591 Q1105.89 20.2383 1111.52 15.6203 Q1117.19 11.0023 1127.11 11.0023 Q1131.37 11.0023 1135.78 11.7719 Q1140.2 12.5416 1144.82 14.0809 Z" fill="#000000" fill-rule="evenodd" fill-opacity="1" /><path clip-path="url(#clip010)" d="M 0 0 M1182.98 12.096 L1221.22 12.096 L1221.22 18.9825 L1191.16 18.9825 L1191.16 36.8875 L1219.96 36.8875 L1219.96 43.7741 L1191.16 43.7741 L1191.16 65.6895 L1221.95 65.6895 L1221.95 72.576 L1182.98 72.576 L1182.98 12.096 Z" fill="#000000" fill-rule="evenodd" fill-opacity="1" /><path clip-path="url(#clip010)" d="M 0 0 M1256.05 34.1734 Q1254.8 33.4443 1253.3 33.1202 Q1251.84 32.7556 1250.06 32.7556 Q1243.74 32.7556 1240.34 36.8875 Q1236.97 40.9789 1236.97 48.6757 L1236.97 72.576 L1229.48 72.576 L1229.48 27.2059 L1236.97 27.2059 L1236.97 34.2544 Q1239.32 30.1225 1243.09 28.1376 Q1246.86 26.1121 1252.25 26.1121 Q1253.02 26.1121 1253.95 26.2337 Q1254.88 26.3147 1256.01 26.5172 L1256.05 34.1734 Z" fill="#000000" fill-rule="evenodd" fill-opacity="1" /><path clip-path="url(#clip010)" d="M 0 0 M1288.7 34.1734 Q1287.45 33.4443 1285.95 33.1202 Q1284.49 32.7556 1282.71 32.7556 Q1276.39 32.7556 1272.99 36.8875 Q1269.62 40.9789 1269.62 48.6757 L1269.62 72.576 L1262.13 72.576 L1262.13 27.2059 L1269.62 27.2059 L1269.62 34.2544 Q1271.97 30.1225 1275.74 28.1376 Q1279.51 26.1121 1284.9 26.1121 Q1285.67 26.1121 1286.6 26.2337 Q1287.53 26.3147 1288.66 26.5172 L1288.7 34.1734 Z" fill="#000000" fill-rule="evenodd" fill-opacity="1" /><path clip-path="url(#clip010)" d="M 0 0 M1312.28 32.4315 Q1306.29 32.4315 1302.8 37.1306 Q1299.32 41.7891 1299.32 49.9314 Q1299.32 58.0738 1302.76 62.7728 Q1306.25 67.4314 1312.28 67.4314 Q1318.24 67.4314 1321.72 62.7323 Q1325.2 58.0333 1325.2 49.9314 Q1325.2 41.8701 1321.72 37.1711 Q1318.24 32.4315 1312.28 32.4315 M1312.28 26.1121 Q1322 26.1121 1327.55 32.4315 Q1333.1 38.7509 1333.1 49.9314 Q1333.1 61.0714 1327.55 67.4314 Q1322 73.7508 1312.28 73.7508 Q1302.52 73.7508 1296.97 67.4314 Q1291.46 61.0714 1291.46 49.9314 Q1291.46 38.7509 1296.97 32.4315 Q1302.52 26.1121 1312.28 26.1121 Z" fill="#000000" fill-rule="evenodd" fill-opacity="1" /><path clip-path="url(#clip010)" d="M 0 0 M1367.21 34.1734 Q1365.96 33.4443 1364.46 33.1202 Q1363 32.7556 1361.22 32.7556 Q1354.9 32.7556 1351.49 36.8875 Q1348.13 40.9789 1348.13 48.6757 L1348.13 72.576 L1340.64 72.576 L1340.64 27.2059 L1348.13 27.2059 L1348.13 34.2544 Q1350.48 30.1225 1354.25 28.1376 Q1358.02 26.1121 1363.4 26.1121 Q1364.17 26.1121 1365.1 26.2337 Q1366.04 26.3147 1367.17 26.5172 L1367.21 34.1734 Z" fill="#000000" fill-rule="evenodd" fill-opacity="1" /><path clip-path="url(#clip010)" d="M 0 0 M1430.41 44.2197 Q1433.04 45.1109 1435.51 48.0275 Q1438.02 50.9442 1440.53 56.0483 L1448.84 72.576 L1440.05 72.576 L1432.31 57.061 Q1429.31 50.9847 1426.48 48.9997 Q1423.68 47.0148 1418.82 47.0148 L1409.91 47.0148 L1409.91 72.576 L1401.72 72.576 L1401.72 12.096 L1420.2 12.096 Q1430.57 12.096 1435.67 16.4305 Q1440.78 20.7649 1440.78 29.5149 Q1440.78 35.2267 1438.1 38.994 Q1435.47 42.7613 1430.41 44.2197 M1409.91 18.8205 L1409.91 40.2903 L1420.2 40.2903 Q1426.11 40.2903 1429.11 37.5762 Q1432.15 34.8216 1432.15 29.5149 Q1432.15 24.2082 1429.11 21.5346 Q1426.11 18.8205 1420.2 18.8205 L1409.91 18.8205 Z" fill="#000000" fill-rule="evenodd" fill-opacity="1" /><path clip-path="url(#clip010)" d="M 0 0 M1475.45 49.7694 Q1466.42 49.7694 1462.93 51.8354 Q1459.45 53.9013 1459.45 58.8839 Q1459.45 62.8538 1462.04 65.2034 Q1464.68 67.5124 1469.17 67.5124 Q1475.37 67.5124 1479.1 63.1374 Q1482.86 58.7219 1482.86 51.4303 L1482.86 49.7694 L1475.45 49.7694 M1490.32 46.6907 L1490.32 72.576 L1482.86 72.576 L1482.86 65.6895 Q1480.31 69.8214 1476.5 71.8063 Q1472.7 73.7508 1467.19 73.7508 Q1460.22 73.7508 1456.09 69.8619 Q1452 65.9325 1452 59.3701 Q1452 51.7138 1457.1 47.825 Q1462.25 43.9361 1472.41 43.9361 L1482.86 43.9361 L1482.86 43.2069 Q1482.86 38.0623 1479.46 35.2672 Q1476.1 32.4315 1469.98 32.4315 Q1466.09 32.4315 1462.41 33.3632 Q1458.72 34.295 1455.32 36.1584 L1455.32 29.2718 Q1459.41 27.692 1463.26 26.9223 Q1467.11 26.1121 1470.75 26.1121 Q1480.6 26.1121 1485.46 31.2163 Q1490.32 36.3204 1490.32 46.6907 Z" fill="#000000" fill-rule="evenodd" fill-opacity="1" /><path clip-path="url(#clip010)" d="M 0 0 M1505.51 14.324 L1505.51 27.2059 L1520.86 27.2059 L1520.86 32.9987 L1505.51 32.9987 L1505.51 57.6282 Q1505.51 63.1779 1507.01 64.7578 Q1508.55 66.3376 1513.21 66.3376 L1520.86 66.3376 L1520.86 72.576 L1513.21 72.576 Q1504.58 72.576 1501.3 69.3758 Q1498.01 66.1351 1498.01 57.6282 L1498.01 32.9987 L1492.55 32.9987 L1492.55 27.2059 L1498.01 27.2059 L1498.01 14.324 L1505.51 14.324 Z" fill="#000000" fill-rule="evenodd" fill-opacity="1" /><path clip-path="url(#clip010)" d="M 0 0 M1567.49 48.0275 L1567.49 51.6733 L1533.22 51.6733 Q1533.7 59.3701 1537.84 63.421 Q1542.01 67.4314 1549.42 67.4314 Q1553.71 67.4314 1557.73 66.3781 Q1561.78 65.3249 1565.75 63.2184 L1565.75 70.267 Q1561.74 71.9684 1557.52 72.8596 Q1553.31 73.7508 1548.98 73.7508 Q1538.12 73.7508 1531.76 67.4314 Q1525.44 61.1119 1525.44 50.3365 Q1525.44 39.1965 1531.43 32.6746 Q1537.47 26.1121 1547.68 26.1121 Q1556.83 26.1121 1562.14 32.0264 Q1567.49 37.9003 1567.49 48.0275 M1560.03 45.84 Q1559.95 39.7232 1556.59 36.0774 Q1553.27 32.4315 1547.76 32.4315 Q1541.52 32.4315 1537.75 35.9558 Q1534.03 39.4801 1533.46 45.8805 L1560.03 45.84 Z" fill="#000000" fill-rule="evenodd" fill-opacity="1" /><path clip-path="url(#clip010)" d="M 0 0 M1604.23 28.5427 L1604.23 35.5912 Q1601.07 33.9709 1597.67 33.1607 Q1594.26 32.3505 1590.62 32.3505 Q1585.07 32.3505 1582.27 34.0519 Q1579.52 35.7533 1579.52 39.156 Q1579.52 41.7486 1581.5 43.2475 Q1583.49 44.7058 1589.48 46.0426 L1592.04 46.6097 Q1599.98 48.3111 1603.3 51.4303 Q1606.66 54.509 1606.66 60.0587 Q1606.66 66.3781 1601.64 70.0644 Q1596.65 73.7508 1587.9 73.7508 Q1584.26 73.7508 1580.29 73.0216 Q1576.36 72.3329 1571.98 70.9151 L1571.98 63.2184 Q1576.12 65.3654 1580.13 66.4591 Q1584.14 67.5124 1588.07 67.5124 Q1593.33 67.5124 1596.17 65.73 Q1599 63.9071 1599 60.6258 Q1599 57.5877 1596.94 55.9673 Q1594.91 54.3469 1587.99 52.8481 L1585.39 52.2405 Q1578.47 50.7821 1575.39 47.7845 Q1572.31 44.7463 1572.31 39.4801 Q1572.31 33.0797 1576.85 29.5959 Q1581.38 26.1121 1589.73 26.1121 Q1593.86 26.1121 1597.51 26.7198 Q1601.15 27.3274 1604.23 28.5427 Z" fill="#000000" fill-rule="evenodd" fill-opacity="1" /><polyline clip-path="url(#clip012)" style="stroke:#009af9; stroke-width:4; stroke-opacity:1; fill:none" points="
  210.724,1378.66 252.737,1365.41 294.75,1365.41 336.763,1325.67 378.776,1352.17 420.789,1325.67 888.183,928.296 1355.58,1007.77 1822.97,994.525 2290.37,1007.77 
  
  "/>
<polyline clip-path="url(#clip012)" style="stroke:#e26f46; stroke-width:4; stroke-opacity:1; fill:none" points="
  210.724,1378.66 252.737,1352.17 294.75,1352.17 336.763,1285.94 378.776,1246.2 420.789,1206.46 888.183,623.639 1355.58,160.031 1822.97,239.507 2290.37,305.736 
  
  "/>
<path clip-path="url(#clip010)" d="
M221.815 347.97 L681.564 347.97 L681.564 166.53 L221.815 166.53  Z
  " fill="#ffffff" fill-rule="evenodd" fill-opacity="1"/>
<polyline clip-path="url(#clip010)" style="stroke:#000000; stroke-width:4; stroke-opacity:1; fill:none" points="
  221.815,347.97 681.564,347.97 681.564,166.53 221.815,166.53 221.815,347.97 
  "/>
<polyline clip-path="url(#clip010)" style="stroke:#009af9; stroke-width:4; stroke-opacity:1; fill:none" points="
  246.309,227.01 393.27,227.01 
  "/>
<path clip-path="url(#clip010)" d="M 0 0 M417.764 209.73 L437.625 209.73 L437.625 213.665 L422.44 213.665 L422.44 223.851 L436.143 223.851 L436.143 227.786 L422.44 227.786 L422.44 244.29 L417.764 244.29 L417.764 209.73 Z" fill="#000000" fill-rule="evenodd" fill-opacity="1" /><path clip-path="url(#clip010)" d="M 0 0 M438.643 218.364 L442.902 218.364 L442.902 244.29 L438.643 244.29 L438.643 218.364 M438.643 208.272 L442.902 208.272 L442.902 213.665 L438.643 213.665 L438.643 208.272 Z" fill="#000000" fill-rule="evenodd" fill-opacity="1" /><path clip-path="url(#clip010)" d="M 0 0 M468.921 218.364 L459.546 230.98 L469.407 244.29 L464.384 244.29 L456.838 234.105 L449.291 244.29 L444.268 244.29 L454.338 230.726 L445.125 218.364 L450.148 218.364 L457.023 227.601 L463.898 218.364 L468.921 218.364 Z" fill="#000000" fill-rule="evenodd" fill-opacity="1" /><path clip-path="url(#clip010)" d="M 0 0 M494.592 230.263 L494.592 232.346 L475.009 232.346 Q475.287 236.744 477.648 239.059 Q480.032 241.35 484.268 241.35 Q486.722 241.35 489.013 240.749 Q491.328 240.147 493.597 238.943 L493.597 242.971 Q491.305 243.943 488.898 244.452 Q486.49 244.962 484.013 244.962 Q477.81 244.962 474.175 241.35 Q470.564 237.739 470.564 231.582 Q470.564 225.216 473.99 221.489 Q477.439 217.739 483.273 217.739 Q488.504 217.739 491.536 221.119 Q494.592 224.476 494.592 230.263 M490.333 229.013 Q490.286 225.517 488.365 223.434 Q486.467 221.351 483.319 221.351 Q479.754 221.351 477.601 223.364 Q475.472 225.378 475.148 229.036 L490.333 229.013 Z" fill="#000000" fill-rule="evenodd" fill-opacity="1" /><path clip-path="url(#clip010)" d="M 0 0 M516.12 222.3 L516.12 208.272 L520.379 208.272 L520.379 244.29 L516.12 244.29 L516.12 240.401 Q514.777 242.716 512.717 243.85 Q510.68 244.962 507.81 244.962 Q503.11 244.962 500.148 241.212 Q497.208 237.462 497.208 231.351 Q497.208 225.239 500.148 221.489 Q503.11 217.739 507.81 217.739 Q510.68 217.739 512.717 218.874 Q514.777 219.985 516.12 222.3 M501.606 231.351 Q501.606 236.05 503.527 238.735 Q505.472 241.397 508.851 241.397 Q512.231 241.397 514.175 238.735 Q516.12 236.05 516.12 231.351 Q516.12 226.651 514.175 223.989 Q512.231 221.304 508.851 221.304 Q505.472 221.304 503.527 223.989 Q501.606 226.651 501.606 231.351 Z" fill="#000000" fill-rule="evenodd" fill-opacity="1" /><polyline clip-path="url(#clip010)" style="stroke:#e26f46; stroke-width:4; stroke-opacity:1; fill:none" points="
  246.309,287.49 393.27,287.49 
  "/>
<path clip-path="url(#clip010)" d="M 0 0 M440.009 271.345 L440.009 275.905 Q437.347 274.632 434.986 274.007 Q432.625 273.382 430.426 273.382 Q426.606 273.382 424.523 274.863 Q422.463 276.345 422.463 279.076 Q422.463 281.368 423.828 282.548 Q425.217 283.706 429.06 284.423 L431.884 285.002 Q437.115 285.997 439.592 288.52 Q442.092 291.02 442.092 295.233 Q442.092 300.256 438.713 302.849 Q435.356 305.442 428.852 305.442 Q426.398 305.442 423.62 304.886 Q420.866 304.33 417.903 303.243 L417.903 298.428 Q420.75 300.025 423.481 300.835 Q426.213 301.645 428.852 301.645 Q432.856 301.645 435.032 300.071 Q437.208 298.497 437.208 295.581 Q437.208 293.034 435.634 291.599 Q434.083 290.164 430.518 289.446 L427.671 288.891 Q422.44 287.849 420.102 285.627 Q417.764 283.405 417.764 279.446 Q417.764 274.863 420.981 272.224 Q424.222 269.585 429.893 269.585 Q432.324 269.585 434.847 270.025 Q437.37 270.465 440.009 271.345 Z" fill="#000000" fill-rule="evenodd" fill-opacity="1" /><path clip-path="url(#clip010)" d="M 0 0 M468.736 290.743 L468.736 292.826 L449.152 292.826 Q449.43 297.224 451.791 299.539 Q454.176 301.83 458.412 301.83 Q460.865 301.83 463.157 301.229 Q465.472 300.627 467.74 299.423 L467.74 303.451 Q465.449 304.423 463.041 304.932 Q460.634 305.442 458.157 305.442 Q451.953 305.442 448.319 301.83 Q444.708 298.219 444.708 292.062 Q444.708 285.696 448.134 281.969 Q451.583 278.219 457.416 278.219 Q462.648 278.219 465.68 281.599 Q468.736 284.956 468.736 290.743 M464.476 289.493 Q464.43 285.997 462.509 283.914 Q460.611 281.831 457.463 281.831 Q453.898 281.831 451.745 283.844 Q449.615 285.858 449.291 289.516 L464.476 289.493 Z" fill="#000000" fill-rule="evenodd" fill-opacity="1" /><path clip-path="url(#clip010)" d="M 0 0 M475.749 291.831 Q475.749 296.53 477.671 299.215 Q479.615 301.877 482.995 301.877 Q486.374 301.877 488.319 299.215 Q490.263 296.53 490.263 291.831 Q490.263 287.131 488.319 284.469 Q486.374 281.784 482.995 281.784 Q479.615 281.784 477.671 284.469 Q475.749 287.131 475.749 291.831 M490.263 300.881 Q488.921 303.196 486.861 304.33 Q484.824 305.442 481.953 305.442 Q477.254 305.442 474.291 301.692 Q471.351 297.942 471.351 291.831 Q471.351 285.719 474.291 281.969 Q477.254 278.219 481.953 278.219 Q484.824 278.219 486.861 279.354 Q488.921 280.465 490.263 282.78 L490.263 278.844 L494.523 278.844 L494.523 314.631 L490.263 314.631 L490.263 300.881 Z" fill="#000000" fill-rule="evenodd" fill-opacity="1" /><path clip-path="url(#clip010)" d="M 0 0 M498.55 294.539 L498.55 278.844 L502.81 278.844 L502.81 294.377 Q502.81 298.057 504.245 299.909 Q505.68 301.738 508.55 301.738 Q511.999 301.738 513.99 299.539 Q516.004 297.34 516.004 293.543 L516.004 278.844 L520.263 278.844 L520.263 304.77 L516.004 304.77 L516.004 300.789 Q514.453 303.15 512.393 304.307 Q510.356 305.442 507.647 305.442 Q503.18 305.442 500.865 302.664 Q498.55 299.886 498.55 294.539 M509.268 278.219 L509.268 278.219 Z" fill="#000000" fill-rule="evenodd" fill-opacity="1" /><path clip-path="url(#clip010)" d="M 0 0 M546.907 290.743 L546.907 292.826 L527.323 292.826 Q527.601 297.224 529.962 299.539 Q532.346 301.83 536.582 301.83 Q539.036 301.83 541.328 301.229 Q543.643 300.627 545.911 299.423 L545.911 303.451 Q543.619 304.423 541.212 304.932 Q538.805 305.442 536.328 305.442 Q530.124 305.442 526.49 301.83 Q522.879 298.219 522.879 292.062 Q522.879 285.696 526.305 281.969 Q529.754 278.219 535.587 278.219 Q540.819 278.219 543.851 281.599 Q546.907 284.956 546.907 290.743 M542.647 289.493 Q542.601 285.997 540.68 283.914 Q538.782 281.831 535.633 281.831 Q532.069 281.831 529.916 283.844 Q527.786 285.858 527.462 289.516 L542.647 289.493 Z" fill="#000000" fill-rule="evenodd" fill-opacity="1" /><path clip-path="url(#clip010)" d="M 0 0 M572.925 289.122 L572.925 304.77 L568.666 304.77 L568.666 289.261 Q568.666 285.581 567.23 283.752 Q565.795 281.923 562.925 281.923 Q559.476 281.923 557.485 284.122 Q555.494 286.321 555.494 290.118 L555.494 304.77 L551.212 304.77 L551.212 278.844 L555.494 278.844 L555.494 282.872 Q557.022 280.534 559.082 279.377 Q561.166 278.219 563.874 278.219 Q568.342 278.219 570.633 280.997 Q572.925 283.752 572.925 289.122 Z" fill="#000000" fill-rule="evenodd" fill-opacity="1" /><path clip-path="url(#clip010)" d="M 0 0 M581.605 271.483 L581.605 278.844 L590.379 278.844 L590.379 282.155 L581.605 282.155 L581.605 296.229 Q581.605 299.4 582.462 300.303 Q583.342 301.205 586.004 301.205 L590.379 301.205 L590.379 304.77 L586.004 304.77 Q581.073 304.77 579.198 302.942 Q577.323 301.09 577.323 296.229 L577.323 282.155 L574.198 282.155 L574.198 278.844 L577.323 278.844 L577.323 271.483 L581.605 271.483 Z" fill="#000000" fill-rule="evenodd" fill-opacity="1" /><path clip-path="url(#clip010)" d="M 0 0 M594.846 278.844 L599.105 278.844 L599.105 304.77 L594.846 304.77 L594.846 278.844 M594.846 268.752 L599.105 268.752 L599.105 274.145 L594.846 274.145 L594.846 268.752 Z" fill="#000000" fill-rule="evenodd" fill-opacity="1" /><path clip-path="url(#clip010)" d="M 0 0 M615.355 291.738 Q610.193 291.738 608.202 292.918 Q606.212 294.099 606.212 296.946 Q606.212 299.215 607.693 300.557 Q609.198 301.877 611.767 301.877 Q615.309 301.877 617.439 299.377 Q619.591 296.854 619.591 292.687 L619.591 291.738 L615.355 291.738 M623.851 289.979 L623.851 304.77 L619.591 304.77 L619.591 300.835 Q618.133 303.196 615.957 304.33 Q613.781 305.442 610.633 305.442 Q606.652 305.442 604.29 303.219 Q601.953 300.974 601.953 297.224 Q601.953 292.849 604.869 290.627 Q607.809 288.405 613.619 288.405 L619.591 288.405 L619.591 287.988 Q619.591 285.048 617.647 283.451 Q615.726 281.831 612.23 281.831 Q610.008 281.831 607.902 282.363 Q605.795 282.895 603.851 283.96 L603.851 280.025 Q606.189 279.122 608.388 278.682 Q610.587 278.219 612.67 278.219 Q618.295 278.219 621.073 281.136 Q623.851 284.053 623.851 289.979 Z" fill="#000000" fill-rule="evenodd" fill-opacity="1" /><path clip-path="url(#clip010)" d="M 0 0 M628.318 268.752 L632.577 268.752 L632.577 304.77 L628.318 304.77 L628.318 268.752 Z" fill="#000000" fill-rule="evenodd" fill-opacity="1" /></svg>
